#N canvas 329 69 647 447 10;
#X obj 139 28 inlet~;
#X obj 137 152 outlet~;
#X obj 293 97 list prepend amplitude-\$1;
#X obj 292 120 list trim;
#X obj 291 145 outlet;
#X obj 290 70 env~ 512;
#X connect 0 0 1 0;
#X connect 0 0 5 0;
#X connect 2 0 3 0;
#X connect 3 0 4 0;
#X connect 5 0 2 0;
