#N canvas 301 241 450 300 10;
#X msg 148 80 long;
#X obj 84 109 button-reset-counter 5;
#X floatatom 140 133 5 0 0 0 - - -;
#X msg 84 78 single;
#X obj 83 166 > 1;
#X obj 83 187 route 0 1;
#X obj 86 211 bng 15 250 50 0 empty empty empty 17 7 0 10 -262144 -1
-1;
#X obj 110 213 bng 15 250 50 0 empty empty empty 17 7 0 10 -262144
-1 -1;
#X connect 0 0 1 0;
#X connect 1 0 2 0;
#X connect 1 0 4 0;
#X connect 3 0 1 0;
#X connect 4 0 5 0;
#X connect 5 0 6 0;
#X connect 5 1 7 0;
