#N canvas 390 257 450 300 10;
#X obj 89 19 inlet;
#X obj 89 40 route single double long;
#X msg 89 61 1;
#X msg 139 61 2;
#X msg 179 60 3;
#X obj 88 101 outlet;
#X connect 0 0 1 0;
#X connect 1 0 2 0;
#X connect 1 1 3 0;
#X connect 1 2 4 0;
#X connect 2 0 5 0;
#X connect 3 0 5 0;
#X connect 4 0 5 0;
