#N canvas 301 241 450 300 10;
#X obj 97 31 inlet;
#X obj 104 104 1;
#X obj 110 142 outlet;
#X obj 102 59 route long single;
#X obj 152 108 counter 2 \$1;
#X msg 221 89 2;
#X connect 0 0 3 0;
#X connect 1 0 2 0;
#X connect 3 0 1 0;
#X connect 3 0 5 0;
#X connect 3 1 4 0;
#X connect 4 0 2 0;
#X connect 5 0 4 1;
