#N canvas 666 23 547 553 10;
#X obj 43 144 route 1 0;
#X obj 127 290 spigot;
#X obj 42 307 t b b;
#X msg 69 329 0;
#X obj 42 203 t b b;
#X msg 71 222 1;
#X msg 207 245 stop;
#X obj 42 107 inlet;
#X obj 43 288 delay \$1;
#X msg 42 362 long;
#X obj 42 530 outlet;
#X obj 343 258 delay \$2;
#X obj 310 169 loadbang;
#X obj 310 190 \$2;
#X obj 291 291 spigot;
#X obj 127 311 t b b b;
#X obj 128 436 spigot 1;
#X msg 127 461 short;
#X obj 294 330 timer;
#X obj 294 312 t b b;
#X obj 294 350 < \$2;
#X msg 295 473 double;
#X msg 322 414 0;
#X obj 295 393 t b b;
#X obj 71 243 t a a;
#X obj 294 371 sel 1;
#X obj 128 357 route 0 1;
#X obj 153 378 delay \$2;
#X obj 127 335 \$3;
#X msg 226 382 stop;
#X connect 0 0 4 0;
#X connect 0 1 1 0;
#X connect 1 0 15 0;
#X connect 2 0 9 0;
#X connect 2 1 3 0;
#X connect 3 0 1 1;
#X connect 4 0 8 0;
#X connect 4 1 5 0;
#X connect 5 0 24 0;
#X connect 6 0 8 0;
#X connect 7 0 0 0;
#X connect 8 0 2 0;
#X connect 9 0 10 0;
#X connect 12 0 13 0;
#X connect 13 0 14 1;
#X connect 14 0 19 0;
#X connect 15 0 28 0;
#X connect 15 1 14 0;
#X connect 15 2 6 0;
#X connect 16 0 17 0;
#X connect 17 0 10 0;
#X connect 18 0 20 0;
#X connect 19 0 18 0;
#X connect 19 1 18 1;
#X connect 20 0 25 0;
#X connect 21 0 10 0;
#X connect 22 0 16 1;
#X connect 23 0 21 0;
#X connect 23 1 22 0;
#X connect 23 1 29 0;
#X connect 24 0 16 1;
#X connect 24 1 1 1;
#X connect 25 0 23 0;
#X connect 26 0 16 0;
#X connect 26 1 27 0;
#X connect 27 0 16 0;
#X connect 28 0 26 0;
#X connect 29 0 27 0;
