#N canvas 351 68 779 444 10;
#X obj 157 17 bng 15 250 50 0 empty empty short 17 7 0 10 -262144 -1
-1;
#X obj 157 38 t b b;
#X obj 157 59 delay 99;
#X msg 157 80 0;
#X msg 216 55 1;
#X obj 367 17 bng 15 250 50 0 empty empty long 17 7 0 10 -262144 -1
-1;
#X obj 367 38 t b b;
#X msg 367 80 0;
#X msg 426 55 1;
#X obj 367 59 delay 101;
#X obj 364 218 tgl 15 0 empty empty empty 17 7 0 10 -262144 -1 -1 0
1;
#X text 390 217 long press is output directly after wait;
#X obj 154 104 button-gestures 100;
#X obj 364 104 button-gestures 100;
#X obj 364 244 button-gestures 1000;
#X obj 153 133 route short long double;
#X obj 153 155 bng 15 250 50 0 empty empty empty 17 7 0 10 -262144
-1 -1;
#X obj 198 155 bng 15 250 50 0 empty empty empty 17 7 0 10 -262144
-1 -1;
#X obj 243 155 bng 15 250 50 0 empty empty empty 17 7 0 10 -262144
-1 -1;
#X obj 364 131 route short long double;
#X obj 364 153 bng 15 250 50 0 empty empty empty 17 7 0 10 -262144
-1 -1;
#X obj 409 153 bng 15 250 50 0 empty empty empty 17 7 0 10 -262144
-1 -1;
#X obj 454 153 bng 15 250 50 0 empty empty empty 17 7 0 10 -262144
-1 -1;
#X obj 368 283 route short long double;
#X obj 368 305 bng 15 250 50 0 empty empty empty 17 7 0 10 -262144
-1 -1;
#X obj 413 305 bng 15 250 50 0 empty empty empty 17 7 0 10 -262144
-1 -1;
#X obj 458 305 bng 15 250 50 0 empty empty empty 17 7 0 10 -262144
-1 -1;
#X obj 41 109 bng 15 250 50 0 empty empty double 17 7 0 10 -262144
-1 -1;
#X obj 41 130 t b b;
#X msg 41 172 0;
#X msg 100 147 1;
#X obj 37 225 route short long double;
#X obj 37 247 bng 15 250 50 0 empty empty empty 17 7 0 10 -262144 -1
-1;
#X obj 82 247 bng 15 250 50 0 empty empty empty 17 7 0 10 -262144 -1
-1;
#X obj 127 247 bng 15 250 50 0 empty empty empty 17 7 0 10 -262144
-1 -1;
#X obj 41 151 delay 10;
#X obj 38 196 button-gestures 100 200 1;
#X text 203 194 args: short/long threshold \, double threshold (ms)
\, wait for double click (0/1);
#X obj 41 279 bng 15 250 50 0 empty empty double 17 7 0 10 -262144
-1 -1;
#X obj 41 300 t b b;
#X msg 41 342 0;
#X msg 100 317 1;
#X obj 37 395 route short long double;
#X obj 37 417 bng 15 250 50 0 empty empty empty 17 7 0 10 -262144 -1
-1;
#X obj 82 417 bng 15 250 50 0 empty empty empty 17 7 0 10 -262144 -1
-1;
#X obj 127 417 bng 15 250 50 0 empty empty empty 17 7 0 10 -262144
-1 -1;
#X obj 41 321 delay 10;
#X obj 38 366 button-gestures 100 200 0;
#X text 203 364 if 3rd argument is 0 or omitted \, don't wait for doubleclick
detection before outputting the short click;
#X connect 0 0 1 0;
#X connect 1 0 2 0;
#X connect 1 1 4 0;
#X connect 2 0 3 0;
#X connect 3 0 12 0;
#X connect 4 0 12 0;
#X connect 5 0 6 0;
#X connect 6 0 9 0;
#X connect 6 1 8 0;
#X connect 7 0 13 0;
#X connect 8 0 13 0;
#X connect 9 0 7 0;
#X connect 10 0 14 0;
#X connect 12 0 15 0;
#X connect 13 0 19 0;
#X connect 14 0 23 0;
#X connect 15 0 16 0;
#X connect 15 1 17 0;
#X connect 15 2 18 0;
#X connect 19 0 20 0;
#X connect 19 1 21 0;
#X connect 19 2 22 0;
#X connect 23 0 24 0;
#X connect 23 1 25 0;
#X connect 23 2 26 0;
#X connect 27 0 28 0;
#X connect 28 0 35 0;
#X connect 28 1 30 0;
#X connect 29 0 36 0;
#X connect 30 0 36 0;
#X connect 31 0 32 0;
#X connect 31 1 33 0;
#X connect 31 2 34 0;
#X connect 35 0 29 0;
#X connect 36 0 31 0;
#X connect 38 0 39 0;
#X connect 39 0 46 0;
#X connect 39 1 41 0;
#X connect 40 0 47 0;
#X connect 41 0 47 0;
#X connect 42 0 43 0;
#X connect 42 1 44 0;
#X connect 42 2 45 0;
#X connect 46 0 40 0;
#X connect 47 0 42 0;
