#N canvas 0 23 450 300 10;
#X obj 113 45 inlet~;
#X obj 264 118 liner~;
#X obj 63 213 outlet~;
#X obj 266 96 != 0;
#X obj 113 116 liner~;
#X obj 115 94 == 0;
#X obj 69 123 *~;
#X obj 295 44 inlet;
#X obj 257 138 *~;
#X obj 177 41 inlet~;
#X connect 0 0 6 0;
#X connect 1 0 8 1;
#X connect 3 0 1 0;
#X connect 4 0 6 1;
#X connect 5 0 4 0;
#X connect 6 0 2 0;
#X connect 7 0 3 0;
#X connect 7 0 5 0;
#X connect 8 0 2 0;
#X connect 9 0 8 0;
