#N canvas 315 38 869 644 12;
#X obj 256 373 inlet~;
#X obj 122 250 t f f b;
#X obj 172 277 0;
#X obj 121 170 change;
#X text 358 48 msg to current;
#X obj 354 284 list prepend all;
#X obj 354 308 list trim;
#X text 354 231 msg to all;
#X msg 121 299 \$1 on;
#X msg 170 304 \$1 off;
#X msg 493 257 all off;
#X obj 673 3 inlet;
#X msg 267 80 all off;
#N canvas 445 251 501 338 counter 0;
#X obj 128 21 inlet;
#X obj 128 151 f;
#X obj 148 101 f;
#X obj 148 125 + 1;
#X obj 128 208 t f f;
#X obj 147 48 inlet;
#X obj 198 98 f;
#X obj 197 45 inlet;
#X obj 198 122 - 1;
#X obj 129 237 outlet;
#X obj 270 47 inlet;
#X obj 128 177 mod \$1;
#X connect 0 0 1 0;
#X connect 1 0 11 0;
#X connect 2 0 3 0;
#X connect 3 0 1 0;
#X connect 4 0 9 0;
#X connect 4 1 2 1;
#X connect 4 1 6 1;
#X connect 5 0 2 0;
#X connect 6 0 8 0;
#X connect 7 0 6 0;
#X connect 8 0 1 0;
#X connect 10 0 1 0;
#X connect 11 0 4 0;
#X restore 112 58 pd counter;
#X obj 39 149 mod 3;
#X msg 38 126 0;
#X msg 27 24 on;
#X msg 49 62 off;
#X msg 168 120 set -1;
#X msg 25 91 next;
#X obj 184 -3 hsl 128 15 0 10 0 0 empty empty empty -2 -8 0 10 -262144
-1 -1 0 1;
#X obj 330 370 inlet~;
#X obj 406 363 inlet~;
#X obj 486 373 inlet~;
#X obj 332 436 outlet~;
#X obj 485 434 outlet~;
#X obj 112 24 route float next prev on off all;
#X obj 180 406 clone patch-wrapper \$1 \$2, f 44;
#X obj 234 284 list prepend 0;
#X obj 661 504 outlet;
#X obj 179 443 route;
#X obj 674 27 route \$2;
#X obj 39 175 print \$2;
#X connect 0 0 27 1;
#X connect 1 0 8 0;
#X connect 1 0 28 1;
#X connect 1 1 2 1;
#X connect 1 1 30 1;
#X connect 1 2 2 0;
#X connect 2 0 9 0;
#X connect 3 0 1 0;
#X connect 5 0 6 0;
#X connect 6 0 27 0;
#X connect 8 0 27 0;
#X connect 9 0 27 0;
#X connect 10 0 6 0;
#X connect 11 0 31 0;
#X connect 12 0 27 0;
#X connect 13 0 3 0;
#X connect 13 0 32 0;
#X connect 14 0 32 0;
#X connect 15 0 14 0;
#X connect 16 0 26 0;
#X connect 17 0 26 0;
#X connect 18 0 3 0;
#X connect 19 0 26 0;
#X connect 20 0 26 0;
#X connect 21 0 27 2;
#X connect 22 0 27 3;
#X connect 23 0 27 4;
#X connect 26 0 13 0;
#X connect 26 1 13 1;
#X connect 26 2 13 2;
#X connect 26 3 13 3;
#X connect 26 4 12 0;
#X connect 26 4 18 0;
#X connect 26 5 5 0;
#X connect 26 6 28 0;
#X connect 27 0 30 0;
#X connect 27 1 24 0;
#X connect 27 2 25 0;
#X connect 28 0 27 0;
#X connect 30 0 29 0;
#X connect 31 0 26 0;
#X connect 31 1 29 0;
