#N canvas 410 234 913 644 12;
#X obj 406 92 tgl 15 0 empty empty empty 17 7 0 10 -262144 -1 -1 0
1;
#X obj 405 233 list prepend clone-wrapper-help-example;
#X obj 405 257 list trim;
#X text 424 92 Select patch;
#X obj 114 286 clone-wrapper 2 clone-wrapper-help-example;
#X text 435 287 Number of clones \, patch to clone;
#X text 436 303 Patch name is constructed from patchname+count;
#X text 436 317 clone-wrapper-help-example-0.pd;
#X text 436 332 clone-wrapper-help-example-1.pd;
#X text 528 140 show patch;
#X msg 475 140 vis 1;
#X msg 427 111 next;
#X msg 473 112 prev;
#X text 519 110 select next/previous;
#X text 137 316 2 audio outputs;
#X text 148 248 4 audio inputs;
#X msg 485 165 on;
#X msg 523 165 off;
#X floatatom 260 372 5 0 0 0 - - -;
#X floatatom 392 345 5 0 0 0 - - -;
#X obj 357 343 bng 15 250 50 0 empty empty empty 17 7 0 10 -262144
-1 -1;
#X floatatom 117 375 5 0 0 0 - - -;
#X obj 113 202 sig~ 4;
#X obj 117 348 snapshot~;
#X obj 24 298 metro 100;
#X obj 21 269 loadbang;
#X obj 260 345 snapshot~;
#X text 37 34 A wrapper around [clone] for the bubblebass project;
#X text 478 203 All messages are passed through the right outlet \,
prepended with the abstraction base name;
#X connect 0 0 1 0;
#X connect 1 0 2 0;
#X connect 2 0 4 4;
#X connect 4 0 23 0;
#X connect 4 1 26 0;
#X connect 4 2 20 0;
#X connect 4 2 19 0;
#X connect 10 0 1 0;
#X connect 11 0 1 0;
#X connect 12 0 1 0;
#X connect 16 0 1 0;
#X connect 17 0 1 0;
#X connect 22 0 4 0;
#X connect 23 0 21 0;
#X connect 24 0 23 0;
#X connect 24 0 26 0;
#X connect 25 0 24 0;
#X connect 26 0 18 0;
