#N canvas 498 33 559 300 10;
#X obj 144 79 inlet~ pitch;
#X obj 39 47 inlet~ audio;
#X obj 38 242 outlet~;
#N canvas 0 23 450 300 write 0;
#X obj 126 47 inlet~;
#X obj 197 90 delwrite~ \$0-oct 100;
#X obj 126 125 outlet~;
#X connect 0 0 1 0;
#X connect 0 0 2 0;
#X restore 38 96 pd write;
#N canvas 523 23 450 300 read 0;
#X obj 37 37 inlet~;
#X obj 325 44 inlet~ pitch;
#X obj 259 93 /~;
#X obj 38 173 +~;
#X obj 259 194 delread4~ \$0-oct;
#X obj 325 89 *~ 12;
#X obj 259 43 sig~ 1000;
#X obj 324 109 lop~ 1;
#X obj 260 149 *~;
#X obj 409 141 inlet;
#X obj 256 234 *~;
#X obj 538 209 inlet;
#X obj 38 194 outlet~;
#X connect 0 0 3 0;
#X connect 1 0 5 0;
#X connect 2 0 8 0;
#X connect 3 0 12 0;
#X connect 4 0 10 0;
#X connect 5 0 7 0;
#X connect 6 0 2 0;
#X connect 7 0 2 1;
#X connect 8 0 4 0;
#X connect 9 0 8 1;
#X connect 10 0 3 1;
#X connect 11 0 10 1;
#X restore 38 136 pd read;
#X f 31;
#X obj 253 79 inlet pitchmul;
#X obj 373 76 inlet amt;
#X connect 0 0 4 1;
#X connect 1 0 3 0;
#X connect 3 0 4 0;
#X connect 4 0 2 0;
#X connect 5 0 4 2;
#X connect 6 0 4 3;
