#N canvas 0 23 966 516 10;
#X declare -path ../rj;
#X obj 83 32 inlet~;
#X obj 83 215 outlet~;
#X obj 715 32 inlet;
#X obj 810 16 declare -path ../rj;
#X text 435 317 FIXME;
#X obj 715 53 outlet;
#X obj 193 32 inlet~;
#X obj 193 214 outlet~;
#X obj 313 32 inlet~;
#X obj 313 214 outlet~;
#X obj 423 32 inlet~;
#X obj 423 214 outlet~;
#X text 515 228 phase \, depth;
#X obj 83 194 comb-shifter~;
#X obj 193 193 comb-shifter~;
#X obj 313 193 comb-shifter~;
#X obj 423 193 comb-shifter~;
#X connect 0 0 13 0;
#X connect 2 0 5 0;
#X connect 6 0 14 0;
#X connect 8 0 15 0;
#X connect 10 0 16 0;
#X connect 13 0 1 0;
#X connect 14 0 7 0;
#X connect 15 0 9 0;
#X connect 16 0 11 0;
