#N canvas 94 123 1142 516 10;
#X declare -path ../rj -path ../puremapping;
#X obj 83 32 inlet~;
#X obj 83 325 outlet~;
#X obj 715 32 inlet;
#X obj 772 79 outlet;
#X obj 193 32 inlet~;
#X obj 193 324 outlet~;
#X obj 313 32 inlet~;
#X obj 313 324 outlet~;
#X obj 423 32 inlet~;
#X obj 423 324 outlet~;
#X text 515 338 phase \, depth;
#X obj 83 304 comb-shifter~;
#X obj 193 303 comb-shifter~;
#X obj 313 303 comb-shifter~;
#X obj 423 303 comb-shifter~;
#X obj 715 53 route comb;
#X obj 715 104 route 1 2 3;
#X obj 715 125 list split 1;
#X obj 715 176 t a a;
#X obj 701 304 u_loader comb \$0;
#X obj 741 194 param pitch \$0;
#X obj 810 17 declare -path ../rj -path ../puremapping;
#X obj 715 149 mapping2float 1 8;
#X obj 714 215 f;
#X obj 853 137;
#X msg 559 136 \$1 \$3;
#X obj 135 203 range~;
#X obj 251 203 range~;
#X obj 362 203 range~;
#X obj 478 203 range~;
#X obj 566 159 param ampmod-amount \$0;
#X text 790 239 TODO IMU;
#X obj 139 73 r~ amp-1;
#X obj 255 73 r~ amp-2;
#X obj 366 73 r~ amp-3;
#X obj 482 73 r~ amp-4;
#X obj 108 117 r~ pitch-1;
#X obj 218 116 r~ pitch-2;
#X obj 335 115 r~ pitch-3;
#X obj 445 114 r~ pitch-4;
#X connect 0 0 11 0;
#X connect 2 0 15 0;
#X connect 4 0 12 0;
#X connect 6 0 13 0;
#X connect 8 0 14 0;
#X connect 11 0 1 0;
#X connect 12 0 5 0;
#X connect 13 0 7 0;
#X connect 14 0 9 0;
#X connect 15 0 16 0;
#X connect 15 1 3 0;
#X connect 16 0 17 0;
#X connect 16 1 25 0;
#X connect 17 0 22 0;
#X connect 18 0 23 0;
#X connect 18 1 20 0;
#X connect 20 0 23 0;
#X connect 22 0 18 0;
#X connect 23 0 14 3;
#X connect 23 0 13 3;
#X connect 23 0 12 3;
#X connect 23 0 11 3;
#X connect 25 0 26 1;
#X connect 25 0 27 1;
#X connect 25 0 28 1;
#X connect 25 0 29 1;
#X connect 25 0 30 1;
#X connect 26 0 11 2;
#X connect 27 0 12 2;
#X connect 28 0 13 2;
#X connect 29 0 14 2;
#X connect 30 0 29 1;
#X connect 30 0 28 1;
#X connect 30 0 27 1;
#X connect 30 0 26 1;
#X connect 32 0 26 0;
#X connect 33 0 27 0;
#X connect 34 0 28 0;
#X connect 35 0 29 0;
#X connect 36 0 11 1;
#X connect 37 0 12 1;
#X connect 38 0 13 1;
#X connect 39 0 14 1;
