#N canvas 248 157 703 387 10;
#X obj 154 44 inlet;
#X obj 155 109 f;
#X obj 266 73 loadbang;
#X obj 255 105 \$2;
#X obj 255 126 - \$1;
#X obj 212 153 %;
#X obj 211 109 + 1;
#X obj 154 178 + \$1;
#X obj 154 199 outlet;
#X obj 254 149 + 1;
#X obj 207 12 inlet;
#X obj 209 62 - \$1;
#X obj 207 33 route float bang;
#X connect 0 0 1 0;
#X connect 1 0 6 0;
#X connect 1 0 7 0;
#X connect 2 0 3 0;
#X connect 3 0 4 0;
#X connect 4 0 9 0;
#X connect 5 0 1 1;
#X connect 6 0 5 0;
#X connect 7 0 8 0;
#X connect 9 0 5 1;
#X connect 10 0 12 0;
#X connect 11 0 1 1;
#X connect 12 0 11 0;
#X connect 12 1 3 0;
