#N canvas 151 144 450 300 12;
#X obj 110 4 inlet;
#X obj 108 190 spigot 1;
#X obj 108 273 outlet;
#X obj 176 116 delay \$1;
#X obj 171 151 1;
#X obj 174 5 inlet;
#X msg 176 91 stop;
#X obj 107 216 t a b b;
#X obj 192 190 0;
#X obj 175 34 route reset;
#X msg 138 93 1;
#X obj 176 58 t a a;
#X connect 0 0 1 0;
#X connect 1 0 7 0;
#X connect 3 0 4 0;
#X connect 4 0 1 1;
#X connect 5 0 9 0;
#X connect 6 0 3 0;
#X connect 7 0 2 0;
#X connect 7 1 3 0;
#X connect 7 2 8 0;
#X connect 8 0 1 1;
#X connect 9 0 11 0;
#X connect 9 1 3 1;
#X connect 10 0 1 1;
#X connect 11 0 10 0;
#X connect 11 1 6 0;
