#N canvas 640 285 741 593 10;
#X obj 12 156 inlet~;
#X obj 214 40 inlet;
#X obj 370 183 outlet;
#X text 397 332 global mute;
#X obj 65 377 outlet~;
#X obj 151 188 * 0;
#X text 184 187 TODO mapping;
#N canvas 352 175 330 235 delay-writer 0;
#X obj 96 85 inlet~;
#X obj 96 158 outlet~;
#X obj 116 122 delwrite~ \$0-del 100;
#X connect 0 0 1 0;
#X connect 0 0 2 0;
#X restore 65 232 pd delay-writer;
#N canvas 392 176 280 330 delay-reader 0;
#X obj 97 77 inlet~;
#X obj 97 227 outlet~;
#X obj 165 78 inlet~;
#X obj 165 113 vd~ \$0-del;
#X connect 2 0 3 0;
#X connect 3 0 1 0;
#X restore 65 265 pd delay-reader;
#X obj 216 72 patchparamrouter delay \$2 \$1;
#X text 388 72 delay \, delaymod1 \, delaymod2 \, delaymod3;
#X obj 167 238 sig~ 0;
#X obj 207 130 t f f;
#X obj 207 151 == 0;
#X obj 13 307 bypass~;
#X connect 0 0 14 0;
#X connect 0 0 7 0;
#X connect 1 0 9 0;
#X connect 7 0 8 0;
#X connect 8 0 14 1;
#X connect 9 0 5 0;
#X connect 9 0 12 0;
#X connect 9 4 2 0;
#X connect 11 0 8 1;
#X connect 12 0 13 0;
#X connect 12 0 14 2;
#X connect 14 0 4 0;
