#N canvas 253 60 741 593 10;
#X declare -path ../rj;
#X obj 61 87 inlet~;
#X obj 214 40 inlet;
#X obj 440 174 outlet;
#X obj 215 66 patchparamrouter freq \$2 \$1;
#X text 388 72 freq \, freqmod1 \, freqmod2 \, freqmod3;
#X obj 65 567 outlet~;
#X text 184 187 TODO mapping;
#N canvas 0 23 1106 642 levelmatch 0;
#X obj 120 47 inlet~;
#X obj 118 236 *~;
#N canvas 0 23 260 222 s 0;
#X obj 66 145 outlet~;
#X obj 66 21 inlet;
#X obj 66 66 sig~;
#X connect 1 0 2 0;
#X connect 2 0 0 0;
#X restore 294 219 pd s;
#X obj 118 336 outlet~;
#X obj 609 186 dbtorms;
#X obj 481 171 dbtorms;
#X obj 568 240 /;
#X obj 568 293 max 1;
#X obj 568 316 min 64;
#X obj 569 266 - 1;
#X obj 613 132 - 6;
#X text 641 131 dB;
#X text 603 266 avoid processing;
#X obj 480 141 env~ 256;
#X obj 613 89 inlet;
#X connect 0 0 1 0;
#X connect 0 0 13 0;
#X connect 1 0 3 0;
#X connect 2 0 1 1;
#X connect 4 0 6 0;
#X connect 5 0 6 1;
#X connect 6 0 9 0;
#X connect 7 0 8 0;
#X connect 8 0 2 0;
#X connect 9 0 7 0;
#X connect 10 0 4 0;
#X connect 13 0 5 0;
#X connect 14 0 10 0;
#X restore 65 461 pd levelmatch;
#X obj 123 161 t a a a;
#X obj 274 220 == 0;
#N canvas 0 23 260 222 s 0;
#X obj 66 145 outlet~;
#X obj 66 21 inlet;
#X obj 66 100 line~;
#X obj 66 66 pack 0 10;
#X obj 126 22 r \$0-interp;
#X connect 1 0 3 0;
#X connect 2 0 0 0;
#X connect 3 0 2 0;
#X connect 4 0 3 1;
#X restore 274 243 pd s;
#N canvas 0 23 260 222 s 0;
#X obj 66 145 outlet~;
#X obj 66 21 inlet;
#X obj 66 100 line~;
#X obj 66 66 pack 0 10;
#X obj 126 22 r \$0-interp;
#X connect 1 0 3 0;
#X connect 2 0 0 0;
#X connect 3 0 2 0;
#X connect 4 0 3 1;
#X restore 314 243 pd s;
#X obj 314 220 != 0;
#X obj 64 509 *~;
#X obj 12 305 *~;
#X obj 122 60 loadbang;
#X obj 122 81 0;
#X obj 374 93 t a a;
#X obj 371 247 route amplitude-\$1;
#X obj 384 21 declare -path ../rj;
#X obj 58 296 freqShifter~;
#X msg 62 248 Shift \$1;
#X connect 0 0 14 0;
#X connect 0 0 20 1;
#X connect 1 0 3 0;
#X connect 3 0 8 0;
#X connect 3 4 17 0;
#X connect 7 0 13 0;
#X connect 8 0 21 0;
#X connect 8 2 9 0;
#X connect 8 2 12 0;
#X connect 9 0 10 0;
#X connect 10 0 14 1;
#X connect 11 0 13 1;
#X connect 12 0 11 0;
#X connect 13 0 5 0;
#X connect 14 0 5 0;
#X connect 15 0 16 0;
#X connect 16 0 8 0;
#X connect 17 0 18 0;
#X connect 17 1 2 0;
#X connect 18 0 7 1;
#X connect 20 1 7 0;
#X connect 21 0 20 0;
