#N canvas 676 100 741 593 10;
#X obj 61 87 inlet~;
#X obj 214 40 inlet;
#X obj 375 111 outlet;
#X obj 216 72 patchparamrouter freq \$2 \$1;
#X text 388 72 freq \, freqmod1 \, freqmod2 \, freqmod3;
#X obj 151 293 phasor~;
#X obj 151 346 cos~;
#X obj 197 344 cos~;
#X obj 133 397 *~;
#X obj 65 567 outlet~;
#X obj 65 395 *~;
#N canvas 0 23 588 330 hilbert 0;
#X obj 105 92 biquad~ 0.83774 -0.06338 0.06338 -0.83774 1;
#X obj 105 66 biquad~ 1.94632 -0.94657 0.94657 -1.94632 1;
#X obj 86 149 biquad~ -0.02569 0.260502 -0.260502 0.02569 1;
#X obj 86 175 biquad~ 1.8685 -0.870686 0.870686 -1.8685 1;
#X obj 86 39 inlet~;
#X obj 105 121 outlet~;
#X obj 86 202 outlet~;
#X obj 502 39 inlet;
#X text 461 13 bang to clear;
#X text 80 16 signal in;
#X msg 502 112 clear;
#X connect 0 0 5 0;
#X connect 1 0 0 0;
#X connect 2 0 3 0;
#X connect 3 0 6 0;
#X connect 4 0 1 0;
#X connect 4 0 2 0;
#X connect 7 0 10 0;
#X connect 10 0 1 0;
#X connect 10 0 0 0;
#X connect 10 0 2 0;
#X connect 10 0 3 0;
#X restore 64 318 pd hilbert;
#X obj 197 324 +~ 0.25;
#X text 184 187 TODO mapping;
#N canvas 0 23 260 222 s 0;
#X obj 66 145 outlet~;
#X obj 66 21 inlet;
#X obj 66 100 line~;
#X obj 66 66 pack 0 10;
#X obj 126 22 r \$0-interp;
#X connect 1 0 3 0;
#X connect 2 0 0 0;
#X connect 3 0 2 0;
#X connect 4 0 3 1;
#X restore 151 259 pd s;
#N canvas 0 23 694 300 hipass 0;
#X obj 203 15 inlet~;
#X obj 291 64 inlet;
#X obj 202 119 e_beequad;
#X obj 202 139 e_beequad;
#X obj 202 160 outlet~;
#X obj 293 124 u_highpassq 5 0.7071;
#X obj 293 105 max 5;
#X obj 293 84 * -1;
#X text 365 62 Hipass-filter negative frequencies;
#X connect 0 0 2 0;
#X connect 1 0 7 0;
#X connect 2 0 3 0;
#X connect 3 0 4 0;
#X connect 5 0 2 1;
#X connect 5 0 3 1;
#X connect 6 0 5 0;
#X connect 7 0 6 0;
#X restore 59 207 pd hipass;
#N canvas 0 23 1106 642 levelmatch 0;
#X obj 296 53 inlet~;
#X obj 120 47 inlet~;
#X obj 118 236 *~;
#N canvas 0 23 260 222 s 0;
#X obj 66 145 outlet~;
#X obj 66 21 inlet;
#X obj 66 66 sig~;
#X connect 1 0 2 0;
#X connect 2 0 0 0;
#X restore 294 219 pd s;
#X obj 118 336 outlet~;
#X obj 614 102 env~;
#X obj 480 141 env~;
#X obj 609 186 dbtorms;
#X obj 481 171 dbtorms;
#X obj 568 240 /;
#X obj 568 293 max 1;
#X obj 568 316 min 64;
#X obj 195 251 slop~ 0 0.1 100 0.01 1;
#X obj 569 266 - 1;
#X obj 613 132 - 6;
#X text 641 131 dB;
#X text 603 266 avoid processing;
#X connect 0 0 5 0;
#X connect 1 0 6 0;
#X connect 1 0 2 0;
#X connect 2 0 4 0;
#X connect 3 0 12 0;
#X connect 5 0 14 0;
#X connect 6 0 8 0;
#X connect 7 0 9 0;
#X connect 8 0 9 1;
#X connect 9 0 13 0;
#X connect 10 0 11 0;
#X connect 11 0 3 0;
#X connect 12 0 2 1;
#X connect 13 0 10 0;
#X connect 14 0 7 0;
#X restore 65 461 pd levelmatch;
#X obj 123 161 t a a a;
#X obj 274 220 == 0;
#N canvas 0 23 260 222 s 0;
#X obj 66 145 outlet~;
#X obj 66 21 inlet;
#X obj 66 100 line~;
#X obj 66 66 pack 0 10;
#X obj 126 22 r \$0-interp;
#X connect 1 0 3 0;
#X connect 2 0 0 0;
#X connect 3 0 2 0;
#X connect 4 0 3 1;
#X restore 274 243 pd s;
#N canvas 0 23 260 222 s 0;
#X obj 66 145 outlet~;
#X obj 66 21 inlet;
#X obj 66 100 line~;
#X obj 66 66 pack 0 10;
#X obj 126 22 r \$0-interp;
#X connect 1 0 3 0;
#X connect 2 0 0 0;
#X connect 3 0 2 0;
#X connect 4 0 3 1;
#X restore 314 243 pd s;
#X obj 314 220 != 0;
#X obj 64 509 *~;
#X obj 12 305 *~;
#X obj 122 60 loadbang;
#X obj 122 81 0;
#X connect 0 0 15 0;
#X connect 0 0 16 1;
#X connect 0 0 23 0;
#X connect 1 0 3 0;
#X connect 3 0 17 0;
#X connect 3 4 2 0;
#X connect 5 0 6 0;
#X connect 5 0 12 0;
#X connect 6 0 10 1;
#X connect 7 0 8 1;
#X connect 8 0 16 0;
#X connect 10 0 16 0;
#X connect 11 0 10 0;
#X connect 11 1 8 0;
#X connect 12 0 7 0;
#X connect 14 0 5 0;
#X connect 15 0 11 0;
#X connect 16 0 22 0;
#X connect 17 0 15 1;
#X connect 17 1 14 0;
#X connect 17 2 18 0;
#X connect 17 2 21 0;
#X connect 18 0 19 0;
#X connect 19 0 23 1;
#X connect 20 0 22 1;
#X connect 21 0 20 0;
#X connect 22 0 9 0;
#X connect 23 0 9 0;
#X connect 24 0 25 0;
#X connect 25 0 17 0;
