#N canvas 366 243 736 393 10;
#X declare -path ../rj;
#X obj 110 123 inlet~;
#X obj 72 246 compLimiter2~;
#X obj 149 157 inlet~;
#X obj 109 292 outlet~;
#X obj 147 272 outlet~;
#X obj 343 33 u_loader limiter \$0;
#X obj 511 27 declare -path ../rj;
#X obj 300 53 inlet;
#X obj 355 136 param threshLim \$0;
#X obj 355 155 param thresh \$0;
#X obj 355 176 param strength \$0;
#X msg 488 136 -20;
#X msg 488 156 -40;
#X msg 488 176 0.5;
#X text 522 124 Compressor/Limiter;
#X obj 411 121 outlet;
#X obj 300 100 param-route limiter;
#X msg 69 195 bang;
#X obj 72 267 print;
#X obj 355 196 param makeupGain \$0;
#X msg 488 196 0;
#X obj 355 216 param knee \$0;
#X msg 488 216 3;
#X obj 355 236 param att \$0;
#X obj 355 256 param rel \$0;
#X msg 488 236 8;
#X msg 488 256 500;
#X connect 0 0 1 1;
#X connect 1 0 18 0;
#X connect 1 1 3 0;
#X connect 1 2 4 0;
#X connect 2 0 1 2;
#X connect 7 0 16 0;
#X connect 8 0 9 0;
#X connect 8 1 11 0;
#X connect 9 0 10 0;
#X connect 9 1 12 0;
#X connect 10 0 19 0;
#X connect 10 1 13 0;
#X connect 11 0 8 1;
#X connect 12 0 9 1;
#X connect 13 0 10 1;
#X connect 16 0 1 0;
#X connect 16 1 8 0;
#X connect 16 2 15 0;
#X connect 17 0 1 0;
#X connect 19 0 21 0;
#X connect 19 1 20 0;
#X connect 20 0 19 1;
#X connect 21 0 23 0;
#X connect 21 1 22 0;
#X connect 22 0 21 1;
#X connect 23 0 24 0;
#X connect 23 1 25 0;
#X connect 24 1 26 0;
#X connect 25 0 23 1;
#X connect 26 0 24 1;
