#N canvas 485 249 450 300 10;
#X obj 103 50 inlet;
#X obj 104 214 line~;
#X obj 104 235 outlet~;
#X obj 166 50 loadbang;
#X obj 166 71 \$1;
#X obj 166 92 route 0;
#X msg 166 113 2;
#X obj 104 183 pack f f;
#X connect 0 0 7 0;
#X connect 1 0 2 0;
#X connect 3 0 4 0;
#X connect 4 0 5 0;
#X connect 5 0 6 0;
#X connect 5 1 7 1;
#X connect 6 0 7 1;
#X connect 7 0 1 0;
