#N canvas 593 218 748 450 12;
#X obj 196 8 inlet;
#X obj 282 362 outlet;
#X obj 346 345 outlet;
#X obj 71 -2 inlet;
#X obj 8 439 outlet;
#X obj 50 334 spigot;
#X obj 170 291 == \$1;
#X obj 48 247 t a a;
#X obj 220 335 spigot;
#X obj 259 301 != \$1;
#N canvas 0 23 450 300 list-last 0;
#X obj 116 17 inlet;
#X obj 116 41 t a a;
#X obj 116 115 list split;
#X obj 147 144 outlet;
#X obj 146 66 list length;
#X obj 147 89 - 1;
#X connect 0 0 1 0;
#X connect 1 0 2 0;
#X connect 1 1 4 0;
#X connect 2 1 3 0;
#X connect 4 0 5 0;
#X connect 5 0 2 1;
#X restore 168 243 pd list-last;
#N canvas 0 23 793 377 output-last-menu-only 0;
#X obj 127 26 inlet;
#X text 281 39 collect menu in tree including submenus only let the
last menu leaf output current;
#X obj 150 345 s MENU;
#X obj 148 270 list prepend current;
#X obj 149 292 list trim;
#X obj 269 88 outlet;
#X obj 129 54 t b a b a;
#X obj 147 216 spigot;
#X obj 184 92 r MENU;
#X obj 185 114 route current;
#X obj 185 160 0;
#X obj 129 78 1;
#X obj 185 136 t b b;
#X obj 17 117 delay 0;
#X connect 0 0 6 0;
#X connect 3 0 4 0;
#X connect 4 0 2 0;
#X connect 6 0 11 0;
#X connect 6 1 7 0;
#X connect 6 3 5 0;
#X connect 7 0 3 0;
#X connect 8 0 9 0;
#X connect 9 0 12 0;
#X connect 10 0 7 1;
#X connect 11 0 7 1;
#X connect 12 0 10 0;
#X connect 12 1 13 0;
#X connect 13 0 11 0;
#X restore 341 255 pd output-last-menu-only;
#X obj 169 151 list prepend;
#X obj 309 14 loadbang;
#N canvas 384 92 668 416 route-if-submenu 0;
#X obj 54 265 spigot;
#X obj 169 266 spigot;
#X obj 173 198 t a a;
#X obj 61 12 inlet;
#X obj 61 166 t a a;
#X obj 54 289 outlet;
#X obj 169 290 outlet;
#X obj 176 13 inlet;
#X obj 208 238 == 0;
#X obj 175 74 route 0;
#X obj 176 41 list prepend \$2;
#X obj 175 98 0;
#X msg 221 100 1;
#X connect 0 0 5 0;
#X connect 1 0 6 0;
#X connect 2 0 0 1;
#X connect 2 1 8 0;
#X connect 3 0 4 0;
#X connect 4 0 0 0;
#X connect 4 1 1 0;
#X connect 7 0 10 0;
#X connect 8 0 1 1;
#X connect 9 0 11 0;
#X connect 9 1 12 0;
#X connect 10 0 9 0;
#X connect 11 0 2 0;
#X connect 12 0 2 0;
#X restore 195 67 pd route-if-submenu;
#X obj 191 90 t b a;
#X obj 168 187 t a a a;
#X obj 342 48 bng 15 250 50 0 empty empty empty 17 7 0 10 -262144 -1
-1;
#X obj 169 124 0;
#X obj 101 101 cnv 2 2 15 empty \$0-cnv empty 20 12 0 14 -166441 -66577
0;
#X obj 109 398 s \$0-cnv;
#X obj 169 266 t a a a;
#X obj 111 334 route 0 1;
#X msg 111 358 color 1;
#X msg 137 375 color 16;
#X obj 341 279 t a a;
#X obj 420 324 route \$1;
#X obj 202 410 outlet;
#X obj 419 348 list prepend \$1;
#N canvas 0 23 450 300 counter 0;
#X obj 83 27 inlet;
#X obj 83 51 f;
#X obj 83 75 outlet;
#X obj 173 40 + 1;
#X obj 197 11 inlet;
#X obj 173 64 % \$3;
#X connect 0 0 1 0;
#X connect 1 0 2 0;
#X connect 1 0 3 0;
#X connect 3 0 5 0;
#X connect 4 0 1 0;
#X connect 5 0 1 1;
#X restore 73 72 pd counter;
#X msg 49 369 menu off;
#X msg 69 399 menu on;
#X obj 71 22 multiroute \$2;
#X obj 72 46 route bang;
#X connect 0 0 14 0;
#X connect 3 0 32 0;
#X connect 5 0 4 0;
#X connect 6 0 5 1;
#X connect 6 0 22 0;
#X connect 7 0 5 0;
#X connect 7 1 8 0;
#X connect 8 0 1 0;
#X connect 9 0 8 1;
#X connect 10 0 21 0;
#X connect 11 0 25 0;
#X connect 12 0 16 0;
#X connect 13 0 14 1;
#X connect 14 0 15 0;
#X connect 14 1 16 0;
#X connect 15 0 18 0;
#X connect 15 1 12 1;
#X connect 16 1 10 0;
#X connect 16 2 11 0;
#X connect 17 0 14 1;
#X connect 18 0 12 0;
#X connect 21 0 6 0;
#X connect 21 1 9 0;
#X connect 22 0 23 0;
#X connect 22 0 30 0;
#X connect 22 1 24 0;
#X connect 22 1 31 0;
#X connect 23 0 20 0;
#X connect 24 0 20 0;
#X connect 25 0 2 0;
#X connect 25 1 26 0;
#X connect 26 0 28 0;
#X connect 28 0 27 0;
#X connect 29 0 18 0;
#X connect 30 0 4 0;
#X connect 31 0 4 0;
#X connect 32 0 33 0;
#X connect 32 1 7 0;
#X connect 33 0 29 0;
#X connect 33 1 29 0;
#X coords 0 -1 1 1 85 17 1 100 100;
