#N canvas 0 23 450 300 10;
#X obj 259 36 inlet;
#X obj 259 57 route menu;
#X obj 259 78 route on off;
#X obj 259 99 1;
#X obj 299 99 0;
#X obj 75 31 inlet;
#X obj 75 52 spigot;
#X obj 75 73 outlet;
#X connect 0 0 1 0;
#X connect 1 0 2 0;
#X connect 2 0 3 0;
#X connect 2 1 4 0;
#X connect 3 0 6 1;
#X connect 4 0 6 1;
#X connect 5 0 6 0;
#X connect 6 0 7 0;
