#N canvas 772 162 666 607 10;
#X obj 69 79 list fromsymbol;
#X obj 90 123 list split 1;
#X obj 108 260 list store;
#X obj 107 284 list tosymbol;
#X obj 93 149 route 47;
#X obj 215 126 list append;
#X obj 158 195 t b a, f 7;
#X msg 108 231 append \$1;
#X obj 98 195 t b b;
#X obj 97 172 t b b;
#N canvas 255 204 439 403 \$0-route 0;
#X obj 100 0 inlet;
#X obj 100 300 outlet;
#X obj 189 302 outlet;
#X restore 322 203 pd \$0-route;
#X obj 322 143 inlet;
#X obj 323 234 outlet;
#X obj 105 517 s pd-\$0-route;
#X obj 107 305 t a b;
#X obj 133 324 f;
#X obj 168 324 + 1;
#X msg 227 275 0;
#X obj 157 353 * 25;
#X obj 157 378 + 100;
#X obj 104 405 pack s f f 0;
#X msg 217 412 \$2;
#X obj 68 101 t b a b;
#X obj 41 439 f;
#X obj 68 13 loadbang;
#X obj 68 34 symbol \$1;
#X obj 122 360 + 3;
#X obj 387 332 outlet;
#X msg 106 481 obj 100 \$3 route \$1 \, connect \$4 0 \$2 0 \, connect
\$2 1 2 0;
#X msg 41 467 connect \$1 0 1 0;
#X obj 321 171 t a a;
#N canvas 683 182 450 300 keep-lists-and-anythings 0;
#X obj 125 41 inlet;
#X obj 125 62 t a a;
#X obj 125 163 outlet;
#X obj 203 83 list trim;
#X obj 203 134 spigot;
#X obj 281 83 == 0;
#X obj 125 83 spigot;
#X obj 266 22 route list;
#X msg 265 42 1;
#X msg 322 43 0;
#X obj 267 0 inlet;
#X connect 0 0 1 0;
#X connect 1 0 6 0;
#X connect 1 1 3 0;
#X connect 3 0 4 0;
#X connect 4 0 2 0;
#X connect 5 0 4 1;
#X connect 6 0 2 0;
#X connect 7 0 8 0;
#X connect 7 1 9 0;
#X connect 8 0 6 1;
#X connect 8 0 5 0;
#X connect 9 0 6 1;
#X connect 9 0 5 0;
#X connect 10 0 7 0;
#X restore 396 235 pd keep-lists-and-anythings;
#X connect 0 0 22 0;
#X connect 1 0 4 0;
#X connect 1 1 5 1;
#X connect 1 2 8 0;
#X connect 2 0 3 0;
#X connect 3 0 14 0;
#X connect 4 0 9 0;
#X connect 4 1 6 0;
#X connect 5 0 1 0;
#X connect 6 0 5 0;
#X connect 6 1 7 0;
#X connect 7 0 2 0;
#X connect 8 0 2 1;
#X connect 8 1 2 0;
#X connect 9 0 5 0;
#X connect 9 1 8 0;
#X connect 10 0 12 0;
#X connect 10 1 31 0;
#X connect 11 0 30 0;
#X connect 14 0 20 0;
#X connect 14 1 15 0;
#X connect 15 0 16 0;
#X connect 15 0 18 0;
#X connect 15 0 26 0;
#X connect 16 0 15 1;
#X connect 17 0 15 1;
#X connect 17 0 20 3;
#X connect 18 0 19 0;
#X connect 19 0 20 2;
#X connect 20 0 28 0;
#X connect 20 0 21 0;
#X connect 21 0 20 3;
#X connect 21 0 23 1;
#X connect 22 0 23 0;
#X connect 22 1 1 0;
#X connect 22 2 17 0;
#X connect 23 0 29 0;
#X connect 24 0 25 0;
#X connect 25 0 0 0;
#X connect 26 0 20 1;
#X connect 28 0 13 0;
#X connect 29 0 13 0;
#X connect 30 0 10 0;
#X connect 30 1 31 1;
#X connect 31 0 27 0;
