#N canvas 383 203 533 329 10;
#X obj 145 35 inlet;
#X obj 145 58 route _activate _deactivate;
#X obj 145 79 t b;
#X obj 224 79 t b;
#X obj 372 14 inlet;
#X obj 429 61 list prepend set;
#X obj 429 82 list trim;
#X msg 145 120 bang;
#X msg 224 160 bang;
#X obj 225 204 outlet;
#X obj 372 36 route bang;
#X msg 372 116 set bang;
#X obj 145 204 outlet;
#X connect 0 0 1 0;
#X connect 1 0 2 0;
#X connect 1 1 3 0;
#X connect 2 0 7 0;
#X connect 3 0 8 0;
#X connect 4 0 10 0;
#X connect 5 0 6 0;
#X connect 6 0 7 0;
#X connect 6 0 8 0;
#X connect 7 0 12 0;
#X connect 8 0 9 0;
#X connect 10 0 11 0;
#X connect 10 1 5 0;
#X connect 11 0 8 0;
#X connect 11 0 7 0;
