#N canvas 373 268 450 300 10;
#X obj 236 32 inlet;
#X obj 239 55 route _activate _deactivate;
#X obj 101 101 cnv 8 8 13 empty \$0-cnv empty 12 6 0 8 -228856 -66577
0;
#X obj 243 138 s \$0-cnv;
#X msg 319 102 color 13;
#X msg 242 92 color 16;
#X obj 232 201 outlet;
#X obj 114 -6 loadbang;
#X obj 114 42 symbol \$1;
#X obj 112 15 t b b;
#X obj 157 18 symbol;
#X obj 113 62 select symbol;
#X msg 153 84 label \$1;
#X connect 0 0 1 0;
#X connect 0 0 6 0;
#X connect 1 0 5 0;
#X connect 1 1 4 0;
#X connect 4 0 3 0;
#X connect 5 0 3 0;
#X connect 7 0 9 0;
#X connect 8 0 11 0;
#X connect 9 0 8 0;
#X connect 9 1 10 0;
#X connect 10 0 11 1;
#X connect 11 1 12 0;
#X connect 12 0 3 0;
#X coords 0 -1 1 1 10 15 2 100 100;
