#N canvas 310 168 1031 459 10;
#X obj 113 21 inlet;
#X obj 113 294 t a a;
#X obj 113 336 outlet;
#X obj 113 315 spigot 1;
#X obj 183 336 outlet;
#X obj 183 315 spigot;
#X obj 238 120 inlet;
#X obj 275 294 == 1;
#X obj 314 294 == 2;
#X obj 319 250 1;
#X obj 376 250 2;
#X obj 237 274 t b f f b, f 20;
#X msg 154 268 _activate;
#X msg 153 237 _deactivate;
#X msg 114 216 0;
#X obj 318 231 select \$1 \$2, f 20;
#X obj 237 233 1;
#X obj 113 123 t b b;
#X obj 237 157 spigot 1;
#X obj 167 127 t b b;
#X msg 193 149 1;
#X obj 694 287 list split;
#X obj 750 267 - 1;
#X obj 724 308 list split 1;
#X obj 309 160 t b a;
#X obj 724 392 s _MUXPATH;
#X msg 491 209 _update;
#X obj 692 184 t b b;
#X obj 748 247 f;
#X obj 301 133 t a a;
#X obj 693 206 list append \$1 \$2;
#X obj 538 319 > 0;
#X obj 537 296 t f f;
#X obj 539 345 &&;
#X obj 565 317 <= 2;
#X obj 598 189 spigot 1;
#X obj 237 210 route float symbol bang;
#N canvas 0 23 450 300 c 0;
#X obj 124 9 inlet;
#X obj 137 151 outlet;
#X obj 141 61 % 2;
#X obj 172 8 inlet;
#X obj 108 61 1;
#X obj 140 87 + 1;
#X connect 0 0 4 1;
#X connect 2 0 5 0;
#X connect 3 0 4 0;
#X connect 4 0 2 0;
#X connect 5 0 1 0;
#X restore 267 234 pd c;
#X obj 723 354 list prepend 0;
#X obj 113 42 route _deactivate _activate _mux-start-id;
#X msg 92 376 _mux-start-id \$1;
#X obj 599 162 route _path;
#X connect 0 0 39 0;
#X connect 1 0 3 0;
#X connect 1 1 5 0;
#X connect 3 0 2 0;
#X connect 5 0 4 0;
#X connect 6 0 24 0;
#X connect 7 0 3 1;
#X connect 8 0 5 1;
#X connect 9 0 11 0;
#X connect 10 0 11 0;
#X connect 11 0 12 0;
#X connect 11 1 7 0;
#X connect 11 2 8 0;
#X connect 11 2 28 1;
#X connect 11 2 32 0;
#X connect 11 3 13 0;
#X connect 12 0 1 0;
#X connect 13 0 1 0;
#X connect 14 0 5 1;
#X connect 14 0 3 1;
#X connect 14 0 18 1;
#X connect 15 0 9 0;
#X connect 15 1 10 0;
#X connect 16 0 11 0;
#X connect 16 0 37 0;
#X connect 17 0 14 0;
#X connect 17 1 13 0;
#X connect 18 0 36 0;
#X connect 19 0 16 0;
#X connect 19 1 20 0;
#X connect 20 0 18 1;
#X connect 21 1 23 0;
#X connect 22 0 21 1;
#X connect 23 0 38 0;
#X connect 24 0 26 0;
#X connect 24 1 18 0;
#X connect 26 0 38 0;
#X connect 27 0 30 0;
#X connect 27 1 28 0;
#X connect 28 0 22 0;
#X connect 29 0 1 0;
#X connect 29 1 41 0;
#X connect 30 0 21 0;
#X connect 31 0 33 0;
#X connect 32 0 31 0;
#X connect 32 1 34 0;
#X connect 33 0 35 1;
#X connect 34 0 33 1;
#X connect 35 0 27 0;
#X connect 36 0 16 0;
#X connect 36 1 15 0;
#X connect 36 2 37 1;
#X connect 37 0 16 0;
#X connect 38 0 25 0;
#X connect 39 0 17 0;
#X connect 39 1 19 0;
#X connect 39 2 40 0;
#X connect 39 2 38 1;
#X connect 39 3 29 0;
#X connect 40 0 2 0;
#X connect 40 0 4 0;
#X connect 41 0 35 0;
