#N canvas 270 225 798 355 10;
#X obj 285 85 inlet;
#X obj 288 108 route _activate _deactivate;
#X obj 358 129 0;
#X obj 226 155 *~;
#X obj 288 129 \$1;
#X obj 369 50 route 0;
#X obj 369 71 1;
#X obj 369 29 \$1;
#X obj 369 7 loadbang;
#X obj 226 83 inlet~;
#X obj 226 185 outlet~;
#X obj 288 150 liner~ 10;
#X connect 0 0 1 0;
#X connect 1 0 4 0;
#X connect 1 1 2 0;
#X connect 2 0 11 0;
#X connect 3 0 10 0;
#X connect 4 0 11 0;
#X connect 5 0 6 0;
#X connect 5 1 4 1;
#X connect 6 0 4 1;
#X connect 7 0 5 0;
#X connect 8 0 7 0;
#X connect 9 0 3 0;
#X connect 11 0 3 1;
