#N canvas 270 225 533 329 10;
#X obj 336 33 inlet;
#X obj 395 35 inlet;
#X obj 398 58 route _activate _deactivate;
#X obj 336 105 spigot;
#X obj 337 134 outlet;
#X obj 398 79 1;
#X obj 468 79 0;
#X connect 0 0 3 0;
#X connect 1 0 2 0;
#X connect 2 0 5 0;
#X connect 2 1 6 0;
#X connect 3 0 4 0;
#X connect 5 0 3 1;
#X connect 6 0 3 1;
