#N canvas 369 31 838 546 10;
#X obj 210 254 outlet;
#X obj 190 18 r _MUXPATH;
#X obj 190 40 list trim;
#X obj 191 62 route \$1;
#X obj 234 87;
#X obj 435 226 list;
#X obj 190 156 t b b b;
#X msg 208 179 _path;
#X obj 303 256 list;
#X obj 191 133 route _update;
#X obj 341 225 list prepend;
#X obj 170 421 outlet;
#X obj 303 382 list trim;
#X obj 303 276 t l l b;
#X obj 323 303 list;
#X obj 322 324 route bang;
#X obj 321 348 list append 0;
#X obj 227 334 list append 1;
#X obj 170 311 route bang;
#X connect 1 0 2 0;
#X connect 2 0 3 0;
#X connect 3 0 9 0;
#X connect 5 0 10 1;
#X connect 6 0 8 0;
#X connect 6 1 7 0;
#X connect 6 2 5 0;
#X connect 6 2 8 1;
#X connect 7 0 0 0;
#X connect 8 0 13 0;
#X connect 9 0 6 0;
#X connect 9 1 10 0;
#X connect 10 0 5 0;
#X connect 10 0 8 1;
#X connect 12 0 11 0;
#X connect 13 0 18 0;
#X connect 13 1 14 1;
#X connect 13 2 14 0;
#X connect 14 0 15 0;
#X connect 15 1 16 0;
#X connect 16 0 12 0;
#X connect 17 0 12 0;
#X connect 18 0 11 0;
#X connect 18 1 17 0;
