#N canvas 269 325 937 526 10;
#X obj 113 -29 inlet;
#X obj 113 346 outlet;
#X obj 113 325 spigot 1;
#X obj 183 346 outlet;
#X obj 183 325 spigot;
#X obj 308 121 inlet;
#X obj 158 300 == 1;
#X obj 215 300 == 2;
#X obj 319 230 1;
#X obj 358 230 2;
#X msg 154 248 _activate;
#X msg 154 227 _deactivate;
#X msg 114 196 0;
#X obj 318 210 select \$1 \$2 \$3, f 20;
#X obj 398 230 3;
#X obj 243 346 outlet;
#X obj 243 325 spigot;
#X obj 113 304 t a a a;
#X obj 275 300 == 3;
#X obj 237 254 t b f b, f 20;
#X obj 237 213 1;
#X obj 113 113 t b b;
#X obj 237 166 spigot 1;
#X obj 173 113 t b b;
#X msg 201 135 1;
#X obj 694 267 list split;
#X obj 750 247 - 1;
#X obj 724 288 list split 1;
#X obj 309 140 t b a;
#X obj 723 397 s _MUXPATH;
#X msg 591 241 _update;
#X obj 692 164 t b b;
#X obj 748 227 f;
#X obj 310 100 t a a;
#X obj 693 186 list append \$1 \$2 \$3;
#X obj 383 294 > 0;
#X obj 382 271 t f f;
#X obj 384 320 &&;
#X obj 410 292 <= 3;
#X obj 499 167 spigot 1;
#X obj 237 190 route float symbol bang;
#N canvas 0 23 450 300 c 0;
#X obj 124 9 inlet;
#X obj 137 151 outlet;
#X obj 172 8 inlet;
#X obj 108 61 1;
#X obj 140 87 + 1;
#X obj 141 61 % 3;
#X connect 0 0 3 1;
#X connect 2 0 3 0;
#X connect 3 0 5 0;
#X connect 4 0 1 0;
#X connect 5 0 4 0;
#X restore 267 214 pd c;
#X obj 723 334 list prepend 0;
#X obj 113 -8 route _deactivate _activate _mux-start-id;
#X msg 48 378 _mux-start-id \$1;
#X obj 380 135 route _path;
#X connect 0 0 43 0;
#X connect 2 0 1 0;
#X connect 4 0 3 0;
#X connect 5 0 28 0;
#X connect 6 0 2 1;
#X connect 7 0 4 1;
#X connect 8 0 19 0;
#X connect 9 0 19 0;
#X connect 10 0 17 0;
#X connect 11 0 17 0;
#X connect 12 0 4 1;
#X connect 12 0 2 1;
#X connect 12 0 16 1;
#X connect 12 0 22 1;
#X connect 13 0 8 0;
#X connect 13 1 9 0;
#X connect 13 2 14 0;
#X connect 14 0 19 0;
#X connect 16 0 15 0;
#X connect 17 0 2 0;
#X connect 17 1 4 0;
#X connect 17 2 16 0;
#X connect 18 0 16 1;
#X connect 19 0 10 0;
#X connect 19 1 6 0;
#X connect 19 1 7 0;
#X connect 19 1 18 0;
#X connect 19 1 32 1;
#X connect 19 1 36 0;
#X connect 19 2 11 0;
#X connect 20 0 19 0;
#X connect 20 0 41 0;
#X connect 21 0 12 0;
#X connect 21 1 11 0;
#X connect 22 0 40 0;
#X connect 23 0 20 0;
#X connect 23 1 24 0;
#X connect 24 0 22 1;
#X connect 25 1 27 0;
#X connect 26 0 25 1;
#X connect 27 0 42 0;
#X connect 28 0 30 0;
#X connect 28 1 22 0;
#X connect 30 0 42 0;
#X connect 31 0 34 0;
#X connect 31 1 32 0;
#X connect 32 0 26 0;
#X connect 33 0 17 0;
#X connect 33 1 45 0;
#X connect 34 0 25 0;
#X connect 35 0 37 0;
#X connect 36 0 35 0;
#X connect 36 1 38 0;
#X connect 37 0 39 1;
#X connect 38 0 37 1;
#X connect 39 0 31 0;
#X connect 40 0 20 0;
#X connect 40 1 13 0;
#X connect 40 2 41 1;
#X connect 41 0 20 0;
#X connect 42 0 29 0;
#X connect 43 0 21 0;
#X connect 43 1 23 0;
#X connect 43 2 44 0;
#X connect 43 2 42 1;
#X connect 43 3 33 0;
#X connect 44 0 1 0;
#X connect 44 0 3 0;
#X connect 44 0 15 0;
#X connect 45 0 39 0;
