#N canvas 0 23 450 300 10;
#X obj 134 126 mux-trigger;
#X obj 134 80 mux-2 one two;
#X floatatom 196 105 5 0 0 0 - - -;
#X msg 208 56 1;
#X msg 240 55 0;
#X obj 91 159 bng 15 250 50 0 empty empty empty 17 7 0 10 -262144 -1
-1;
#X floatatom 135 149 5 0 0 0 - - -;
#X obj 191 159 bng 15 250 50 0 empty empty empty 17 7 0 10 -262144
-1 -1;
#X floatatom 207 148 5 0 0 0 - - -;
#X connect 0 0 5 0;
#X connect 0 0 6 0;
#X connect 0 1 7 0;
#X connect 0 1 8 0;
#X connect 1 0 0 0;
#X connect 2 0 0 1;
#X connect 3 0 1 1;
#X connect 4 0 1 1;
