#N canvas 369 31 838 546 10;
#X obj 210 254 outlet;
#X obj 190 18 r _MUXPATH;
#X obj 190 40 list trim;
#X obj 234 87;
#X obj 435 226 list;
#X obj 190 156 t b b b;
#X msg 208 209 _path;
#X obj 303 256 list;
#X obj 191 133 route _update;
#X obj 341 225 list prepend;
#X obj 170 421 outlet;
#X obj 303 382 list trim;
#X obj 303 276 t l l b;
#X obj 323 303 list;
#X obj 322 324 route bang;
#X obj 321 348 list append 0;
#X obj 227 334 list append 1;
#X obj 170 311 route bang;
#X obj 62 45 inlet;
#X obj 62 87 \$0;
#X obj 3 43 loadbang;
#X msg 68 160 _mux-start-id \$1;
#X obj 62 66 route init;
#X obj 191 62 route \$0;
#X connect 1 0 2 0;
#X connect 2 0 23 0;
#X connect 4 0 9 1;
#X connect 5 0 7 0;
#X connect 5 1 6 0;
#X connect 5 2 4 0;
#X connect 5 2 7 1;
#X connect 6 0 0 0;
#X connect 7 0 12 0;
#X connect 8 0 5 0;
#X connect 8 1 9 0;
#X connect 9 0 4 0;
#X connect 9 0 7 1;
#X connect 11 0 10 0;
#X connect 12 0 17 0;
#X connect 12 1 13 1;
#X connect 12 2 13 0;
#X connect 13 0 14 0;
#X connect 14 1 15 0;
#X connect 15 0 11 0;
#X connect 16 0 11 0;
#X connect 17 0 10 0;
#X connect 17 1 16 0;
#X connect 18 0 22 0;
#X connect 19 0 21 0;
#X connect 20 0 19 0;
#X connect 21 0 0 0;
#X connect 22 0 19 0;
#X connect 23 0 8 0;
