#N canvas 201 126 909 597 10;
#X declare -path abs;
#X obj 191 34 declare -path abs;
#X obj 55 16 bng 15 250 50 0 empty empty empty 17 7 0 10 -262144 -1
-1;
#X msg 55 58 msg;
#X obj 101 158 print;
#X obj 55 37 metro 1000;
#X obj 114 141 bng 15 250 50 0 empty empty empty 17 7 0 10 -262144
-1 -1;
#X obj 155 104 mux-2 setup play;
#X obj 248 65 hradio 15 1 0 8 empty empty empty 0 -8 0 10 -262144 -1
-1 2;
#X msg 272 87 symbol setup;
#X msg 282 107 symbol play;
#X obj 233 129 bng 15 250 50 0 empty empty empty 17 7 0 10 -262144
-1 -1;
#X obj 247 161 mux-2 main vol-mod;
#X obj 350 139 hradio 15 1 0 8 empty empty empty 0 -8 0 10 -262144
-1 -1 2;
#X floatatom 246 212 5 0 0 0 - - -;
#X floatatom 421 212 5 0 0 0 - - -;
#X obj 421 187 route msg;
#X obj 357 251 mux-2 main vol-mod;
#X floatatom 357 319 5 0 0 0 - - -;
#X floatatom 466 322 5 0 0 0 - - -;
#X obj 471 229 hradio 15 1 0 8 empty empty empty 0 -8 0 10 -262144
-1 -1 1;
#X obj 214 266 metro 200;
#X obj 213 286 random 100;
#X obj 216 248 bng 15 250 50 0 empty empty empty 17 7 0 10 -262144
-1 -1;
#X obj 357 294 route float;
#X obj 466 297 route float;
#X obj 246 187 route float;
#X obj 134 190 metro 200;
#X obj 133 210 random 100;
#X obj 136 172 bng 15 250 50 0 empty empty empty 17 7 0 10 -262144
-1 -1;
#X obj 274 347 mux-spigot;
#X floatatom 274 377 5 0 0 0 - - -;
#X obj 306 414 mux-vis;
#X obj 409 366 hradio 15 1 0 8 empty empty empty 0 -8 0 10 -262144
-1 -1 2;
#X obj 408 415 mux-vis;
#X obj 428 415 mux-vis;
#X obj 448 415 mux-vis;
#X msg 416 339 symbol c;
#X obj 357 389 mux-4 a b c;
#X connect 1 0 4 0;
#X connect 2 0 6 0;
#X connect 4 0 2 0;
#X connect 6 0 3 0;
#X connect 6 0 5 0;
#X connect 6 1 11 0;
#X connect 6 1 10 0;
#X connect 7 0 6 1;
#X connect 8 0 6 1;
#X connect 9 0 6 1;
#X connect 11 0 25 0;
#X connect 11 1 15 0;
#X connect 11 1 16 0;
#X connect 12 0 11 1;
#X connect 15 1 14 0;
#X connect 16 0 29 1;
#X connect 16 0 23 0;
#X connect 16 1 24 0;
#X connect 19 0 16 1;
#X connect 20 0 21 0;
#X connect 21 0 29 0;
#X connect 22 0 20 0;
#X connect 23 0 17 0;
#X connect 24 0 18 0;
#X connect 25 0 13 0;
#X connect 26 0 27 0;
#X connect 27 0 11 0;
#X connect 28 0 26 0;
#X connect 29 0 30 0;
#X connect 32 0 37 1;
#X connect 36 0 37 1;
#X connect 37 0 31 0;
#X connect 37 1 33 0;
#X connect 37 2 34 0;
#X connect 37 3 35 0;
