#N canvas 141 374 884 504 10;
#X obj 113 -19 inlet;
#X obj 113 296 outlet;
#X obj 113 275 spigot 1;
#X obj 183 296 outlet;
#X obj 183 275 spigot;
#X obj 237 86 inlet;
#X obj 158 250 == 1;
#X obj 215 250 == 2;
#X obj 319 180 1;
#X obj 346 180 2;
#X msg 154 198 _activate;
#X msg 153 141 _deactivate;
#X msg 115 140 0;
#X obj 376 181 3;
#X obj 243 296 outlet;
#X obj 243 275 spigot;
#X obj 275 250 == 3;
#X obj 237 204 t b f b, f 20;
#X obj 303 296 outlet;
#X obj 303 275 spigot;
#X obj 335 250 == 4;
#X obj 406 181 4;
#X obj 317 160 select \$1 \$2 \$3 \$4 \$5;
#X obj 363 296 outlet;
#X obj 363 275 spigot;
#X obj 395 250 == 5;
#X obj 113 224 t a a a a a;
#X obj 237 163 1;
#X obj 114 77 t b b;
#X obj 175 73 t b b;
#X msg 201 97 1;
#X obj 694 217 list split;
#X obj 750 197 - 1;
#X obj 724 238 list split 1;
#X obj 309 96 t b a;
#X obj 724 322 s _MUXPATH;
#X msg 592 186 _update;
#X obj 692 114 t b b;
#X obj 748 177 f;
#X obj 690 85 bng 15 250 50 0 empty empty empty 17 7 0 10 -262144 -1
-1;
#X obj 287 73 t a a;
#X obj 693 136 list append \$1 \$2 \$3 \$4 \$5;
#X obj 538 249 > 0;
#X obj 537 226 t f f;
#X obj 539 275 &&;
#X obj 568 106 spigot 1;
#X obj 565 247 <= 5;
#X obj 237 140 route float symbol bang;
#N canvas 0 23 450 300 c 0;
#X obj 124 9 inlet;
#X obj 137 151 outlet;
#X obj 172 8 inlet;
#X obj 108 61 1;
#X obj 140 87 + 1;
#X obj 141 61 % 5;
#X connect 0 0 3 1;
#X connect 2 0 3 0;
#X connect 3 0 5 0;
#X connect 4 0 1 0;
#X connect 5 0 4 0;
#X restore 267 166 pd c;
#X obj 723 284 list prepend 0;
#X obj 380 85 route _path;
#X obj 113 2 route _deactivate _activate _mux-start-id;
#X msg 132 416 _mux-start-id \$1;
#X connect 0 0 51 0;
#X connect 2 0 1 0;
#X connect 4 0 3 0;
#X connect 5 0 34 0;
#X connect 6 0 2 1;
#X connect 7 0 4 1;
#X connect 8 0 17 0;
#X connect 9 0 17 0;
#X connect 10 0 26 0;
#X connect 11 0 26 0;
#X connect 12 0 2 1;
#X connect 12 0 4 1;
#X connect 12 0 15 1;
#X connect 12 0 19 1;
#X connect 12 0 24 1;
#X connect 13 0 17 0;
#X connect 15 0 14 0;
#X connect 16 0 15 1;
#X connect 17 0 10 0;
#X connect 17 1 6 0;
#X connect 17 1 7 0;
#X connect 17 1 16 0;
#X connect 17 1 20 0;
#X connect 17 1 25 0;
#X connect 17 1 38 1;
#X connect 17 1 43 0;
#X connect 17 2 11 0;
#X connect 19 0 18 0;
#X connect 20 0 19 1;
#X connect 21 0 17 0;
#X connect 22 0 8 0;
#X connect 22 1 9 0;
#X connect 22 2 13 0;
#X connect 22 3 21 0;
#X connect 24 0 23 0;
#X connect 25 0 24 1;
#X connect 26 0 2 0;
#X connect 26 1 4 0;
#X connect 26 2 15 0;
#X connect 26 3 19 0;
#X connect 26 4 24 0;
#X connect 27 0 17 0;
#X connect 27 0 48 0;
#X connect 28 0 12 0;
#X connect 28 1 11 0;
#X connect 29 0 27 0;
#X connect 29 1 30 0;
#X connect 31 1 33 0;
#X connect 32 0 31 1;
#X connect 33 0 49 0;
#X connect 34 0 36 0;
#X connect 34 1 47 0;
#X connect 36 0 49 0;
#X connect 37 0 41 0;
#X connect 37 1 38 0;
#X connect 38 0 32 0;
#X connect 39 0 37 0;
#X connect 40 0 26 0;
#X connect 40 1 50 0;
#X connect 41 0 31 0;
#X connect 42 0 44 0;
#X connect 43 0 42 0;
#X connect 43 1 46 0;
#X connect 44 0 45 1;
#X connect 45 0 37 0;
#X connect 46 0 44 1;
#X connect 47 0 27 0;
#X connect 47 1 22 0;
#X connect 47 2 48 1;
#X connect 48 0 27 0;
#X connect 49 0 35 0;
#X connect 50 0 45 0;
#X connect 51 0 28 0;
#X connect 51 1 29 0;
#X connect 51 2 52 0;
#X connect 51 2 49 1;
#X connect 51 3 40 0;
#X connect 52 0 1 0;
#X connect 52 0 3 0;
#X connect 52 0 14 0;
#X connect 52 0 18 0;
#X connect 52 0 23 0;
