#N canvas 369 31 838 546 10;
#X obj 487 82 hradio 15 1 0 3 empty empty empty 0 -8 0 10 -262144 -1
-1 1;
#X obj 258 114 route float;
#X obj 258 134 tgl 15 0 empty empty empty 17 7 0 10 -262144 -1 -1 0
1;
#X obj 295 134 route float;
#X obj 295 154 tgl 15 0 empty empty empty 17 7 0 10 -262144 -1 -1 0
1;
#X obj 321 362 route float;
#X obj 321 383 tgl 15 0 empty empty empty 17 7 0 10 -262144 -1 -1 0
1;
#X obj 361 382 route float;
#X obj 361 403 tgl 15 0 empty empty empty 17 7 0 10 -262144 -1 -1 0
1;
#X obj 391 402 route float;
#X obj 391 423 tgl 15 0 empty empty empty 17 7 0 10 -262144 -1 -1 1
1;
#X obj 358 262 route float;
#X obj 358 283 tgl 15 0 empty empty empty 17 7 0 10 -262144 -1 -1 0
1;
#X obj 398 282 route float;
#X obj 398 303 tgl 15 0 empty empty empty 17 7 0 10 -262144 -1 -1 0
1;
#X obj 428 302 route float;
#X obj 428 323 tgl 15 0 empty empty empty 17 7 0 10 -262144 -1 -1 0
1;
#X obj 622 116 hradio 15 1 0 4 empty empty empty 0 -8 0 10 -262144
-1 -1 1;
#X obj 358 241 route sub1 sub2 sub3;
#X obj 321 341 route sub1 sub2 sub3;
#X obj 258 94 route one two;
#X text 36 14 Collect mux tree and output messages on change;
#X msg 154 115 one sub2 0;
#X msg 37 130 one sub3 1;
#N canvas 0 23 450 300 show-two-messages 0;
#X obj 32 90 list prepend set;
#X obj 32 111 list trim;
#X obj 13 48 t a b a;
#X obj 32 69 list;
#X obj 142 90 list prepend set;
#X obj 142 111 list trim;
#X obj 142 69 list;
#X obj 11 16 inlet;
#X obj 202 135 outlet;
#X obj 33 144 outlet;
#X connect 0 0 1 0;
#X connect 1 0 8 0;
#X connect 2 0 3 1;
#X connect 2 1 3 0;
#X connect 2 2 6 0;
#X connect 3 0 0 0;
#X connect 4 0 5 0;
#X connect 5 0 9 0;
#X connect 6 0 4 0;
#X connect 7 0 2 0;
#X restore 37 94 pd show-two-messages;
#X obj 546 157 bng 15 250 50 0 empty empty empty 17 7 0 10 -262144
-1 -1;
#X msg 639 81 symbol sub2;
#X obj 258 70 mux-start, f 26;
#X obj 412 113 mux-2 one two;
#X obj 505 133 mux-3 sub1 sub2 sub3;
#X obj 412 176 mux-3 sub1 sub2 sub3;
#X msg 258 49 init;
#X text 290 48 init tree (needed when adding new mux objects);
#X obj 89 238 r _MUXPATH;
#X msg 92 283 1892 _update \; 1892 one \; 1892 sub3 \;;
#N canvas 0 23 450 300 show-messages-on-tree-update 0;
#X obj 37 37 inlet;
#X obj 56 78 list prepend add;
#X obj 56 99 list trim;
#X obj 57 165 outlet;
#X obj 199 103 spigot 1;
#X obj 37 58 t b a b b;
#X msg 243 82 0;
#X msg 123 131 1;
#X obj 31 126 delay 1;
#X msg 199 125 set;
#X connect 0 0 5 0;
#X connect 1 0 2 0;
#X connect 2 0 3 0;
#X connect 4 0 9 0;
#X connect 5 0 8 0;
#X connect 5 1 1 0;
#X connect 5 2 6 0;
#X connect 5 3 4 0;
#X connect 6 0 4 1;
#X connect 7 0 4 1;
#X connect 8 0 7 0;
#X connect 9 0 3 0;
#X restore 89 260 pd show-messages-on-tree-update;
#X connect 0 0 28 1;
#X connect 1 0 2 0;
#X connect 1 1 19 0;
#X connect 3 0 4 0;
#X connect 3 1 18 0;
#X connect 5 0 6 0;
#X connect 7 0 8 0;
#X connect 9 0 10 0;
#X connect 11 0 12 0;
#X connect 13 0 14 0;
#X connect 15 0 16 0;
#X connect 17 0 29 1;
#X connect 18 0 11 0;
#X connect 18 1 13 0;
#X connect 18 2 15 0;
#X connect 19 0 5 0;
#X connect 19 1 7 0;
#X connect 19 2 9 0;
#X connect 20 0 1 0;
#X connect 20 1 3 0;
#X connect 24 0 23 0;
#X connect 24 1 22 0;
#X connect 25 0 30 1;
#X connect 26 0 29 1;
#X connect 27 0 20 0;
#X connect 27 0 24 0;
#X connect 27 1 28 0;
#X connect 28 0 30 0;
#X connect 28 1 29 0;
#X connect 31 0 27 0;
#X connect 33 0 35 0;
#X connect 35 0 34 0;
