#N canvas 270 225 1016 449 10;
#X obj 309 174 mux-spigot, f 11;
#X obj 182 85 mux-2 one two;
#X obj 257 43 tgl 15 0 empty empty empty 17 7 0 10 -262144 -1 -1 0
1;
#X obj 257 64 + 1;
#X obj 182 243 mux-3 sub1 sub2 sub3;
#X obj 182 264 mux-vis sub1;
#X obj 241 264 mux-vis sub2;
#X obj 309 195 0;
#X obj 308 123 bng 15 250 50 0 empty empty empty 17 7 0 10 -262144
-1 -1;
#X obj 299 264 mux-vis sub3;
#X floatatom 338 240 5 0 0 0 - - -;
#X text 390 174 avoid incrementing counter when not active;
#X text 278 12 A spigot for mux submenus;
#X obj 343 195 + 1;
#X obj 370 195 % 2;
#X obj 343 215 + 1;
#X text 329 121 Change between 2 and 3;
#X msg 299 99 1;
#X text 329 99 Select sub1;
#X obj 521 296 mux-2 one two;
#X obj 596 254 tgl 15 0 empty empty empty 17 7 0 10 -262144 -1 -1 1
1;
#X obj 521 318 mux-3 sub1 sub2 sub3;
#X obj 521 339 mux-vis sub1;
#X obj 580 339 mux-vis sub2;
#X obj 638 339 mux-vis sub3;
#X obj 636 299 bng 15 250 50 0 empty empty empty 17 7 0 10 -262144
-1 -1;
#X text 520 207 The mux objects is already filtering bang/float/symbol
messages if deactivated \, so this is also possible \, if all you need
is a simple counter;
#X connect 0 0 7 0;
#X connect 1 0 0 1;
#X connect 1 0 4 0;
#X connect 2 0 3 0;
#X connect 3 0 1 1;
#X connect 4 0 5 0;
#X connect 4 1 6 0;
#X connect 4 2 9 0;
#X connect 7 0 13 0;
#X connect 8 0 0 0;
#X connect 13 0 14 0;
#X connect 13 0 15 0;
#X connect 14 0 7 1;
#X connect 15 0 4 1;
#X connect 17 0 4 1;
#X connect 19 0 21 0;
#X connect 20 0 19 1;
#X connect 21 0 22 0;
#X connect 21 1 23 0;
#X connect 21 2 24 0;
#X connect 25 0 21 1;
