#N canvas 329 69 647 447 10;
#X obj 139 28 inlet~;
#X obj 137 152 outlet~;
#X obj 292 150 list trim;
#X obj 291 175 outlet;
#X text 448 86 TODO settings;
#X obj 293 127 list prepend onsets-\$1;
#X obj 295 85 bonk~ -npts 128 -hop 64;
#X connect 0 0 1 0;
#X connect 0 0 6 0;
#X connect 2 0 3 0;
#X connect 5 0 2 0;
#X connect 6 1 5 0;
