#N canvas 433 308 450 300 10;
#X declare -path ../rj;
#X obj 98 238 outlet;
#X obj 97 218 list trim;
#X obj 98 36 inlet;
#X obj 98 70 t a a;
#X obj 125 100 route bang;
#X obj 310 14 declare -path ../rj;
#X obj 98 134 route \$1;
#X obj 97 197 list prepend \$1;
#X obj 98 172 u_sssad \$1 \$2;
#X connect 1 0 0 0;
#X connect 2 0 3 0;
#X connect 3 0 6 0;
#X connect 3 1 4 0;
#X connect 4 0 8 0;
#X connect 6 0 8 1;
#X connect 6 1 0 0;
#X connect 7 0 1 0;
#X connect 8 0 7 0;
