#N canvas 433 308 450 300 10;
#X declare -path ../rj;
#X obj 98 238 outlet;
#X obj 97 218 list trim;
#X obj 98 36 inlet;
#X obj 98 70 t a a;
#X obj 310 14 declare -path ../rj;
#X obj 98 134 route \$1;
#X obj 97 197 list prepend \$1;
#X obj 98 172 u_sssad \$1 \$2;
#X obj 246 73 loadbang;
#X obj 245 169 outlet;
#X obj 271 96 inlet;
#X obj 125 100 route bang help;
#X obj 208 289 list trim;
#X obj 208 312 print param;
#X obj 208 265 list append \$1;
#X connect 1 0 0 0;
#X connect 2 0 3 0;
#X connect 3 0 5 0;
#X connect 3 1 11 0;
#X connect 5 0 7 1;
#X connect 5 1 0 0;
#X connect 6 0 1 0;
#X connect 7 0 6 0;
#X connect 8 0 9 0;
#X connect 10 0 7 1;
#X connect 11 0 7 0;
#X connect 11 1 14 0;
#X connect 12 0 13 0;
#X connect 14 0 12 0;
