#N canvas 433 308 450 300 10;
#X declare -path ../rj;
#X obj 98 238 outlet;
#X obj 97 218 list trim;
#X obj 98 36 inlet;
#X obj 98 70 t a a;
#X obj 125 100 route bang;
#X obj 310 14 declare -path ../rj;
#X obj 98 134 route \$1;
#X obj 97 197 list prepend \$1;
#X obj 232 94 pdcontrol;
#X msg 232 72 args;
#X obj 232 119 list split 2;
#X obj 231 51 loadbang;
#X obj 98 172 u_sssad \$1 \$2;
#X connect 1 0 0 0;
#X connect 2 0 3 0;
#X connect 3 0 6 0;
#X connect 3 1 4 0;
#X connect 4 0 12 0;
#X connect 6 0 12 1;
#X connect 6 1 0 0;
#X connect 7 0 1 0;
#X connect 8 0 10 0;
#X connect 9 0 8 0;
#X connect 10 1 12 1;
#X connect 11 0 9 0;
#X connect 12 0 7 0;
