#N canvas 0 23 840 202 10;
#X declare -path ../rj;
#X obj 109 17 inlet;
#X obj 384 21 declare -path ../rj;
#X obj 109 62 t a a;
#X obj 107 131 outlet;
#X obj 269 62 t a a;
#X obj 267 131 outlet;
#X obj 419 62 t a a;
#X obj 417 131 outlet;
#X obj 579 62 t a a;
#X obj 577 131 outlet;
#X obj 731 128 outlet;
#X obj 128 89 u_sssad \$1-\$2 \$3;
#X obj 109 40 route \$1-\$2 \$1mod1-\$2 \$1mod2-\$2 \$1mod3-\$2, f
104;
#X obj 288 89 u_sssad \$1mod1-\$2 \$3;
#X obj 438 90 u_sssad \$1mod2-\$2 \$3;
#X obj 598 90 u_sssad \$1mod3-\$2 \$3;
#X connect 0 0 12 0;
#X connect 2 0 3 0;
#X connect 2 1 11 1;
#X connect 4 0 5 0;
#X connect 4 1 13 1;
#X connect 6 0 7 0;
#X connect 6 1 14 1;
#X connect 8 0 9 0;
#X connect 8 1 15 1;
#X connect 11 0 3 0;
#X connect 12 0 2 0;
#X connect 12 1 4 0;
#X connect 12 2 6 0;
#X connect 12 3 8 0;
#X connect 12 4 10 0;
#X connect 13 0 5 0;
#X connect 14 0 7 0;
#X connect 15 0 9 0;
