#N canvas 677 95 588 485 10;
#X obj 321 283 outlet~;
#X obj 15 45 inlet;
#X obj 309 20 inlet~;
#X obj 19 296 switch~;
#X obj 399 281 outlet~;
#X obj 21 186 del 2;
#X obj 114 241 line~;
#X obj 22 152 t b b;
#X msg 21 215 0;
#X obj 319 228 *~;
#X obj 397 226 *~;
#X msg 65 214 1;
#X msg 113 184 0 2;
#X msg 148 182 1 2, f 4;
#X obj 329 50 inlet~;
#X obj 349 80 inlet~;
#X obj 369 110 inlet~;
#X obj 281 170 \$2-\$1, f 11;
#X obj 74 149 t b b b;
#X msg 136 148 stop;
#X obj 209 283 outlet;
#X obj 21 82 route off on vis;
#X floatatom 123 282 5 0 0 0 - - -;
#X obj 83 130 s pd-\$2-\$1.pd;
#X msg 83 105 vis \$1;
#X msg 187 173 on;
#X msg 187 193 off;
#X connect 1 0 21 0;
#X connect 2 0 17 1;
#X connect 5 0 8 0;
#X connect 6 0 9 1;
#X connect 6 0 10 1;
#X connect 7 0 12 0;
#X connect 7 0 26 0;
#X connect 7 1 5 0;
#X connect 8 0 3 0;
#X connect 9 0 0 0;
#X connect 10 0 4 0;
#X connect 11 0 3 0;
#X connect 12 0 6 0;
#X connect 13 0 6 0;
#X connect 14 0 17 2;
#X connect 15 0 17 3;
#X connect 16 0 17 4;
#X connect 17 0 20 0;
#X connect 17 1 9 0;
#X connect 17 2 10 0;
#X connect 18 0 13 0;
#X connect 18 0 25 0;
#X connect 18 1 11 0;
#X connect 18 2 19 0;
#X connect 19 0 5 0;
#X connect 21 0 7 0;
#X connect 21 1 18 0;
#X connect 21 2 24 0;
#X connect 21 3 17 0;
#X connect 24 0 23 0;
#X connect 25 0 17 0;
#X connect 26 0 17 0;
