#N canvas 433 23 1094 435 10;
#X obj 109 17 inlet;
#X obj 23 241 t a a;
#X obj 21 310 outlet;
#X obj 173 242 t a a;
#X obj 171 311 outlet;
#X obj 323 252 t a a;
#X obj 321 321 outlet;
#X obj 483 262 t a a;
#X obj 481 331 outlet;
#X obj 731 178 outlet;
#X obj 42 268 u_sssad \$1-\$2 \$3;
#X obj 192 269 u_sssad \$1mod1-\$2 \$3;
#X obj 342 280 u_sssad \$1mod2-\$2 \$3;
#X obj 502 290 u_sssad \$1mod3-\$2 \$3;
#X obj 109 90 route \$1-\$2 \$1mod1-\$2 \$1mod2-\$2 \$1mod3-\$2, f
104;
#X obj 730 114 t a a;
#X obj 757 136 route help;
#X obj 794 160 list append \$1-\$2 \$1mod1-\$2 \$1mod2-\$2 \$1mod3-\$2
;
#X obj 793 216 print dispatcher;
#X obj 794 180 list trim;
#X obj 24 100 r bela_trill;
#X obj 109 37 route mux;
#X floatatom 91 330 5 0 0 0 - - -;
#X obj 23 215 trill-mux-spigot \$2;
#X obj 173 215 trill-mux-spigot \$2;
#X obj 323 215 trill-mux-spigot \$2;
#X obj 483 215 trill-mux-spigot \$2;
#X text 611 214 route trill data;
#X connect 0 0 21 0;
#X connect 1 0 2 0;
#X connect 1 1 10 1;
#X connect 3 0 4 0;
#X connect 3 1 11 1;
#X connect 5 0 6 0;
#X connect 5 1 12 1;
#X connect 7 0 8 0;
#X connect 7 1 13 1;
#X connect 10 0 2 0;
#X connect 11 0 4 0;
#X connect 12 0 6 0;
#X connect 13 0 8 0;
#X connect 14 0 23 1;
#X connect 14 1 24 1;
#X connect 14 2 25 1;
#X connect 14 3 26 1;
#X connect 14 4 15 0;
#X connect 15 0 9 0;
#X connect 15 1 16 0;
#X connect 16 0 17 0;
#X connect 17 0 19 0;
#X connect 19 0 18 0;
#X connect 20 0 23 0;
#X connect 20 0 24 0;
#X connect 20 0 25 0;
#X connect 20 0 26 0;
#X connect 21 0 14 0;
#X connect 23 0 1 0;
#X connect 23 0 22 0;
#X connect 24 0 3 0;
#X connect 25 0 5 0;
#X connect 26 0 7 0;
