#N canvas 346 23 1094 435 10;
#X obj 109 -3 inlet;
#X obj 23 241 t a a;
#X obj 21 310 outlet;
#X obj 173 242 t a a;
#X obj 171 311 outlet;
#X obj 323 252 t a a;
#X obj 321 321 outlet;
#X obj 483 262 t a a;
#X obj 481 331 outlet;
#X obj 727 154 outlet;
#X obj 42 268 u_sssad \$1-\$2 \$3;
#X obj 726 39 t a a;
#X obj 790 116 route help;
#X obj 790 136 list append \$1-\$2 \$1mod1-\$2 \$1mod2-\$2 \$1mod3-\$2
;
#X obj 789 174 print dispatcher;
#X obj 790 156 list trim;
#X obj 24 100 r bela_trill;
#X obj 23 215 trill-spigot \$2;
#X obj 173 215 trill-spigot \$2;
#X obj 323 215 trill-spigot \$2;
#X obj 483 215 trill-spigot \$2;
#X obj 109 59 route \$1;
#X text 276 47 Generic names for 4 modulators;
#X text 12 60 Main parameter;
#X text 740 212 route trill data;
#X obj 139 99 tgl 15 0 empty empty empty 17 7 0 10 -262144 -1 -1 0
1;
#X obj 261 66 route mod1 mod2 mod3, f 57;
#X obj 192 269 u_sssad \$1-mod1-\$2 \$3;
#X obj 342 280 u_sssad \$1-mod2-\$2 \$3;
#X text 164 358 [param]-mod1-[trillIndex];
#X text 314 372 [param]-mod2-[trillIndex];
#X text 474 382 [param]-mod3-[trillIndex];
#X text 625 20 Usage: patchparamrouter [param] [trillIndex] [\$0 of
parent];
#X obj 502 290 u_sssad \$1-mod3-\$2 \$3;
#X text 152 -10 Incoming messages: main [param] [0/1] or [param] [modX]
[0/1];
#X obj 109 37 route main \$1;
#X obj 109 18 t a a;
#X text 21 350 [param]-[trillIndex];
#X connect 0 0 36 0;
#X connect 1 0 2 0;
#X connect 1 1 10 1;
#X connect 3 0 4 0;
#X connect 3 1 27 1;
#X connect 5 0 6 0;
#X connect 5 1 28 1;
#X connect 7 0 8 0;
#X connect 7 1 33 1;
#X connect 10 0 2 0;
#X connect 11 0 9 0;
#X connect 11 1 12 0;
#X connect 12 0 13 0;
#X connect 13 0 15 0;
#X connect 15 0 14 0;
#X connect 16 0 17 0;
#X connect 16 0 18 0;
#X connect 16 0 19 0;
#X connect 16 0 20 0;
#X connect 17 0 1 0;
#X connect 18 0 3 0;
#X connect 19 0 5 0;
#X connect 20 0 7 0;
#X connect 21 0 17 1;
#X connect 21 0 25 0;
#X connect 26 0 18 1;
#X connect 26 1 19 1;
#X connect 26 2 20 1;
#X connect 27 0 4 0;
#X connect 28 0 6 0;
#X connect 33 0 8 0;
#X connect 35 0 21 0;
#X connect 35 1 26 0;
#X connect 36 0 35 0;
#X connect 36 1 11 0;
