#N canvas 0 23 1094 208 10;
#X obj 109 17 inlet;
#X obj 109 62 t a a;
#X obj 107 131 outlet;
#X obj 269 62 t a a;
#X obj 267 131 outlet;
#X obj 419 62 t a a;
#X obj 417 131 outlet;
#X obj 579 62 t a a;
#X obj 577 131 outlet;
#X obj 731 128 outlet;
#X obj 128 89 u_sssad \$1-\$2 \$3;
#X obj 288 89 u_sssad \$1mod1-\$2 \$3;
#X obj 438 90 u_sssad \$1mod2-\$2 \$3;
#X obj 598 90 u_sssad \$1mod3-\$2 \$3;
#X obj 109 40 route \$1-\$2 \$1mod1-\$2 \$1mod2-\$2 \$1mod3-\$2, f
104;
#X obj 730 64 t a a;
#X obj 757 86 route help;
#X obj 794 110 list append \$1-\$2 \$1mod1-\$2 \$1mod2-\$2 \$1mod3-\$2
;
#X obj 793 166 print dispatcher;
#X obj 794 130 list trim;
#X connect 0 0 14 0;
#X connect 1 0 2 0;
#X connect 1 1 10 1;
#X connect 3 0 4 0;
#X connect 3 1 11 1;
#X connect 5 0 6 0;
#X connect 5 1 12 1;
#X connect 7 0 8 0;
#X connect 7 1 13 1;
#X connect 10 0 2 0;
#X connect 11 0 4 0;
#X connect 12 0 6 0;
#X connect 13 0 8 0;
#X connect 14 0 1 0;
#X connect 14 1 3 0;
#X connect 14 2 5 0;
#X connect 14 3 7 0;
#X connect 14 4 15 0;
#X connect 15 0 9 0;
#X connect 15 1 16 0;
#X connect 16 0 17 0;
#X connect 17 0 19 0;
#X connect 19 0 18 0;
