#N canvas -38 23 966 516 10;
#X declare -path ../rj;
#X obj 83 32 inlet~;
#X obj 83 214 outlet~;
#X obj 715 32 inlet;
#X obj 810 16 declare -path ../rj;
#X text 435 317 FIXME;
#X obj 715 53 outlet;
#X obj 83 193 peakeq~ 200 1 0;
#X obj 193 32 inlet~;
#X obj 193 214 outlet~;
#X obj 193 193 peakeq~ 200 1 0;
#X obj 313 32 inlet~;
#X obj 313 214 outlet~;
#X obj 313 193 peakeq~ 200 1 0;
#X obj 423 32 inlet~;
#X obj 423 214 outlet~;
#X obj 423 193 peakeq~ 200 1 0;
#X connect 0 0 6 0;
#X connect 2 0 5 0;
#X connect 6 0 1 0;
#X connect 7 0 9 0;
#X connect 9 0 8 0;
#X connect 10 0 12 0;
#X connect 12 0 11 0;
#X connect 13 0 15 0;
#X connect 15 0 14 0;
