#N canvas 173 206 899 672 10;
#X obj 377 11 inlet freq;
#X obj 479 11 inlet rq;
#X obj 562 -10 inlet db;
#X obj 788 71 samplerate~;
#X obj 736 -41 loadbang;
#X obj 565 74 / 40;
#X obj 565 96 swap 10;
#X obj 565 119 pow;
#X obj 789 120 /;
#X obj 376 176 *;
#X obj 376 200 * 6.28319;
#X text 452 199 w0;
#X obj 376 224 t f f;
#X obj 478 167 * 0.5;
#X obj 409 249 sin;
#X obj 409 273 *;
#X text 439 275 alpha;
#X obj 410 302 t f f f f;
#X obj 503 308 /;
#X text 596 119 a;
#X obj 503 357 swap 1;
#X obj 503 381 /;
#X obj 429 328 *;
#X obj 461 425 + 1;
#X text 549 385 b0rz;
#X obj 461 449 *;
#X text 489 431 a0;
#X obj 429 352 t f f;
#X obj 401 401 swap 1;
#X obj 401 425 -;
#X obj 401 449 *;
#X obj 335 394 swap 1;
#X obj 361 333 /;
#X obj 335 418 -;
#X obj 354 440 * -1;
#X obj 335 471 *;
#X text 430 452 a2;
#X text 363 473 b2;
#X obj 270 280 * 2;
#X obj 269 257 cos;
#X obj 268 328 *;
#X text 295 329 b1;
#X obj 562 36 t b f;
#X obj 478 90 t b f;
#X obj 375 116 1200;
#X obj 477 68 1;
#X obj 272 599 pack f f f f f;
#X obj 300 538 * -1;
#X obj 268 358 t f f;
#X obj 789 96 swap 1;
#X obj 503 332 + 1;
#X obj 40 199 inlet~;
#X obj 41 293 outlet~;
#X obj 41 232 biquad~ 1.83208 -0.854914 1 -1.83208 0.854914;
#X obj 400 39 \$1;
#X obj 400 60 sel 0;
#X obj 519 67 sel 0;
#X obj 519 46 \$2;
#X obj 667 25 \$3;
#X obj 726 -20 t b b b b b;
#X connect 0 0 44 0;
#X connect 1 0 45 0;
#X connect 2 0 42 0;
#X connect 3 0 49 0;
#X connect 4 0 59 0;
#X connect 5 0 6 0;
#X connect 6 0 7 0;
#X connect 6 1 7 1;
#X connect 7 0 18 1;
#X connect 7 0 22 1;
#X connect 7 0 32 1;
#X connect 8 0 9 1;
#X connect 9 0 10 0;
#X connect 10 0 12 0;
#X connect 12 0 39 0;
#X connect 12 1 14 0;
#X connect 13 0 15 1;
#X connect 14 0 15 0;
#X connect 15 0 17 0;
#X connect 17 0 32 0;
#X connect 17 2 22 0;
#X connect 17 3 18 0;
#X connect 18 0 50 0;
#X connect 20 0 21 0;
#X connect 20 1 21 1;
#X connect 21 0 25 1;
#X connect 21 0 30 1;
#X connect 21 0 34 0;
#X connect 21 0 40 1;
#X connect 22 0 27 0;
#X connect 23 0 25 0;
#X connect 25 0 46 2;
#X connect 27 0 28 0;
#X connect 27 1 23 0;
#X connect 28 0 29 0;
#X connect 28 1 29 1;
#X connect 29 0 30 0;
#X connect 30 0 46 4;
#X connect 31 0 33 0;
#X connect 31 1 33 1;
#X connect 32 0 31 0;
#X connect 33 0 35 0;
#X connect 34 0 35 1;
#X connect 35 0 46 1;
#X connect 38 0 40 0;
#X connect 39 0 38 0;
#X connect 40 0 48 0;
#X connect 42 0 45 0;
#X connect 42 1 5 0;
#X connect 43 0 44 0;
#X connect 43 1 13 0;
#X connect 44 0 9 0;
#X connect 45 0 43 0;
#X connect 46 0 53 0;
#X connect 47 0 46 3;
#X connect 48 0 46 0;
#X connect 48 1 47 0;
#X connect 49 0 8 0;
#X connect 49 1 8 1;
#X connect 50 0 20 0;
#X connect 51 0 53 0;
#X connect 53 0 52 0;
#X connect 54 0 55 0;
#X connect 55 1 44 1;
#X connect 56 1 45 1;
#X connect 57 0 56 0;
#X connect 58 0 42 0;
#X connect 59 0 58 0;
#X connect 59 1 54 0;
#X connect 59 2 57 0;
#X connect 59 4 3 0;
