#N canvas 135 30 1032 848 10;
#X obj 106 29 inlet~;
#X obj 126 104 rpole~;
#X obj 126 79 rzero_rev~;
#X obj 125 226 rpole~;
#X obj 125 201 rzero_rev~;
#X obj 125 373 rpole~;
#X obj 125 348 rzero_rev~;
#X obj 104 1019 outlet~;
#X obj 275 581 *~;
#X obj 271 432 *~;
#X obj 264 313 *~;
#X obj 265 207 *~;
#N canvas 0 23 673 382 mapper 0;
#X obj 153 23 * 4;
#X obj 153 134 max 0;
#X obj 154 155 min 1;
#X obj 153 92 -;
#X obj 153 113 abs;
#X obj 154 176 swap 1;
#X obj 154 197 -;
#X obj 153 5 inlet;
#X obj 154 228 outlet;
#X obj 213 134 max 0;
#X obj 214 155 min 1;
#X obj 213 92 -;
#X obj 213 113 abs;
#X obj 214 176 swap 1;
#X obj 214 197 -;
#X obj 213 71 swap 2;
#X obj 273 134 max 0;
#X obj 274 155 min 1;
#X obj 273 92 -;
#X obj 273 113 abs;
#X obj 274 176 swap 1;
#X obj 274 197 -;
#X obj 333 134 max 0;
#X obj 334 155 min 1;
#X obj 333 92 -;
#X obj 333 113 abs;
#X obj 334 176 swap 1;
#X obj 334 197 -;
#X obj 153 44 t f f f f, f 30;
#X obj 214 218 outlet;
#X obj 274 218 outlet;
#X obj 334 218 outlet;
#X obj 153 71 swap 1;
#X obj 273 71 swap 3;
#X obj 333 71 swap 4;
#X connect 0 0 28 0;
#X connect 1 0 2 0;
#X connect 2 0 5 0;
#X connect 3 0 4 0;
#X connect 4 0 1 0;
#X connect 5 0 6 0;
#X connect 5 1 6 1;
#X connect 6 0 8 0;
#X connect 7 0 0 0;
#X connect 9 0 10 0;
#X connect 10 0 13 0;
#X connect 11 0 12 0;
#X connect 12 0 9 0;
#X connect 13 0 14 0;
#X connect 13 1 14 1;
#X connect 14 0 29 0;
#X connect 15 0 11 0;
#X connect 15 1 11 1;
#X connect 16 0 17 0;
#X connect 17 0 20 0;
#X connect 18 0 19 0;
#X connect 19 0 16 0;
#X connect 20 0 21 0;
#X connect 20 1 21 1;
#X connect 21 0 30 0;
#X connect 22 0 23 0;
#X connect 23 0 26 0;
#X connect 24 0 25 0;
#X connect 25 0 22 0;
#X connect 26 0 27 0;
#X connect 26 1 27 1;
#X connect 27 0 31 0;
#X connect 28 0 32 0;
#X connect 28 1 15 0;
#X connect 28 2 33 0;
#X connect 28 3 34 0;
#X connect 32 0 3 0;
#X connect 32 1 3 1;
#X connect 33 0 18 0;
#X connect 33 1 18 1;
#X connect 34 0 24 0;
#X connect 34 1 24 1;
#X restore 320 141 pd mapper;
#X obj 115 984 +~;
#X obj 126 148 rpole~;
#X obj 126 123 rzero_rev~;
#X obj 124 328 rpole~;
#X obj 124 303 rzero_rev~;
#X obj 125 270 rpole~;
#X obj 125 245 rzero_rev~;
#X obj 124 497 rpole~;
#X obj 124 472 rzero_rev~;
#X obj 124 447 rpole~;
#X obj 124 422 rzero_rev~;
#X text 451 184 Variable depth phaser;
#X obj 269 83 inlet~ phase;
#X obj 318 119 inlet depth;
#X text 324 59 0-1;
#X text 407 118 0-1;
#X floatatom 386 220 5 0 0 0 - - -;
#X text 389 139 0-1 interpolates between 4 outputs (mixing between
2 \, 4 \, 6 \, and 8 phaser stages);
#X connect 0 0 2 0;
#X connect 0 0 13 0;
#X connect 1 0 15 0;
#X connect 2 0 1 0;
#X connect 3 0 19 0;
#X connect 4 0 3 0;
#X connect 5 0 23 0;
#X connect 5 0 9 0;
#X connect 6 0 5 0;
#X connect 8 0 13 1;
#X connect 9 0 13 1;
#X connect 10 0 13 1;
#X connect 11 0 13 1;
#X connect 12 0 11 1;
#X connect 12 1 10 1;
#X connect 12 1 29 0;
#X connect 12 2 9 1;
#X connect 12 3 8 1;
#X connect 13 0 7 0;
#X connect 14 0 4 0;
#X connect 14 0 11 0;
#X connect 15 0 14 0;
#X connect 16 0 6 0;
#X connect 17 0 16 0;
#X connect 18 0 17 0;
#X connect 18 0 10 0;
#X connect 19 0 18 0;
#X connect 20 0 8 0;
#X connect 21 0 20 0;
#X connect 22 0 21 0;
#X connect 23 0 22 0;
#X connect 25 0 2 1;
#X connect 25 0 1 1;
#X connect 25 0 4 1;
#X connect 25 0 3 1;
#X connect 25 0 6 1;
#X connect 25 0 5 1;
#X connect 25 0 15 1;
#X connect 25 0 14 1;
#X connect 25 0 19 1;
#X connect 25 0 18 1;
#X connect 25 0 17 1;
#X connect 25 0 16 1;
#X connect 25 0 23 1;
#X connect 25 0 22 1;
#X connect 25 0 21 1;
#X connect 25 0 20 1;
#X connect 26 0 12 0;
