#N canvas 302 63 966 516 10;
#X declare -path ../rj;
#X obj 83 32 inlet~;
#X obj 83 284 outlet~;
#X obj 715 32 inlet;
#X obj 810 16 declare -path ../rj;
#X obj 779 80 outlet;
#X obj 193 32 inlet~;
#X obj 193 284 outlet~;
#X obj 313 32 inlet~;
#X obj 313 284 outlet~;
#X obj 423 32 inlet~;
#X obj 423 284 outlet~;
#X obj 83 263 phaser~;
#X obj 193 263 phaser~;
#X obj 313 263 phaser~;
#X obj 423 263 phaser~;
#X obj 492 139 liner~ 10;
#X text 551 76 TODO range check?;
#X obj 715 53 route phase;
#X obj 715 107 route 1 2 3;
#X obj 715 128 list split 1;
#X obj 721 162 param phase \$0;
#X obj 100 92 a2k~;
#X obj 152 338 range~;
#X obj 100 113 range;
#X msg 738 199 \$1 \$3;
#X obj 650 223 param ampmod \$0;
#X obj 650 244 list;
#X obj 216 93 a2k~;
#X obj 216 114 range;
#X obj 327 93 a2k~;
#X obj 327 114 range;
#X obj 443 94 a2k~;
#X obj 443 115 range;
#X text 435 317 FIXME amp is not normalized?;
#X obj 100 71 r~ amp-1;
#X obj 216 71 r~ amp-2;
#X obj 327 71 r~ amp-3;
#X obj 443 71 r~ amp-4;
#X connect 0 0 11 0;
#X connect 2 0 17 0;
#X connect 5 0 12 0;
#X connect 7 0 13 0;
#X connect 9 0 14 0;
#X connect 11 0 1 0;
#X connect 12 0 6 0;
#X connect 13 0 8 0;
#X connect 14 0 10 0;
#X connect 15 0 11 1;
#X connect 15 0 12 1;
#X connect 15 0 13 1;
#X connect 15 0 14 1;
#X connect 17 0 18 0;
#X connect 17 1 4 0;
#X connect 18 0 19 0;
#X connect 18 1 24 0;
#X connect 18 3 20 0;
#X connect 19 0 20 1;
#X connect 19 0 15 0;
#X connect 20 0 15 0;
#X connect 21 0 23 0;
#X connect 23 0 11 2;
#X connect 24 0 25 1;
#X connect 24 0 26 0;
#X connect 25 0 26 0;
#X connect 26 0 23 1;
#X connect 26 0 32 1;
#X connect 26 0 30 1;
#X connect 26 0 28 1;
#X connect 27 0 28 0;
#X connect 28 0 12 2;
#X connect 29 0 30 0;
#X connect 30 0 13 2;
#X connect 31 0 32 0;
#X connect 32 0 14 2;
#X connect 34 0 21 0;
#X connect 35 0 27 0;
#X connect 36 0 29 0;
#X connect 37 0 31 0;
