#N canvas 468 358 610 305 10;
#X obj 312 96 pitchtracker~ 73.41;
#X obj 182 76 pitchtracker~ 48.99;
#X obj 52 76 pitchtracker~ 32.7;
#X obj 442 126 pitchtracker~ 110;
#X obj 51 46 inlet~ C;
#X obj 181 45 inlet~ G;
#X obj 311 46 inlet~ D;
#X obj 435 69 inlet~ A;
#X obj 51 96 s~ pitch-C;
#X obj 182 98 s~ pitch-G;
#X obj 311 176 s~ pitch-D;
#X obj 442 178 s~ pitch-A;
#X obj 104 151 s~ amp-C;
#X obj 236 153 s~ amp-G;
#X obj 424 152 s~ amp-D;
#X obj 542 148 s~ amp-A;
#X obj 54 217 outlet~;
#X obj 203 226 outlet~;
#X obj 320 234 outlet~;
#X obj 414 239 outlet~;
#X connect 0 0 10 0;
#X connect 0 1 14 0;
#X connect 1 0 9 0;
#X connect 1 1 13 0;
#X connect 2 0 8 0;
#X connect 2 1 12 0;
#X connect 3 0 11 0;
#X connect 3 1 15 0;
#X connect 4 0 2 0;
#X connect 4 0 16 0;
#X connect 5 0 1 0;
#X connect 5 0 17 0;
#X connect 6 0 0 0;
#X connect 6 0 18 0;
#X connect 7 0 3 0;
#X connect 7 0 19 0;
