#N canvas 421 293 961 345 10;
#X obj 67 272 throw~ null;
#X obj 220 302 throw~ null;
#X obj 365 314 throw~ null;
#X obj 535 36 inlet;
#X obj 70 54 inlet~ osc;
#X obj 220 44 inlet~ pitch;
#X obj 367 48 inlet~ amp;
#X obj 535 57 route mod-offset mod-dest;
#X obj 535 78 + \$1;
#X obj 609 88 route bar1 bar2 bar4;
#X text 737 87 vol \, pitch \, osc;
#X obj 535 119 % 4;
#X obj 535 99 - 1;
#X obj 535 140 + 1;
#N canvas 295 23 593 427 labels-amp 0;
#X obj 107 45 inlet;
#X obj 59 111 select 0 1 2 3 4;
#X msg 80 151 amp;
#X msg 120 191 delay;
#X msg 140 211 osc;
#X msg 100 172 freqshift;
#X obj 262 117 inlet;
#X obj 18 339 outlet;
#X msg 7 148 set null;
#X msg 58 312 set amp-\$2-\$1;
#X obj 59 243 list;
#X obj 59 284 list prepend \$1;
#X obj 262 138 t b f;
#X obj 59 264 route bang;
#X obj 32 77 t b f;
#X msg 66 132 bang;
#X connect 0 0 14 0;
#X connect 1 0 8 0;
#X connect 1 0 15 0;
#X connect 1 1 2 0;
#X connect 1 2 5 0;
#X connect 1 3 3 0;
#X connect 1 4 4 0;
#X connect 2 0 10 1;
#X connect 3 0 10 1;
#X connect 4 0 10 1;
#X connect 5 0 10 1;
#X connect 6 0 12 0;
#X connect 8 0 7 0;
#X connect 9 0 7 0;
#X connect 10 0 13 0;
#X connect 11 0 9 0;
#X connect 12 0 10 0;
#X connect 12 1 11 1;
#X connect 13 1 11 0;
#X connect 14 0 10 0;
#X connect 14 1 1 0;
#X connect 15 0 10 1;
#X restore 512 170 pd labels-amp;
#N canvas 295 23 593 427 labels-pitch 0;
#X obj 107 45 inlet;
#X obj 59 111 select 0 1 2 3 4;
#X msg 80 151 amp;
#X msg 120 191 delay;
#X msg 140 211 osc;
#X msg 100 172 freqshift;
#X obj 262 117 inlet;
#X obj 18 339 outlet;
#X msg 7 148 set null;
#X obj 59 243 list;
#X obj 59 284 list prepend \$1;
#X obj 262 138 t b f;
#X obj 59 264 route bang;
#X obj 32 77 t b f;
#X msg 66 132 bang;
#X msg 58 312 set pitch-\$2-\$1;
#X connect 0 0 13 0;
#X connect 1 0 8 0;
#X connect 1 0 14 0;
#X connect 1 1 2 0;
#X connect 1 2 5 0;
#X connect 1 3 3 0;
#X connect 1 4 4 0;
#X connect 2 0 9 1;
#X connect 3 0 9 1;
#X connect 4 0 9 1;
#X connect 5 0 9 1;
#X connect 6 0 11 0;
#X connect 8 0 7 0;
#X connect 9 0 12 0;
#X connect 10 0 15 0;
#X connect 11 0 9 0;
#X connect 11 1 10 1;
#X connect 12 1 10 0;
#X connect 13 0 9 0;
#X connect 13 1 1 0;
#X connect 14 0 9 1;
#X connect 15 0 7 0;
#X restore 622 170 pd labels-pitch;
#N canvas 295 23 593 427 labels-osc 0;
#X obj 107 45 inlet;
#X obj 59 111 select 0 1 2 3 4;
#X msg 80 151 amp;
#X msg 120 191 delay;
#X msg 140 211 osc;
#X msg 100 172 freqshift;
#X obj 262 117 inlet;
#X obj 18 339 outlet;
#X msg 7 148 set null;
#X obj 59 243 list;
#X obj 59 284 list prepend \$1;
#X obj 262 138 t b f;
#X obj 59 264 route bang;
#X obj 32 77 t b f;
#X msg 66 132 bang;
#X msg 58 312 set osc-\$2-\$1;
#X connect 0 0 13 0;
#X connect 1 0 8 0;
#X connect 1 0 14 0;
#X connect 1 1 2 0;
#X connect 1 2 5 0;
#X connect 1 3 3 0;
#X connect 1 4 4 0;
#X connect 2 0 9 1;
#X connect 3 0 9 1;
#X connect 4 0 9 1;
#X connect 5 0 9 1;
#X connect 6 0 11 0;
#X connect 8 0 7 0;
#X connect 9 0 12 0;
#X connect 10 0 15 0;
#X connect 11 0 9 0;
#X connect 11 1 10 1;
#X connect 12 1 10 0;
#X connect 13 0 9 0;
#X connect 13 1 1 0;
#X connect 14 0 9 1;
#X connect 15 0 7 0;
#X restore 722 170 pd labels-osc;
#X connect 3 0 7 0;
#X connect 4 0 0 0;
#X connect 5 0 1 0;
#X connect 6 0 2 0;
#X connect 7 0 8 0;
#X connect 7 1 9 0;
#X connect 8 0 12 0;
#X connect 9 0 14 0;
#X connect 9 1 15 0;
#X connect 9 2 16 0;
#X connect 11 0 13 0;
#X connect 12 0 11 0;
#X connect 13 0 14 1;
#X connect 13 0 15 1;
#X connect 13 0 16 1;
#X connect 14 0 2 0;
#X connect 15 0 1 0;
#X connect 16 0 0 0;
