#N canvas 166 23 804 501 10;
#X obj 196 109 *~;
#X obj 200 211 sqrt~;
#X obj 94 322 *~;
#X obj 86 341 clip~ -1 1;
#X obj 107 215 -~ 1;
#X obj 107 235 abs~;
#X obj 108 128 clip~ -1 1;
#X obj 57 234 sig~ 1;
#X obj 110 102 *~ 1e+22;
#X obj 75 258 rpole~;
#X obj 200 156 lop~ 8;
#X obj 111 25 inlet~;
#X obj 85 370 outlet~;
#X obj 107 151 expr~ $v1>=0;
#X obj 107 193 expr~ $v1==1;
#X obj 75 302 *~ 0.0008125;
#X obj 208 70 vcf~ 7;
#X obj 262 244 *~;
#X obj 260 293 sqrt~;
#X obj 261 266 lop~ 1;
#X obj 263 317 expr~ 27850/$v1;
#X obj 107 172 biquad~ 0 0 1 -1 0;
#X obj 238 367 outlet~;
#X obj 263 340 delwrite~ \$0-pitch 5;
#X obj 224 44 delread~ \$0-pitch 5;
#X text 327 89 Thanks to lokki https://forum.bela.io/d/489-guitar-pitch-tracking-with-bela/17
;
#X obj 84 74 bp~ \$1 15;
#X obj 540 348 block~ 16 1 0.25;
#X connect 0 0 10 0;
#X connect 1 0 2 1;
#X connect 1 0 22 0;
#X connect 2 0 3 0;
#X connect 3 0 12 0;
#X connect 4 0 5 0;
#X connect 5 0 9 1;
#X connect 6 0 13 0;
#X connect 7 0 9 0;
#X connect 8 0 6 0;
#X connect 9 0 15 0;
#X connect 9 0 17 0;
#X connect 9 0 17 1;
#X connect 10 0 1 0;
#X connect 11 0 0 0;
#X connect 11 0 0 1;
#X connect 11 0 16 0;
#X connect 11 0 26 0;
#X connect 13 0 21 0;
#X connect 14 0 4 0;
#X connect 15 0 2 0;
#X connect 16 0 8 0;
#X connect 17 0 19 0;
#X connect 18 0 20 0;
#X connect 19 0 18 0;
#X connect 20 0 23 0;
#X connect 21 0 14 0;
#X connect 24 0 16 1;
#X connect 26 0 8 0;
