#N canvas 175 41 819 461 10;
#X obj 139 158 inlet~;
#X obj 137 322 outlet~;
#X obj 292 320 list trim;
#X obj 291 345 outlet;
#X text 359 242 TODO settings;
#X obj 292 297 list prepend pitch-\$1;
#X msg 299 211 maxfreq \$1;
#X obj 297 10 loadbang;
#X obj 297 31 \$1;
#X obj 297 52 - 1;
#X obj 297 73 * 7;
#X obj 297 136 * 8;
#X obj 297 115 mtof;
#X obj 297 94 + 36;
#X text 329 94 C0 is 24 \, this is octave (partial) above;
#X obj 297 257 sigmund~ pitch peaks -npeak 8 -npts 4096 -hop 2048;
#X obj 492 297 list prepend peaks-\$1;
#X connect 0 0 1 0;
#X connect 0 0 15 0;
#X connect 2 0 3 0;
#X connect 5 0 2 0;
#X connect 6 0 15 0;
#X connect 7 0 8 0;
#X connect 8 0 9 0;
#X connect 9 0 10 0;
#X connect 10 0 13 0;
#X connect 11 0 6 0;
#X connect 12 0 11 0;
#X connect 13 0 12 0;
#X connect 15 0 5 0;
#X connect 15 1 16 0;
#X connect 16 0 2 0;
