#N canvas 166 23 804 501 10;
#X obj 196 109 *~;
#X obj 200 211 sqrt~;
#X obj 94 322 *~;
#X obj 86 341 clip~ -1 1;
#X obj 108 128 clip~ -1 1;
#X obj 57 234 sig~ 1;
#X obj 110 102 *~ 1e+22;
#X obj 75 258 rpole~;
#X obj 200 156 lop~ 8;
#X obj 111 25 inlet~;
#X obj 85 370 outlet~;
#X obj 75 302 *~ 0.0008125;
#X obj 208 70 vcf~ 7;
#X obj 262 244 *~;
#X obj 260 293 sqrt~;
#X obj 261 266 lop~ 1;
#X obj 107 172 biquad~ 0 0 1 -1 0;
#X obj 238 367 outlet~;
#X obj 263 340 delwrite~ \$0-pitch 5;
#X obj 224 44 delread~ \$0-pitch 5;
#X text 327 89 Thanks to lokki https://forum.bela.io/d/489-guitar-pitch-tracking-with-bela/17
;
#X obj 84 74 bp~ \$1 15;
#X obj 107 151 gt~ 0;
#N canvas 0 23 450 300 ==1 0;
#X obj 231 199 *~ -1;
#X obj 241 218 +~ 1;
#X obj 222 90 -~;
#X obj 222 115 clip~ -1e-37 0;
#X obj 222 157 *~ 1e+37;
#X obj 222 65 min~;
#X obj 222 136 +~ 1e-37;
#X obj 254 39 sig~ 1;
#X obj 225 177 *~ 1;
#X obj 222 11 inlet~;
#X obj 241 239 outlet~;
#X connect 0 0 1 0;
#X connect 1 0 10 0;
#X connect 2 0 3 0;
#X connect 3 0 6 0;
#X connect 4 0 8 0;
#X connect 5 0 2 0;
#X connect 6 0 4 0;
#X connect 7 0 5 1;
#X connect 7 0 2 1;
#X connect 8 0 0 0;
#X connect 9 0 5 0;
#X restore 105 206 pd ==1;
#X obj 240 315 /~;
#X obj 193 277 sig~ 27850;
#X obj 554 369 block~ 4 1 0.125;
#X connect 0 0 8 0;
#X connect 1 0 2 1;
#X connect 1 0 17 0;
#X connect 2 0 3 0;
#X connect 3 0 10 0;
#X connect 4 0 22 0;
#X connect 5 0 7 0;
#X connect 6 0 4 0;
#X connect 7 0 11 0;
#X connect 7 0 13 0;
#X connect 7 0 13 1;
#X connect 8 0 1 0;
#X connect 9 0 0 0;
#X connect 9 0 0 1;
#X connect 9 0 21 0;
#X connect 9 0 12 0;
#X connect 11 0 2 0;
#X connect 12 0 6 0;
#X connect 13 0 15 0;
#X connect 14 0 24 1;
#X connect 15 0 14 0;
#X connect 16 0 23 0;
#X connect 19 0 12 1;
#X connect 21 0 6 0;
#X connect 22 0 16 0;
#X connect 23 0 7 1;
#X connect 24 0 18 0;
#X connect 25 0 24 0;
