#N canvas 491 255 787 472 10;
#X obj 312 96 pitchtracker~ 73.41;
#X obj 182 76 pitchtracker~ 48.99;
#X obj 52 76 pitchtracker~ 32.7;
#X obj 442 126 pitchtracker~ 110;
#X obj 51 46 inlet~ C;
#X obj 181 45 inlet~ G;
#X obj 311 46 inlet~ D;
#X obj 435 69 inlet~ A;
#X obj 54 217 outlet~;
#X obj 203 226 outlet~;
#X obj 320 234 outlet~;
#X obj 414 239 outlet~;
#X obj 137 19 readsf~;
#X obj 136 -127 openpanel;
#X msg 136 -75 open /Users/johannes/projects/komp-2020/AudioSculpt/Buffé.wav
\, start;
#X obj 136 -158 bng 25 250 50 0 empty empty empty 17 7 0 10 -262144
-260097 -1;
#X msg 135 -109 set open \$1 \, addcomma \, add2 start \, bang;
#X msg 147 -8 stop;
#X obj 33 124 pitch-tracker-send~ 1;
#X obj 171 124 pitch-tracker-send~ 2;
#X obj 321 154 pitch-tracker-send~ 3;
#X obj 451 184 pitch-tracker-send~ 4;
#X connect 0 0 20 0;
#X connect 0 1 20 1;
#X connect 0 2 20 2;
#X connect 1 0 19 0;
#X connect 1 1 19 1;
#X connect 1 2 19 2;
#X connect 2 0 18 0;
#X connect 2 1 18 1;
#X connect 2 2 18 2;
#X connect 3 0 21 0;
#X connect 3 1 21 1;
#X connect 3 2 21 2;
#X connect 4 0 8 0;
#X connect 4 0 2 0;
#X connect 5 0 9 0;
#X connect 5 0 1 0;
#X connect 6 0 10 0;
#X connect 6 0 0 0;
#X connect 7 0 11 0;
#X connect 7 0 3 0;
#X connect 12 0 2 0;
#X connect 12 1 14 0;
#X connect 13 0 16 0;
#X connect 14 0 12 0;
#X connect 15 0 13 0;
#X connect 16 0 14 0;
#X connect 17 0 12 0;
