#N canvas 185 48 804 501 10;
#X obj 196 109 *~;
#X obj 200 211 sqrt~;
#X obj 62 367 *~;
#X obj 72 397 clip~ -1 1;
#X obj 84 116 clip~ -1 1;
#X obj 38 242 sig~ 1;
#X obj 84 95 *~ 1e+22;
#X obj 56 266 rpole~;
#X obj 200 156 lop~ 8;
#X obj 111 25 inlet~;
#X obj 56 292 *~ 0.0008125;
#X obj 84 158 biquad~ 0 0 1 -1 0;
#X obj 84 74 bp~ \$1 15;
#X obj 84 137 gt~ 0;
#N canvas 0 23 450 300 ==1 0;
#X obj 231 199 *~ -1;
#X obj 241 218 +~ 1;
#X obj 222 90 -~;
#X obj 222 115 clip~ -1e-37 0;
#X obj 222 157 *~ 1e+37;
#X obj 222 65 min~;
#X obj 222 136 +~ 1e-37;
#X obj 254 39 sig~ 1;
#X obj 225 177 *~ 1;
#X obj 222 11 inlet~;
#X obj 241 239 outlet~;
#X connect 0 0 1 0;
#X connect 1 0 10 0;
#X connect 2 0 3 0;
#X connect 3 0 6 0;
#X connect 4 0 8 0;
#X connect 5 0 2 0;
#X connect 6 0 4 0;
#X connect 7 0 5 1;
#X connect 7 0 2 1;
#X connect 8 0 0 0;
#X connect 9 0 5 0;
#X restore 86 214 pd ==1;
#X obj 411 266 rpole~;
#X obj 401 313 loadbang;
#X obj 401 334 samplerate~;
#X obj 401 355 swap 1;
#X obj 401 376 /;
#X obj 403 400;
#X obj 63 442 outlet~;
#X obj 238 367 outlet~;
#X text 327 89 Thanks to lokki https://forum.bela.io/d/489-guitar-pitch-tracking-with-bela/21
;
#X connect 0 0 8 0;
#X connect 1 0 2 1;
#X connect 1 0 22 0;
#X connect 2 0 3 0;
#X connect 3 0 21 0;
#X connect 4 0 13 0;
#X connect 5 0 7 0;
#X connect 6 0 4 0;
#X connect 7 0 10 0;
#X connect 8 0 1 0;
#X connect 9 0 0 0;
#X connect 9 0 0 1;
#X connect 9 0 12 0;
#X connect 10 0 2 0;
#X connect 11 0 14 0;
#X connect 12 0 6 0;
#X connect 13 0 11 0;
#X connect 14 0 7 1;
#X connect 16 0 17 0;
#X connect 17 0 18 0;
#X connect 18 0 19 0;
#X connect 18 1 19 1;
