#N canvas 445 48 821 603 10;
#X obj 196 109 *~;
#X obj 200 211 sqrt~;
#X obj 84 116 clip~ -1 1;
#X obj 116 237 sig~ 1;
#X obj 84 95 *~ 1e+22;
#X obj 56 266 rpole~;
#X obj 200 156 lop~ 8;
#X obj 111 25 inlet~;
#X obj 84 158 biquad~ 0 0 1 -1 0;
#X obj 84 74 bp~ \$1 15;
#X obj 84 137 gt~ 0;
#N canvas 0 23 450 300 ==1 0;
#X obj 231 199 *~ -1;
#X obj 241 218 +~ 1;
#X obj 222 90 -~;
#X obj 222 115 clip~ -1e-37 0;
#X obj 222 157 *~ 1e+37;
#X obj 222 65 min~;
#X obj 222 136 +~ 1e-37;
#X obj 254 39 sig~ 1;
#X obj 225 177 *~ 1;
#X obj 222 11 inlet~;
#X obj 241 239 outlet~;
#X obj 333 210 outlet~;
#X connect 0 0 1 0;
#X connect 1 0 10 0;
#X connect 2 0 3 0;
#X connect 3 0 6 0;
#X connect 4 0 8 0;
#X connect 5 0 2 0;
#X connect 6 0 4 0;
#X connect 7 0 5 1;
#X connect 7 0 2 1;
#X connect 8 0 0 0;
#X connect 8 0 11 0;
#X connect 9 0 5 0;
#X restore 86 214 pd ==1;
#X text 327 89 Thanks to lokki https://forum.bela.io/d/489-guitar-pitch-tracking-with-bela/21
;
#X obj 67 308 samphold~;
#X obj 53 384 /~;
#X obj 131 387 samplerate~;
#X obj 131 365 loadbang;
#X obj 202 365 bng 15 250 50 0 empty empty empty 17 7 0 10 -262144
-1 -1;
#X obj 131 412 sig~;
#X obj 55 564 outlet~ lin;
#X obj 131 444 /~;
#N canvas 0 23 450 300 ==-1 0;
#X obj 231 199 *~ -1;
#X obj 241 218 +~ 1;
#X obj 222 90 -~;
#X obj 222 115 clip~ -1e-37 0;
#X obj 222 157 *~ 1e+37;
#X obj 222 65 min~;
#X obj 222 136 +~ 1e-37;
#X obj 225 177 *~ 1;
#X obj 222 11 inlet~;
#X obj 241 239 outlet~;
#X obj 254 39 sig~ -1;
#X connect 0 0 1 0;
#X connect 1 0 9 0;
#X connect 2 0 3 0;
#X connect 3 0 6 0;
#X connect 4 0 7 0;
#X connect 5 0 2 0;
#X connect 6 0 4 0;
#X connect 7 0 0 0;
#X connect 8 0 5 0;
#X connect 8 0 2 1;
#X connect 10 0 5 1;
#X restore 146 214 pd ==-1;
#X obj 136 266 rpole~;
#X obj 137 298 samphold~;
#X obj 138 317 -~ 2;
#X obj 68 352 +~;
#X obj 66 331 -~ 1;
#X obj 131 549 outlet~ lin;
#X obj 238 367 outlet~ lin;
#X obj 452 470 block~ 2 1 0.125;
#X connect 0 0 6 0;
#X connect 1 0 28 0;
#X connect 2 0 10 0;
#X connect 2 0 13 1;
#X connect 3 0 5 0;
#X connect 3 0 22 0;
#X connect 4 0 2 0;
#X connect 5 0 13 0;
#X connect 5 0 14 0;
#X connect 6 0 1 0;
#X connect 7 0 0 0;
#X connect 7 0 0 1;
#X connect 7 0 9 0;
#X connect 8 0 11 0;
#X connect 8 0 21 0;
#X connect 9 0 4 0;
#X connect 10 0 8 0;
#X connect 11 0 5 1;
#X connect 11 1 23 1;
#X connect 13 0 26 0;
#X connect 14 0 19 0;
#X connect 15 0 18 0;
#X connect 16 0 15 0;
#X connect 17 0 15 0;
#X connect 18 0 20 0;
#X connect 20 0 27 0;
#X connect 21 0 22 1;
#X connect 22 0 23 0;
#X connect 23 0 24 0;
#X connect 24 0 25 1;
#X connect 25 0 14 1;
#X connect 25 0 20 1;
#X connect 26 0 25 0;
