#N canvas 421 293 961 345 10;
#X obj 535 36 inlet;
#X obj 70 54 inlet~ osc;
#X obj 220 44 inlet~ pitch;
#X obj 367 48 inlet~ amp;
#X obj 535 78 + \$1;
#X obj 535 119 % 4;
#X obj 535 99 - 1;
#X obj 535 140 + 1;
#X obj 535 57 route mod-offset;
#X msg 535 161 set amp-\$1;
#X obj 218 226 send~ pitch-\$1;
#X obj 364 228 send~ amp-\$1;
#X connect 0 0 8 0;
#X connect 2 0 10 0;
#X connect 3 0 11 0;
#X connect 4 0 6 0;
#X connect 5 0 7 0;
#X connect 6 0 5 0;
#X connect 7 0 9 0;
#X connect 8 0 4 0;
#X connect 9 0 11 0;
