#N canvas 510 171 656 306 10;
#X obj 288 83 inlet;
#X obj 315 131 -;
#X obj 288 104 t a a;
#X obj 288 157 unpack f f;
#X obj 97 202 +;
#X obj 97 111 *;
#X obj 97 223 outlet;
#X obj 97 90 inlet;
#X obj 403 40 loadbang;
#X obj 403 61 pack \$1 \$2;
#X connect 0 0 2 0;
#X connect 1 0 5 1;
#X connect 2 0 3 0;
#X connect 2 1 1 0;
#X connect 3 1 4 1;
#X connect 4 0 6 0;
#X connect 5 0 4 0;
#X connect 7 0 5 0;
#X connect 8 0 9 0;
#X connect 9 0 2 0;
