#N canvas 476 550 450 300 10;
#X obj 97 90 inlet~;
#X obj 97 111 *~;
#X obj 97 202 +~;
#X obj 97 223 outlet~;
#X obj 288 83 inlet;
#X obj 315 131 -;
#X obj 288 104 t a a;
#X obj 288 157 unpack f f;
#X obj 287 188 liner~;
#X obj 131 132 liner~;
#X connect 0 0 1 0;
#X connect 1 0 2 0;
#X connect 2 0 3 0;
#X connect 4 0 6 0;
#X connect 5 0 9 0;
#X connect 6 0 7 0;
#X connect 6 1 5 0;
#X connect 7 1 8 0;
#X connect 8 0 2 1;
#X connect 9 0 1 1;
