#N canvas 640 285 741 593 10;
#X obj 64 160 inlet~;
#X obj 214 40 inlet;
#X obj 370 183 outlet;
#X text 397 332 global mute;
#X obj 65 377 outlet~;
#X obj 151 188 * 0;
#X text 184 187 TODO mapping;
#X obj 64 290 +~;
#X text 388 72 delay \, delaymod1 \, delaymod2 \, delaymod3;
#X obj 115 250 osc~ 330;
#X obj 117 273 *~ 0.001;
#X obj 216 72 patchparamrouter osc \$2 \$1;
#X connect 0 0 7 0;
#X connect 1 0 11 0;
#X connect 7 0 4 0;
#X connect 9 0 10 0;
#X connect 10 0 7 1;
#X connect 11 0 5 0;
#X connect 11 4 2 0;
