#N canvas 640 285 741 593 10;
#X obj 64 160 inlet~;
#X obj 214 40 inlet;
#X obj 370 183 outlet;
#X text 397 332 global mute;
#X obj 65 377 outlet~;
#X text 184 187 TODO mapping;
#X obj 64 290 +~;
#X obj 216 72 patchparamrouter osc \$2 \$1;
#X obj 104 260 *~;
#X obj 122 230 r~ amp-\$2;
#X obj 101 197 r~ osc-\$2;
#X obj 104 285 *~;
#X obj 137 264 liner~ 10;
#X connect 0 0 6 0;
#X connect 1 0 7 0;
#X connect 6 0 4 0;
#X connect 7 0 12 0;
#X connect 7 4 2 0;
#X connect 8 0 11 0;
#X connect 9 0 8 1;
#X connect 10 0 8 0;
#X connect 11 0 6 1;
#X connect 12 0 11 1;
