#N canvas 552 198 450 300 12;
#X msg 294 127 0;
#X msg 248 127 1;
#X obj 249 75 inlet;
#X obj 273 218 s \$1;
#X obj 53 212 outlet;
#X obj 53 158 r \$1;
#X obj 53 187 spigot 1;
#X obj 248 104 t b a b;
#X connect 0 0 6 1;
#X connect 1 0 6 1;
#X connect 2 0 7 0;
#X connect 5 0 6 0;
#X connect 6 0 4 0;
#X connect 7 0 1 0;
#X connect 7 1 3 0;
#X connect 7 2 0 0;
