#N canvas 778 23 450 408 10;
#X obj 43 144 route 1 0;
#X obj 127 200 spigot;
#X obj 42 267 t b b;
#X msg 69 285 0;
#X obj 42 203 t b b;
#X msg 69 222 1;
#X obj 127 221 t b b;
#X msg 153 243 stop;
#X obj 42 107 inlet;
#X obj 110 328 outlet;
#X obj 57 353 outlet;
#X obj 43 248 delay \$1;
#X text 162 329 long;
#X text 107 353 short;
#X connect 0 0 4 0;
#X connect 0 1 1 0;
#X connect 1 0 6 0;
#X connect 2 0 9 0;
#X connect 2 1 3 0;
#X connect 3 0 1 1;
#X connect 4 0 11 0;
#X connect 4 1 5 0;
#X connect 5 0 1 1;
#X connect 6 0 10 0;
#X connect 6 1 7 0;
#X connect 7 0 11 0;
#X connect 8 0 0 0;
#X connect 11 0 2 0;
