#N canvas 236 205 450 300 10;
#X obj 102 -1 inlet~;
#X obj 101 58 snapshot~;
#X obj 104 101 hsl 128 15 -1 1 0 0 empty empty empty -2 -8 0 10 -262144
-1 -1 12700 1;
#X obj 167 102 cnv 2 2 5 empty empty empty 20 12 0 14 -233017 -66577
0;
#X obj 14 14 bang~;
#X floatatom 101 100 5 0 0 0 - - -;
#X connect 0 0 1 0;
#X connect 1 0 2 0;
#X connect 1 0 5 0;
#X connect 4 0 1 0;
#X coords 0 -1 1 1 135 17 1 100 100;
