#N canvas 249 313 1216 516 10;
#X declare -path ../rj -path ../puremapping;
#X obj 83 32 inlet~;
#X obj 83 243 slew-distortion~ 2000;
#X obj 83 264 outlet~;
#X obj 223 32 inlet~;
#X obj 223 243 slew-distortion~ 2000;
#X obj 223 264 outlet~;
#X obj 363 32 inlet~;
#X obj 363 243 slew-distortion~ 2000;
#X obj 363 264 outlet~;
#X obj 503 32 inlet~;
#X obj 503 243 slew-distortion~ 2000;
#X obj 503 264 outlet~;
#X obj 715 32 inlet;
#X obj 772 72 outlet;
#X obj 715 53 route slew;
#X obj 715 107 route 1 2 3;
#X obj 810 16 declare -path ../rj -path ../puremapping;
#X obj 715 195 lop~ 1;
#X obj 772 168 param amount \$0;
#X obj 715 128 list split 1;
#X connect 0 0 1 0;
#X connect 1 0 2 0;
#X connect 3 0 4 0;
#X connect 4 0 5 0;
#X connect 6 0 7 0;
#X connect 7 0 8 0;
#X connect 9 0 10 0;
#X connect 10 0 11 0;
#X connect 12 0 14 0;
#X connect 14 0 15 0;
#X connect 14 1 13 0;
#X connect 15 0 19 0;
#X connect 15 3 18 0;
#X connect 17 0 1 1;
#X connect 17 0 10 1;
#X connect 17 0 7 1;
#X connect 17 0 4 1;
#X connect 18 0 17 0;
#X connect 19 0 18 1;
#X connect 19 0 17 0;
