#N canvas 598 112 842 687 10;
#X obj 73 409 *~;
#X obj 74 54 inlet~;
#X obj 73 489 outlet~;
#X obj 74 322 slop~ 1e+09 0 \$1 0 \$1;
#X obj 33 453 -~;
#X obj 113 119 inlet~ amt;
#X obj 100 376 sqrt~;
#X obj 126 200 *~ -800;
#X obj 126 221 +~ 900;
#X obj 126 242 *~;
#X obj 195 182 *~;
#X obj 195 203 *~;
#X obj 195 224 *~ 1980;
#X obj 195 245 +~ 20;
#X obj 342 217 samplerate~;
#X obj 314 175 loadbang;
#X obj 314 196 t b b;
#X msg 314 217 1;
#X obj 314 238 /;
#X connect 0 0 4 1;
#X connect 1 0 4 0;
#X connect 1 0 3 0;
#X connect 3 0 0 0;
#X connect 4 0 2 0;
#X connect 5 0 6 0;
#X connect 5 0 7 0;
#X connect 5 0 10 0;
#X connect 5 0 10 1;
#X connect 6 0 0 1;
#X connect 7 0 8 0;
#X connect 8 0 9 0;
#X connect 9 0 3 2;
#X connect 9 0 3 4;
#X connect 10 0 11 0;
#X connect 10 0 11 1;
#X connect 11 0 12 0;
#X connect 12 0 13 0;
#X connect 13 0 3 3;
#X connect 13 0 3 5;
#X connect 14 0 18 1;
#X connect 15 0 16 0;
#X connect 16 0 17 0;
#X connect 16 1 14 0;
#X connect 17 0 18 0;
#X connect 18 0 9 1;
