#N canvas 527 82 842 779 10;
#X obj 188 55 hsl 128 15 0 1 0 0 empty empty empty -2 -8 0 10 -262144
-1 -1 9600 1;
#N canvas 0 22 450 278 (subpatch) 0;
#X array \$0-array 1024 float 0;
#X coords 0 1 1023 -1 400 140 1 0 0;
#X restore 278 129 graph;
#X obj 88 262 tabwrite~ \$0-array;
#X obj 88 79 *~ 2;
#X obj 88 100 -~ 1;
#X obj 127 170 loadbang;
#X obj 127 191 tgl 15 0 empty empty empty 17 7 0 10 -262144 -1 -1 1
1;
#X floatatom 19 61 5 0 0 0 - - -;
#X obj 88 58 phasor~ 140;
#X obj 127 209 metro 250;
#X obj 92 20 hsl 128 15 80 4000 1 0 empty empty empty -2 -8 0 10 -262144
-1 -1 8300 1;
#X obj 89 120 slew-distortion~ 280;
#X connect 0 0 11 1;
#X connect 3 0 4 0;
#X connect 4 0 11 0;
#X connect 5 0 6 0;
#X connect 6 0 9 0;
#X connect 7 0 8 0;
#X connect 8 0 3 0;
#X connect 9 0 2 0;
#X connect 10 0 8 0;
