#N canvas 527 82 842 687 10;
#X obj 163 212 samplerate~;
#X obj 122 215 /;
#X obj 199 -3 hsl 128 15 0 1 0 0 empty empty empty -2 -8 0 10 -262144
-1 -1 0 1;
#X obj 123 155 * -800;
#X obj 73 409 *~;
#X obj 122 235 t a a;
#X obj 122 176 + 900;
#X obj 163 191 loadbang;
#X obj 74 54 inlet~;
#X obj 73 489 outlet~;
#X obj 206 34 inlet;
#X obj 271 264 inlet;
#X obj 271 285 t f f;
#X obj 74 322 slop~ 1e+09 0 \$1 0 \$1;
#X obj 268 193 * 1980;
#X obj 268 214 + 20;
#X obj 268 106 *;
#X obj 268 127 t f f;
#X obj 268 148 *;
#X obj 206 55 t f f f f;
#X obj 33 453 -~;
#X obj 96 95 sqrt;
#X text 128 95 "mapping";
#X connect 0 0 1 1;
#X connect 1 0 5 0;
#X connect 2 0 19 0;
#X connect 3 0 6 0;
#X connect 4 0 20 1;
#X connect 5 0 13 2;
#X connect 5 1 13 4;
#X connect 6 0 1 0;
#X connect 7 0 0 0;
#X connect 8 0 13 0;
#X connect 8 0 20 0;
#X connect 10 0 19 0;
#X connect 11 0 12 0;
#X connect 12 0 13 3;
#X connect 12 1 13 5;
#X connect 13 0 4 0;
#X connect 14 0 15 0;
#X connect 15 0 12 0;
#X connect 16 0 17 0;
#X connect 17 0 18 0;
#X connect 17 1 18 1;
#X connect 18 0 14 0;
#X connect 19 0 21 0;
#X connect 19 1 3 0;
#X connect 19 2 16 0;
#X connect 19 3 16 1;
#X connect 20 0 9 0;
#X connect 21 0 4 1;
