#N canvas -38 23 966 516 10;
#X declare -path ../rj;
#X obj 83 32 inlet~;
#X obj 83 193 slew-distortion~ 2000;
#X obj 83 214 outlet~;
#X obj 223 32 inlet~;
#X obj 223 193 slew-distortion~ 2000;
#X obj 223 214 outlet~;
#X obj 363 32 inlet~;
#X obj 363 193 slew-distortion~ 2000;
#X obj 363 214 outlet~;
#X obj 503 32 inlet~;
#X obj 503 193 slew-distortion~ 2000;
#X obj 503 214 outlet~;
#X obj 715 32 inlet;
#X obj 810 16 declare -path ../rj;
#X text 435 317 FIXME;
#X obj 715 53 outlet;
#X connect 0 0 1 0;
#X connect 1 0 2 0;
#X connect 3 0 4 0;
#X connect 4 0 5 0;
#X connect 6 0 7 0;
#X connect 7 0 8 0;
#X connect 9 0 10 0;
#X connect 10 0 11 0;
#X connect 12 0 15 0;
