#N canvas 476 128 820 738 10;
#X obj 98 40 inlet;
#X obj 115 127 int;
#X obj 179 157 -;
#X obj 114 107 + 0.5;
#X obj 179 198 t f f;
#X obj 179 219 *;
#X obj 179 239 t f f;
#X obj 179 260 *;
#X obj 179 178 * 2;
#X obj 97 86 t f f f;
#X obj 96 360 +;
#X obj 96 308 -;
#X obj 96 329 *;
#X obj 97 407 outlet;
#X obj 306 72 loadbang;
#X obj 97 386 /;
#X obj 97 65 *;
#X obj 372 87 inlet;
#X obj 306 116 swap 1;
#X obj 306 93 \$1;
#X obj 306 149 /;
#X obj 112 149 t a a a;
#X connect 0 0 16 0;
#X connect 1 0 21 0;
#X connect 2 0 8 0;
#X connect 3 0 1 0;
#X connect 4 0 5 0;
#X connect 4 1 5 1;
#X connect 5 0 6 0;
#X connect 6 0 7 0;
#X connect 6 1 7 1;
#X connect 7 0 12 1;
#X connect 8 0 4 0;
#X connect 9 0 11 0;
#X connect 9 1 3 0;
#X connect 9 2 2 1;
#X connect 10 0 15 0;
#X connect 11 0 12 0;
#X connect 12 0 10 0;
#X connect 14 0 19 0;
#X connect 15 0 13 0;
#X connect 16 0 9 0;
#X connect 17 0 18 0;
#X connect 18 0 20 0;
#X connect 18 1 20 1;
#X connect 19 0 18 0;
#X connect 20 0 15 1;
#X connect 20 0 16 1;
#X connect 21 0 11 1;
#X connect 21 1 10 1;
#X connect 21 2 2 0;
