#N canvas 653 45 450 300 10;
#X obj 52 20 inlet;
#X obj 51 117 outlet;
#X obj 51 94 dbtorms;
#X obj 51 51 expr $f1 * (\$2 - \$1);
#X obj 50 72 + \$1;
#X connect 0 0 3 0;
#X connect 2 0 1 0;
#X connect 3 0 4 0;
#X connect 4 0 2 0;
