#N canvas 268 217 1129 661 10;
#X obj 95 310 tabread4 \$0-lookup;
#X obj 393 214 until;
#X obj 393 235 f;
#X obj 426 236 + 1;
#X obj 393 297 / 512;
#X obj 393 318 - 1;
#X obj 393 256 t f f;
#X obj 391 463 tabwrite \$0-lookup;
#X obj 392 145 loadbang;
#N canvas 0 23 450 300 \$0-spec 0;
#X obj 50 70 inlet;
#X obj 50 135 outlet;
#X restore 391 436 pd \$0-spec;
#X obj 702 515 s pd-\$0-spec;
#X obj 702 408 route 0;
#X obj 702 429 symbol lin;
#X text 719 321 High \, low value;
#X obj 393 339 - \$1;
#X obj 393 360 /;
#X obj 531 352 -;
#X obj 530 329 \$2;
#X obj 557 329 \$1;
#X text 433 318 incoming range (within -1 -> 1);
#X obj 95 352 outlet;
#X obj 94 211 inlet;
#X text 90 191 incoming value clipped within -1 to 1;
#X obj 393 172 t b b b;
#X msg 701 476 obj 50 100 spec-map-\$1 \$2 \$3 \, connect 0 0 2 0 \,
connect 2 0 1 0;
#X obj 654 296 t b b b;
#X obj 702 387 list append \$5;
#X obj 702 450 list append \$3 \$4;
#X obj 95 258 * 512;
#X obj 95 281 + 1;
#X obj 389 498 array define -yrange 0 2 \$0-lookup 1026;
#X msg 393 193 1026;
#X obj 94 232 - 1;
#X connect 0 0 20 0;
#X connect 1 0 2 0;
#X connect 2 0 3 0;
#X connect 2 0 6 0;
#X connect 3 0 2 1;
#X connect 4 0 5 0;
#X connect 5 0 14 0;
#X connect 6 0 4 0;
#X connect 6 1 7 1;
#X connect 8 0 23 0;
#X connect 9 0 7 0;
#X connect 11 0 12 0;
#X connect 11 1 27 0;
#X connect 12 0 27 0;
#X connect 14 0 15 0;
#X connect 15 0 9 0;
#X connect 16 0 15 1;
#X connect 17 0 16 0;
#X connect 18 0 16 1;
#X connect 21 0 32 0;
#X connect 23 0 31 0;
#X connect 23 2 25 0;
#X connect 24 0 10 0;
#X connect 25 0 17 0;
#X connect 25 1 18 0;
#X connect 25 2 26 0;
#X connect 26 0 11 0;
#X connect 27 0 24 0;
#X connect 28 0 29 0;
#X connect 29 0 0 0;
#X connect 31 0 1 0;
#X connect 32 0 28 0;
