#N canvas 653 45 450 300 10;
#X obj 51 152 *;
#X obj 51 173 +;
#X obj 100 71 loadbang;
#X obj 100 92 t b b;
#X obj 100 155 -;
#X obj 49 74 inlet;
#X obj 51 194 outlet;
#X obj 99 117 \$2;
#X obj 126 117 \$1;
#X connect 0 0 1 0;
#X connect 1 0 6 0;
#X connect 2 0 3 0;
#X connect 3 0 7 0;
#X connect 3 1 8 0;
#X connect 4 0 0 1;
#X connect 5 0 0 0;
#X connect 7 0 4 0;
#X connect 8 0 4 1;
#X connect 8 0 1 1;
