#N canvas 0 23 450 300 10;
#X obj 418 130 soundfiler;
#X obj 419 43 openpanel;
#X obj 107 120 bng 15 250 50 0 empty empty load 17 7 0 10 -262144 -1
-1;
#X obj 419 65 list append \$1;
#X obj 208 210 outlet;
#X floatatom 105 139 10 0 0 0 - - -;
#X msg 419 107 read -resize \$1 \$2;
#X obj 395 202 v testtable-\$1;
#X obj 417 12 inlet;
#X obj 509 190 outlet;
#X obj 535 84 array define \$1;
#X connect 0 0 4 0;
#X connect 0 0 5 0;
#X connect 0 0 7 0;
#X connect 1 0 3 0;
#X connect 1 0 9 0;
#X connect 2 0 1 0;
#X connect 3 0 6 0;
#X connect 6 0 0 0;
#X connect 8 0 3 0;
#X coords 0 -1 1 1 85 60 1 100 100;
