#N canvas 584 44 616 608 10;
#X obj 75 187 list split 1;
#X obj 205 187 list;
#X obj 77 210 t b f;
#X obj 77 231 delay 100;
#X text 71 23 The first numbers in a stream of multitouch messages
(separated by 0) defines the number of touches for the current message
\, and filters out all other messages;
#X text 199 65 The first zero resets. The first 1 sets current gesture
to be a 1-touch gesture \, and the 2 gets filtered out;
#X obj 75 151 t a b;
#X msg 89 445 foo 3 \, foo 3 \,;
#X msg 89 424 add2 \$1 \$2 \, addcomma;
#X msg 109 398 set;
#X msg 75 70 0 1 1 1 2 1 1 1 1;
#X obj 77 374 trill-multitouch-filter foo 101;
#X text 195 115 3-finger touches acts as a oneshot message - only one
is passed through;
#X msg 83 100 0 3 3 3 3 3 3 0 3 3 3 3 0;
#X text 286 376 2nd argument is timeout to reset gesture;
#X connect 0 0 2 0;
#X connect 0 1 1 1;
#X connect 1 0 0 0;
#X connect 2 0 3 0;
#X connect 2 1 11 0;
#X connect 3 0 1 0;
#X connect 6 0 0 0;
#X connect 6 1 9 0;
#X connect 8 0 7 0;
#X connect 9 0 7 0;
#X connect 10 0 6 0;
#X connect 11 0 8 0;
#X connect 13 0 6 0;
