#N canvas 677 270 616 608 10;
#X obj 39 453 outlet;
#X obj 36 14 inlet;
#X obj 38 422 list prepend \$1;
#X obj 92 191 ==;
#X obj 35 49 sel 0;
#N canvas 0 23 450 300 once 0;
#X obj 152 37 inlet;
#X obj 152 58 spigot 1;
#X obj 151 78 t a b;
#X obj 151 99 outlet;
#X msg 234 71 0;
#X obj 261 28 inlet;
#X msg 261 49 1;
#X connect 0 0 1 0;
#X connect 1 0 2 0;
#X connect 2 0 3 0;
#X connect 2 1 4 0;
#X connect 4 0 1 1;
#X connect 5 0 6 0;
#X connect 6 0 1 1;
#X restore 112 169 pd once;
#X obj 36 266 spigot;
#X obj 73 106 t a a a b;
#X msg 157 88 stop;
#X obj 36 287 t a a;
#X obj 62 308 sel 3;
#X text 108 309 3-finger messages is a oneshot;
#X msg 160 272 -1;
#X obj 154 126 delay \$2;
#X connect 1 0 4 0;
#X connect 2 0 0 0;
#X connect 3 0 6 1;
#X connect 4 0 8 0;
#X connect 4 0 5 1;
#X connect 4 1 7 0;
#X connect 5 0 3 1;
#X connect 6 0 9 0;
#X connect 7 0 6 0;
#X connect 7 1 3 0;
#X connect 7 2 5 0;
#X connect 7 3 13 0;
#X connect 8 0 13 0;
#X connect 9 0 2 0;
#X connect 9 1 10 0;
#X connect 10 0 12 0;
#X connect 12 0 3 1;
#X connect 13 0 5 1;
