#N canvas 584 44 616 432 10;
#X obj 64 98 list split 1;
#X obj 64 119 change;
#X obj 37 78 t a a b;
#X msg 64 251 1;
#X obj 91 158 t b b;
#X msg 119 251 0;
#X obj 64 138 sel 0;
#X obj 39 343 outlet;
#X obj 36 54 inlet;
#X obj 38 291 spigot 1;
#X obj 38 312 list append \$1;
#N canvas 0 23 450 300 once 0;
#X obj 152 37 inlet;
#X obj 152 58 spigot 1;
#X obj 151 78 t a b;
#X obj 151 99 outlet;
#X msg 234 71 0;
#X obj 261 28 inlet;
#X msg 261 49 1;
#X connect 0 0 1 0;
#X connect 1 0 2 0;
#X connect 2 0 3 0;
#X connect 2 1 4 0;
#X connect 4 0 1 1;
#X connect 5 0 6 0;
#X connect 6 0 1 1;
#X restore 89 219 pd once;
#X text 144 218 Reset after first delay or 0;
#X msg 42 170 stop;
#X text 155 177 Delay time;
#X obj 90 178 delay \$2;
#X connect 0 0 1 0;
#X connect 1 0 6 0;
#X connect 2 0 9 0;
#X connect 2 1 0 0;
#X connect 3 0 9 1;
#X connect 4 0 15 0;
#X connect 4 1 5 0;
#X connect 5 0 9 1;
#X connect 6 0 3 0;
#X connect 6 0 11 1;
#X connect 6 0 13 0;
#X connect 6 1 4 0;
#X connect 8 0 2 0;
#X connect 9 0 10 0;
#X connect 10 0 7 0;
#X connect 11 0 3 0;
#X connect 13 0 15 0;
#X connect 15 0 11 0;
