#N canvas 584 44 616 608 10;
#X obj 64 119 change;
#X obj 37 78 t a a b;
#X msg 64 251 1;
#X msg 119 251 0;
#X obj 39 453 outlet;
#X obj 36 54 inlet;
#X obj 38 291 spigot 1;
#N canvas 0 23 450 300 once 0;
#X obj 152 37 inlet;
#X obj 152 58 spigot 1;
#X obj 151 78 t a b;
#X obj 151 99 outlet;
#X msg 234 71 0;
#X obj 261 28 inlet;
#X msg 261 49 1;
#X connect 0 0 1 0;
#X connect 1 0 2 0;
#X connect 2 0 3 0;
#X connect 2 1 4 0;
#X connect 4 0 1 1;
#X connect 5 0 6 0;
#X connect 6 0 1 1;
#X restore 89 219 pd once;
#X text 144 218 Reset after first delay or 0;
#X msg 42 170 stop;
#X text 155 177 Delay time;
#X obj 90 178 delay \$2;
#X obj 91 158 t b b b;
#X obj 8 114 t a a;
#X obj 64 138 sel 0;
#X obj 38 312 t a a;
#X obj 63 331 sel 3;
#X text 105 330 3-finger touch: only send first message;
#X obj 38 422 list prepend \$1;
#X obj 36 381 route 0;
#X connect 0 0 14 0;
#X connect 1 0 13 0;
#X connect 1 1 0 0;
#X connect 2 0 6 1;
#X connect 3 0 6 1;
#X connect 5 0 1 0;
#X connect 6 0 15 0;
#X connect 7 0 2 0;
#X connect 9 0 11 0;
#X connect 11 0 7 0;
#X connect 12 0 11 0;
#X connect 12 1 3 0;
#X connect 13 1 6 0;
#X connect 14 0 2 0;
#X connect 14 0 7 1;
#X connect 14 0 9 0;
#X connect 14 1 12 0;
#X connect 15 0 19 0;
#X connect 15 1 16 0;
#X connect 16 0 3 0;
#X connect 18 0 4 0;
#X connect 19 1 18 0;
