#N canvas 677 270 616 608 10;
#X obj 39 573 outlet;
#X obj 34 1 inlet;
#X obj 38 542 list prepend \$1;
#X obj 92 281 ==;
#X obj 35 49 sel 0;
#X obj 36 356 spigot;
#X obj 73 106 t a a a b;
#X msg 157 88 stop;
#X obj 36 377 t a a;
#X obj 62 398 sel 3;
#X text 108 399 3-finger messages is a oneshot;
#X msg 160 362 -1;
#X obj 153 122 delay \$2;
#X obj 34 23 list split 1;
#X obj 36 472 list append;
#X obj 35 427 route 0;
#X floatatom 272 260 5 0 0 0 - - -;
#N canvas 0 23 450 300 wait 0;
#X obj 114 2 inlet;
#X obj 152 58 spigot 1;
#X obj 151 78 t a b;
#X obj 150 208 outlet;
#X msg 234 71 0;
#X obj 261 28 inlet;
#X msg 261 49 1;
#X obj 150 174 f;
#X msg 264 87 stop;
#X obj 112 23 t a a;
#X obj 95 123 max;
#X obj 126 123 f;
#X msg 110 100 0;
#X obj 179 138 delay 50;
#X connect 0 0 9 0;
#X connect 1 0 2 0;
#X connect 2 1 4 0;
#X connect 2 1 13 0;
#X connect 4 0 1 1;
#X connect 5 0 6 0;
#X connect 5 0 12 0;
#X connect 6 0 1 1;
#X connect 6 0 8 0;
#X connect 7 0 3 0;
#X connect 8 0 13 0;
#X connect 9 0 10 0;
#X connect 9 1 1 0;
#X connect 10 0 11 0;
#X connect 10 0 7 1;
#X connect 11 0 10 1;
#X connect 12 0 10 1;
#X connect 13 0 7 0;
#X restore 106 215 pd wait 50 ms for multitouch to settle and pass
on largest number;
#X connect 1 0 13 0;
#X connect 2 0 0 0;
#X connect 3 0 5 1;
#X connect 4 0 7 0;
#X connect 4 0 17 1;
#X connect 4 1 6 0;
#X connect 5 0 8 0;
#X connect 6 0 5 0;
#X connect 6 1 3 0;
#X connect 6 2 17 0;
#X connect 6 3 12 0;
#X connect 7 0 12 0;
#X connect 8 0 15 0;
#X connect 8 1 9 0;
#X connect 9 0 11 0;
#X connect 11 0 3 1;
#X connect 12 0 17 1;
#X connect 13 0 4 0;
#X connect 13 1 14 1;
#X connect 14 0 2 0;
#X connect 15 1 14 0;
#X connect 17 0 3 1;
