#N canvas 262 108 450 300 10;
#X obj 127 21 inlet;
#X obj 127 82 mux-spigot;
#X obj 235 18 inlet;
#X obj 127 127 route 1;
#X obj 127 148 outlet;
#X obj 126 104 route \$1;
#X connect 0 0 1 0;
#X connect 1 0 5 0;
#X connect 2 0 1 1;
#X connect 3 0 4 0;
#X connect 5 0 3 0;
