#N canvas 529 263 601 317 10;
#X obj 64 29 inlet;
#X obj 64 50 route trill \$1;
#X obj 63 229 spigot;
#X msg 98 94 1, f 2;
#X obj 64 139 t a a a;
#X obj 123 229 spigot;
#X obj 193 229 spigot;
#X msg 114 114 0;
#X msg 160 96 1;
#X msg 188 116 0;
#X msg 228 93 1;
#X msg 245 113 0;
#X obj 65 264 outlet;
#X obj 124 264 outlet;
#X obj 194 260 outlet;
#X obj 104 70 route \$2 \$3 \$4;
#X obj 323 63 outlet;
#X connect 0 0 1 0;
#X connect 1 0 4 0;
#X connect 1 1 15 0;
#X connect 1 2 16 0;
#X connect 2 0 12 0;
#X connect 3 0 2 1;
#X connect 4 0 2 0;
#X connect 4 1 5 0;
#X connect 4 2 6 0;
#X connect 5 0 13 0;
#X connect 6 0 14 0;
#X connect 7 0 5 1;
#X connect 7 0 6 1;
#X connect 8 0 5 1;
#X connect 9 0 2 1;
#X connect 9 0 6 1;
#X connect 10 0 6 1;
#X connect 11 0 2 1;
#X connect 11 0 5 1;
#X connect 15 0 3 0;
#X connect 15 0 7 0;
#X connect 15 1 8 0;
#X connect 15 1 9 0;
#X connect 15 2 10 0;
#X connect 15 2 11 0;
