#N canvas 529 263 803 345 10;
#X obj 52 110 trill-router btn_keyUp short long double;
#X obj 52 36 loadbang;
#X obj 52 57 metro 1000;
#X obj 154 63 list prepend btn_keyUp;
#X obj 154 84 list trim;
#X obj 52 131 bng 15 250 50 0 empty empty empty 17 7 0 10 -262144 -1
-1;
#X obj 130 130 bng 15 250 50 0 empty empty empty 17 7 0 10 -262144
-1 -1;
#X obj 210 130 bng 15 250 50 0 empty empty empty 17 7 0 10 -262144
-1 -1;
#X msg 154 42 short;
#X msg 51 80 trill msg;
#X msg 198 41 long;
#X msg 235 41 double;
#X obj 402 107 button-gestures;
#X text 328 106 also see;
#X text 328 67 Route Trill data (everything prepended with trill) to
3 places according to a button (\$1) and its messages (\$2 \, \$3 \,
\$4);
#X obj 289 134 print unhandled;
#X msg 26 16 foo;
#X connect 0 0 5 0;
#X connect 0 1 6 0;
#X connect 0 2 7 0;
#X connect 0 3 15 0;
#X connect 1 0 2 0;
#X connect 2 0 9 0;
#X connect 3 0 4 0;
#X connect 4 0 0 0;
#X connect 8 0 3 0;
#X connect 9 0 0 0;
#X connect 10 0 3 0;
#X connect 11 0 3 0;
#X connect 16 0 0 0;
