#N canvas 476 122 885 602 10;
#X obj 105 45 inlet~;
#X obj 109 550 *~;
#X obj 109 574 outlet~;
#X obj 329 316 f;
#X obj 437 355 t b f;
#X obj 330 398 * 1;
#X obj 437 332 r \$1-mute;
#X text 507 332 global mute;
#X obj 328 448 liner~ 10;
#X obj 124 368 *~;
#X text 149 365 ampmod;
#X obj 139 249 r \$1-ampmod;
#X obj 471 6 inlet;
#X obj 635 418 outlet;
#X obj 470 79 list split 1;
#X obj 123 222 catch~ amp-amp-\$2;
#X obj 463 375 swap 1;
#X obj 463 396 -;
#X obj 471 52 route 1 2 3;
#X obj 471 31 route amp-\$2;
#X obj 383 120 param amp-\$2 \$1;
#X obj 470 100 t a a;
#X msg 257 106 \$1 \$3;
#X text 179 65 TODO 2-touch -> ampmod;
#X text 642 154 TODO 3-touch -> IMU mod;
#X obj 153 130 param ampmod-\$2 \$1;
#X obj 603 87 t b;
#X obj 631 107 + 1;
#X obj 659 105 % 2;
#X obj 603 108 0;
#X obj 659 137 tgl 15 0 empty empty empty 17 7 0 10 -262144 -1 -1 0
1;
#X obj 595 156 print;
#X obj 684 70 param imumod-\$2 \$1;
#X connect 0 0 1 0;
#X connect 1 0 2 0;
#X connect 3 0 5 0;
#X connect 4 0 3 0;
#X connect 4 1 16 0;
#X connect 5 0 8 0;
#X connect 6 0 4 0;
#X connect 8 0 1 1;
#X connect 11 0 9 1;
#X connect 12 0 19 0;
#X connect 14 0 21 0;
#X connect 15 0 9 0;
#X connect 16 0 17 0;
#X connect 16 1 17 1;
#X connect 17 0 5 1;
#X connect 18 0 14 0;
#X connect 18 1 22 0;
#X connect 18 2 26 0;
#X connect 19 0 18 0;
#X connect 19 1 13 0;
#X connect 20 0 3 0;
#X connect 21 0 20 1;
#X connect 21 0 3 0;
#X connect 22 0 25 1;
#X connect 26 0 29 0;
#X connect 27 0 28 0;
#X connect 28 0 29 1;
#X connect 28 0 30 0;
#X connect 28 0 32 1;
#X connect 29 0 27 0;
#X connect 32 0 28 0;
