#N canvas 562 23 450 402 12;
#X obj 105 45 inlet~;
#X obj 109 270 *~;
#X obj 109 294 outlet~;
#X obj 123 174 f;
#X obj 234 162 t b f;
#X obj 128 228 liner~;
#X obj 127 203 * 1;
#X obj 235 140 inlet mute;
#X obj 122 144 inlet vol;
#X connect 0 0 1 0;
#X connect 1 0 2 0;
#X connect 3 0 6 0;
#X connect 4 0 3 0;
#X connect 4 1 6 1;
#X connect 5 0 1 1;
#X connect 6 0 5 0;
#X connect 7 0 4 0;
#X connect 8 0 3 0;
