#N canvas 262 161 995 584 10;
#X declare -path ../rj;
#X obj 30 11 inlet~;
#X obj 30 183 outlet~;
#X obj 429 12 inlet;
#X obj 533 23 declare -path ../rj;
#X obj 30 149 volume~ \$0 1;
#X obj 585 140 u_dispatch \$0 mute;
#X obj 120 41 inlet~;
#X obj 120 213 outlet~;
#X obj 210 71 inlet~;
#X obj 210 243 outlet~;
#X obj 310 101 inlet~;
#X obj 310 273 outlet~;
#X obj 120 179 volume~ \$0 2;
#X obj 210 209 volume~ \$0 3;
#X obj 310 239 volume~ \$0 4;
#X obj 590 73 outlet;
#X obj 736 220 u_loader volume \$0;
#X obj 429 60 route bar1;
#X obj 744 105 u_dispatch \$0 ampmod;
#X obj 429 111 s \$0-ampmod;
#X obj 469 140 route bar1;
#X obj 469 230 s \$0-ampmodlag;
#X obj 429 81 list split 1;
#X msg 470 161 \$1 \$3;
#X obj 470 182 -;
#X obj 470 203 abs;
#X obj 429 38 route mod modlag amp volume;
#X connect 0 0 4 0;
#X connect 2 0 26 0;
#X connect 4 0 1 0;
#X connect 4 1 12 1;
#X connect 6 0 12 0;
#X connect 8 0 13 0;
#X connect 10 0 14 0;
#X connect 12 0 7 0;
#X connect 12 1 13 1;
#X connect 13 0 9 0;
#X connect 13 1 14 1;
#X connect 14 0 11 0;
#X connect 17 0 22 0;
#X connect 20 0 23 0;
#X connect 22 0 19 0;
#X connect 23 0 24 0;
#X connect 24 0 25 0;
#X connect 25 0 21 0;
#X connect 26 0 17 0;
#X connect 26 1 20 0;
#X connect 26 2 4 1;
#X connect 26 3 5 0;
#X connect 26 4 15 0;
