#N canvas 423 150 741 602 10;
#X obj 105 45 inlet~;
#X obj 109 550 *~;
#X obj 109 574 outlet~;
#X obj 329 316 f;
#X obj 437 355 t b f;
#X obj 330 398 * 1;
#X obj 437 332 r \$1-mute;
#X text 507 332 global mute;
#X obj 328 448 liner~ 10;
#X obj 124 368 *~;
#X text 149 365 ampmod;
#X obj 139 249 r \$1-ampmod;
#X obj 173 383 r \$1-ampmodlag;
#X obj 128 487 lop~ 100;
#X obj 173 467 pow;
#X text 216 423 0.01 -> 100;
#X obj 471 56 inlet;
#X obj 635 418 outlet;
#X obj 471 102 list split 1;
#X obj 471 81 route bar\$2;
#X obj 123 222 catch~ amp-amp-\$2;
#X obj 185 162 catch~ pitch-amp-\$2;
#X obj 188 198 catch~ osc-amp-\$2;
#X obj 173 446 swap 10;
#X obj 173 404 * 4;
#X obj 173 425 - 2;
#X connect 0 0 1 0;
#X connect 1 0 2 0;
#X connect 3 0 5 0;
#X connect 4 0 3 0;
#X connect 4 1 5 1;
#X connect 5 0 8 0;
#X connect 6 0 4 0;
#X connect 8 0 1 1;
#X connect 9 0 13 0;
#X connect 11 0 9 1;
#X connect 12 0 24 0;
#X connect 13 0 1 1;
#X connect 14 0 13 1;
#X connect 16 0 19 0;
#X connect 18 0 3 0;
#X connect 19 0 18 0;
#X connect 19 1 17 0;
#X connect 20 0 9 0;
#X connect 23 0 14 0;
#X connect 23 1 14 1;
#X connect 24 0 25 0;
#X connect 25 0 23 0;
