#N canvas 351 49 995 584 10;
#X declare -path ../rj;
#X obj 30 11 inlet~;
#X obj 30 183 outlet~;
#X obj 429 12 inlet;
#X obj 533 23 declare -path ../rj;
#X obj 30 149 volume~ \$0 1;
#X obj 429 78 u_dispatch \$0 ampmod-mute;
#X obj 429 99 u_dispatch \$0 ampmod-offset;
#X obj 429 120 u_dispatch \$0 mute;
#X obj 120 41 inlet~;
#X obj 120 213 outlet~;
#X obj 210 71 inlet~;
#X obj 210 243 outlet~;
#X obj 310 101 inlet~;
#X obj 310 273 outlet~;
#X obj 120 179 volume~ \$0 2;
#X obj 210 209 volume~ \$0 3;
#X obj 310 239 volume~ \$0 4;
#X obj 428 278 outlet;
#X connect 0 0 4 0;
#X connect 2 0 5 0;
#X connect 4 0 1 0;
#X connect 4 1 14 1;
#X connect 5 0 6 0;
#X connect 6 0 7 0;
#X connect 7 0 4 1;
#X connect 8 0 14 0;
#X connect 10 0 15 0;
#X connect 12 0 16 0;
#X connect 14 0 9 0;
#X connect 14 1 15 1;
#X connect 15 0 11 0;
#X connect 15 1 16 1;
#X connect 16 0 13 0;
#X connect 16 1 17 0;
