#N canvas 454 144 606 638 10;
#X declare -path ../abs -path ../rj;
#X obj 94 19 inlet;
#N canvas 0 23 450 300 guts 0;
#X obj 37 37 inlet;
#X obj 37 230 outlet;
#X obj 37 60 route on off bar1 bar2 bar3 bar4;
#X obj 100 82 route 1 2;
#X connect 0 0 2 0;
#X connect 2 2 3 0;
#X restore 94 43 pd guts;
#X obj 94 67 outlet;
#X obj 239 20 inlet~;
#X obj 299 20 inlet~;
#X obj 362 19 inlet~;
#X obj 424 19 inlet~;
#X obj 238 319 outlet~;
#X obj 316 317 outlet~;
#X obj 8 589 declare -path ../abs -path ../rj;
#X obj 8 565 u_loader patch-0 \$0;
#X obj 239 72 volume~;
#X obj 300 72 volume~;
#X obj 363 70 volume~;
#X obj 424 70 volume~;
#N canvas 0 23 450 300 nop 0;
#X obj 226 83 inlet~;
#X obj 226 104 outlet~;
#X connect 0 0 1 0;
#X restore 240 282 pd nop;
#X text 23 118 Basic patch;
#X connect 0 0 1 0;
#X connect 1 0 2 0;
#X connect 3 0 11 0;
#X connect 4 0 12 0;
#X connect 5 0 13 0;
#X connect 6 0 14 0;
#X connect 11 0 15 0;
#X connect 12 0 15 0;
#X connect 13 0 15 0;
#X connect 14 0 15 0;
#X connect 15 0 7 0;
#X connect 15 0 8 0;
