#N canvas 148 52 606 638 12;
#X obj 94 19 inlet;
#N canvas 0 23 450 300 guts 0;
#X obj 37 37 inlet;
#X obj 37 230 outlet;
#X obj 163 178;
#X obj 169 69 print incoming_test1;
#X obj 41 201 pdcontrol;
#X msg 49 172 args 1;
#X obj 49 142 metro 1000;
#X obj 31 114 loadbang;
#X connect 0 0 3 0;
#X connect 4 0 1 0;
#X connect 5 0 4 0;
#X connect 6 0 5 0;
#X connect 7 0 6 0;
#X restore 94 43 pd guts;
#X obj 94 67 outlet;
#X obj 239 20 inlet~;
#X obj 299 20 inlet~;
#X obj 361 19 inlet~;
#X obj 421 19 inlet~;
#X obj 238 589 outlet~;
#X obj 316 587 outlet~;
#X connect 0 0 1 0;
#X connect 1 0 2 0;
