#N canvas 156 145 1058 733 10;
#X declare -path abs -path rj -path patches;
#X obj 16 4 loadbang;
#X obj 22 262 list;
#X obj 22 291 print bar1-4;
#X obj 46 102 bar bar1;
#X obj 105 102 bar bar2;
#X obj 165 102 bar bar3;
#X obj 227 102 bar bar4;
#X obj 16 33 t a a a;
#X obj 42 160 pack 0 0 0 0;
#X obj 105 131 t b a;
#X obj 165 131 t b a;
#X obj 227 131 t b a;
#X obj 166 49 % 2;
#X obj 199 209 dac~ 27 28 29 30;
#X text 196 224 scope;
#X obj 22 233 metro 1000;
#X obj 11 520 r bela_trill;
#X obj 12 589 print bela_trill;
#X obj 15 543 route bar3;
#X obj 5 372 metro 1000;
#X obj 47 394 f;
#X obj 50 420 print YAW;
#X obj 59 334 r bno_yaw;
#N canvas 0 23 726 379 IMU-calibration 0;
#X obj 451 40 r bno_calibrated;
#X obj 340 67 u_sssad calibration;
#X obj 340 87 list prepend loadCalibration;
#X obj 340 108 list trim;
#X obj 341 173 s bno;
#X text 178 70 Save & load calibration;
#X obj 59 28 r button_small;
#X msg 59 50 calibrate;
#X text 159 30 FIXME - ska inte styras direkt från knapp;
#X connect 0 0 1 1;
#X connect 1 0 2 0;
#X connect 2 0 3 0;
#X connect 3 0 4 0;
#X connect 6 0 7 0;
#X connect 7 0 4 0;
#X restore 811 169 pd IMU-calibration;
#N canvas 120 374 913 408 initTrillDigital 0;
#X obj 112 23 inlet;
#X msg 133 65 new bar1 1 BAR 32 \, new bar2 1 BAR 33 \, new bar3 1
BAR 34 \, new bar4 1 BAR 35;
#X obj 133 193 s bela_setTrill;
#X obj 227 100 r bela_trillCreated;
#X obj 477 217 s bela_setDigital;
#X msg 476 141 out 19 \, out 20 \, out 22;
#X text 624 138 LED R/G/B;
#X obj 492 271 digDebug 11;
#X obj 492 291 digDebug 12;
#X obj 572 271 digDebug 13;
#X obj 572 291 digDebug 14;
#X obj 490 311 digDebug 15;
#X obj 491 331 digDebug 16;
#X obj 571 311 digDebug 23;
#X obj 571 331 digDebug 26;
#X obj 571 351 digDebug 24;
#X obj 122 44 t b b b b;
#X msg 499 166 in 16 \, in 23 \, in 24 \, in 26;
#X msg 260 238 \; DEBUG 0;
#X obj 224 129 list;
#X msg 224 161 prescaler \$1 2 \, threshold \$1 0.05;
#X connect 0 0 16 0;
#X connect 1 0 2 0;
#X connect 3 0 19 0;
#X connect 5 0 4 0;
#X connect 16 0 1 0;
#X connect 16 1 5 0;
#X connect 16 2 17 0;
#X connect 16 3 18 0;
#X connect 17 0 4 0;
#X connect 19 0 20 0;
#X connect 20 0 2 0;
#X restore -19 73 pd initTrillDigital;
#X obj 811 12 declare -path abs -path rj -path patches;
#N canvas 659 55 781 500 parameters 1;
#X obj 245 437 outlet;
#X obj 88 62 loadbang;
#X obj 557 49 r RJ_SCENE;
#X obj 557 76 print RJ_SCENE;
#X obj 559 20 u_loader main \$0;
#X text 383 64 Patch selection;
#X text 383 94 Preamp for strings;
#X msg 40 49 save;
#X msg 88 84 load;
#N canvas 0 23 450 300 loadSave 0;
#X obj 212 75 r RJ_SCENE;
#X msg 92 165 clear;
#X obj 437 223 s RJ_SCENE_LOAD;
#X obj 45 237 textfile;
#X obj 212 101 list prepend add;
#X obj 212 129 list trim;
#X msg 45 129 write settings.txt;
#X obj 437 183 textfile;
#X obj 437 123 until;
#X msg 482 150 read \$1 \, rewind;
#X obj 437 99 t b a;
#X msg 437 75 symbol settings.txt;
#X obj 45 -18 inlet;
#X obj 45 6 route save load;
#X msg 69 69 save;
#X obj 69 93 s RJ_SCENE_SAVE;
#X obj 45 30 t b b b;
#X text 438 25 Messages: save get all parameters and store to disk
load load all parameters from disk;
#X connect 0 0 4 0;
#X connect 1 0 3 0;
#X connect 4 0 5 0;
#X connect 5 0 3 0;
#X connect 6 0 3 0;
#X connect 7 0 2 0;
#X connect 7 1 8 1;
#X connect 8 0 7 0;
#X connect 9 0 7 0;
#X connect 10 0 8 0;
#X connect 10 1 9 0;
#X connect 11 0 10 0;
#X connect 12 0 13 0;
#X connect 13 0 16 0;
#X connect 13 1 11 0;
#X connect 14 0 15 0;
#X connect 16 0 6 0;
#X connect 16 1 14 0;
#X connect 16 2 1 0;
#X restore 88 113 pd loadSave;
#X obj 40 24 r closebang;
#X text 36 1 todo: implement save-on-close;
#X obj 112 259 r bela_trill;
#X obj 112 282 list prepend trill;
#X obj 113 303 list trim;
#X text 272 262 comment;
#X connect 1 0 8 0;
#X connect 2 0 3 0;
#X connect 7 0 9 0;
#X connect 8 0 9 0;
#X connect 10 0 7 0;
#X connect 12 0 13 0;
#X connect 13 0 14 0;
#X connect 14 0 0 0;
#X restore 609 23 pd parameters;
#N canvas 437 178 1003 628 pre 0;
#X obj 107 29 inlet~;
#X obj 107 441 outlet~;
#X obj 157 441 outlet~;
#X obj 207 441 outlet~;
#X obj 257 441 outlet~;
#X obj 663 238 inlet;
#X obj 571 343 outlet;
#X obj 257 420 *~;
#X obj 207 420 *~;
#X obj 157 420 *~;
#X obj 107 420 *~;
#X obj 122 366 liner~;
#X obj 172 375 liner~;
#X obj 222 385 liner~;
#X obj 272 395 liner~;
#X obj 327 314 route preamp-c preamp-g preamp-d preamp-g;
#X obj 217 29 inlet~;
#X obj 347 29 inlet~;
#X obj 477 29 inlet~;
#X connect 0 0 10 0;
#X connect 5 0 15 0;
#X connect 7 0 4 0;
#X connect 8 0 3 0;
#X connect 9 0 2 0;
#X connect 10 0 1 0;
#X connect 11 0 10 1;
#X connect 12 0 9 1;
#X connect 13 0 8 1;
#X connect 14 0 7 1;
#X connect 15 0 11 0;
#X connect 15 1 12 0;
#X connect 15 2 13 0;
#X connect 15 3 14 0;
#X connect 15 4 6 0;
#X connect 16 0 9 0;
#X connect 17 0 8 0;
#X connect 18 0 7 0;
#X restore 386 118 pd pre;
#X f 38;
#N canvas 0 23 858 301 post 0;
#X obj 88 28 inlet~;
#X obj 225 27 inlet~;
#X obj 88 189 outlet~;
#X obj 225 188 outlet~;
#X obj 775 26 inlet;
#X obj 775 185 outlet;
#X obj 328 28 inlet~;
#X obj 465 27 inlet~;
#X connect 0 0 2 0;
#X connect 1 0 3 0;
#X connect 4 0 5 0;
#X restore 386 263 pd post;
#X f 38;
#X obj 382 309 dac~, f 11;
#X obj 387 77 adc~ 1 2 3 4, f 27;
#N canvas 428 325 774 502 menu 0;
#X obj 239 170 menu-item 1;
#X obj 117 25 inlet buttons;
#N canvas 455 61 450 300 setup 0;
#X obj 66 25 inlet;
#X obj 266 42 inlet;
#X obj 198 106 menu-item 1;
#X obj 256 136 menu-item 2;
#N canvas 0 474 450 300 calibration 0;
#X obj 110 31 inlet;
#X restore 48 111 pd calibration;
#X obj 66 76 menu-item 0 btn_small/short 3;
#X connect 0 0 5 0;
#X connect 1 0 5 1;
#X connect 2 2 3 0;
#X connect 2 3 3 1;
#X connect 5 0 4 0;
#X connect 5 2 2 0;
#X connect 5 3 2 1;
#X restore 116 167 pd setup;
#X obj 116 138 menu-item 0 switch 2;
#X obj 209 84 tgl 15 0 empty empty empty 17 7 0 10 -262144 -1 -1 0
1;
#X msg 213 108 switch \$1;
#X obj 239 196 route menu;
#X obj 239 354 list prepend patch;
#X text 316 197 on/off message;
#X obj 239 378 list trim;
#X obj 239 399 print;
#X obj 116 53 t a a;
#X obj 535 387 outlet;
#X msg 239 80 btn_small short;
#X text 383 263 reset to first patch on long press;
#X obj 533 86 t a;
#X msg 295 261 next;
#X obj 296 240 route single long;
#X obj 296 219 route btn_small;
#X connect 0 0 6 0;
#X connect 1 0 11 0;
#X connect 3 0 2 0;
#X connect 3 1 2 1;
#X connect 3 2 0 0;
#X connect 3 3 0 1;
#X connect 4 0 5 0;
#X connect 5 0 3 0;
#X connect 6 0 7 0;
#X connect 6 1 18 0;
#X connect 7 0 9 0;
#X connect 9 0 10 0;
#X connect 9 0 12 0;
#X connect 11 0 3 0;
#X connect 11 1 15 0;
#X connect 13 0 3 0;
#X connect 15 0 12 0;
#X connect 16 0 7 0;
#X connect 17 0 16 0;
#X connect 17 1 7 0;
#X connect 18 0 17 0;
#X connect 18 1 7 0;
#X restore 608 85 pd menu;
#N canvas 583 180 450 300 netsend 0;
#X obj 157 32 inlet;
#X obj 153 170 list prepend send;
#X obj 153 191 list trim;
#X obj 208 63 loadbang;
#X msg 208 84 connect 192.168.7.1 3550;
#X obj 153 212 netsend -u;
#X obj 112 64 route trill;
#X msg 404 162 listen 0, f 14;
#X obj 304 187 netreceive -u;
#X msg 308 135 listen 0 \, listen 3550;
#X obj 307 238 outlet;
#X connect 0 0 6 0;
#X connect 1 0 2 0;
#X connect 2 0 5 0;
#X connect 4 0 5 0;
#X connect 6 1 1 0;
#X connect 7 0 8 0;
#X connect 8 0 10 0;
#X connect 9 0 8 0;
#X restore 608 63 pd netsend;
#N canvas 523 246 828 676 digitalRouting 0;
#X obj 129 25 r led_red;
#X obj 129 45 s bela_digitalOut19;
#X obj 129 65 r led_green;
#X obj 129 85 s bela_digitalOut20;
#X obj 129 105 r led_blue;
#X obj 129 125 s bela_digitalOut22;
#X obj 394 340 r bela_digitalIn16;
#X obj 238 320 r bela_digitalIn26;
#X obj 237 172 r bela_digitalIn24;
#X obj 54 180 r bela_digitalIn23;
#X obj 396 401 -;
#X msg 395 381 1 \$1;
#X obj 396 423 list prepend switch;
#X obj 238 409 list prepend btn_keyDn;
#X obj 54 271 list prepend btn_small;
#X obj 630 19 route led;
#X obj 629 -6 inlet;
#X obj 156 487 list trim;
#X obj 683 561 outlet;
#X obj 119 539 print;
#X obj 54 201 debounce 10;
#X obj 237 193 debounce 10;
#X obj 238 341 debounce 10;
#X obj 394 361 debounce 10;
#X obj 53 222 t a a;
#X obj 239 360 t a a;
#X obj 237 212 t a a;
#X obj 236 251 list prepend btn_keyUp;
#X obj 53 241 button-gestures 500;
#X obj 237 231 button-gestures 500 250 1;
#X obj 239 379 button-gestures 500 250 1;
#X obj 305 -8 r led;
#X obj 303 87 s led_red;
#X obj 333 107 s led_green;
#X obj 370 130 s led_blue;
#X obj 304 23 route red green blue blink;
#N canvas 427 275 420 300 blink 0;
#X obj 88 33 inlet;
#X obj 252 37 inlet;
#X obj 87 87 f;
#X obj 254 83 sel 0;
#X obj 87 118 spigot 1;
#X obj 132 96 == 0;
#X obj 207 155 f;
#X obj 246 158 + 1;
#X obj 246 179 % 2;
#X obj 88 54 t f f;
#X obj 206 112 &&;
#X obj 253 63 t a b a;
#X obj 205 92 f;
#X obj 207 137 metro 400;
#X obj 87 193 outlet;
#X connect 0 0 9 0;
#X connect 1 0 11 0;
#X connect 2 0 4 0;
#X connect 3 0 2 0;
#X connect 4 0 14 0;
#X connect 5 0 4 1;
#X connect 6 0 7 0;
#X connect 6 0 14 0;
#X connect 7 0 8 0;
#X connect 8 0 6 1;
#X connect 9 0 2 0;
#X connect 9 1 12 0;
#X connect 10 0 13 0;
#X connect 11 0 3 0;
#X connect 11 1 12 0;
#X connect 11 2 10 1;
#X connect 12 0 10 0;
#X connect 13 0 6 0;
#X restore 302 55 pd blink;
#N canvas 427 275 420 300 blink 0;
#X obj 88 33 inlet;
#X obj 252 37 inlet;
#X obj 87 87 f;
#X obj 254 83 sel 0;
#X obj 87 118 spigot 1;
#X obj 132 96 == 0;
#X obj 207 155 f;
#X obj 246 158 + 1;
#X obj 246 179 % 2;
#X obj 88 54 t f f;
#X obj 206 112 &&;
#X obj 253 63 t a b a;
#X obj 205 92 f;
#X obj 207 137 metro 400;
#X obj 87 193 outlet;
#X connect 0 0 9 0;
#X connect 1 0 11 0;
#X connect 2 0 4 0;
#X connect 3 0 2 0;
#X connect 4 0 14 0;
#X connect 5 0 4 1;
#X connect 6 0 7 0;
#X connect 6 0 14 0;
#X connect 7 0 8 0;
#X connect 8 0 6 1;
#X connect 9 0 2 0;
#X connect 9 1 12 0;
#X connect 10 0 13 0;
#X connect 11 0 3 0;
#X connect 11 1 12 0;
#X connect 11 2 10 1;
#X connect 12 0 10 0;
#X connect 13 0 6 0;
#X restore 362 55 pd blink;
#N canvas 427 275 420 300 blink 0;
#X obj 88 33 inlet;
#X obj 252 37 inlet;
#X obj 87 87 f;
#X obj 254 83 sel 0;
#X obj 87 118 spigot 1;
#X obj 132 96 == 0;
#X obj 207 155 f;
#X obj 246 158 + 1;
#X obj 246 179 % 2;
#X obj 88 54 t f f;
#X obj 206 112 &&;
#X obj 253 63 t a b a;
#X obj 205 92 f;
#X obj 207 137 metro 400;
#X obj 87 193 outlet;
#X connect 0 0 9 0;
#X connect 1 0 11 0;
#X connect 2 0 4 0;
#X connect 3 0 2 0;
#X connect 4 0 14 0;
#X connect 5 0 4 1;
#X connect 6 0 7 0;
#X connect 6 0 14 0;
#X connect 7 0 8 0;
#X connect 8 0 6 1;
#X connect 9 0 2 0;
#X connect 9 1 12 0;
#X connect 10 0 13 0;
#X connect 11 0 3 0;
#X connect 11 1 12 0;
#X connect 11 2 10 1;
#X connect 12 0 10 0;
#X connect 13 0 6 0;
#X restore 412 85 pd blink;
#X msg 184 388 single;
#X connect 0 0 1 0;
#X connect 2 0 3 0;
#X connect 4 0 5 0;
#X connect 6 0 23 0;
#X connect 7 0 22 0;
#X connect 8 0 21 0;
#X connect 9 0 20 0;
#X connect 10 0 12 0;
#X connect 11 0 10 0;
#X connect 12 0 17 0;
#X connect 13 0 17 0;
#X connect 14 0 17 0;
#X connect 15 0 35 0;
#X connect 15 1 18 0;
#X connect 16 0 15 0;
#X connect 17 0 18 0;
#X connect 17 0 19 0;
#X connect 20 0 24 0;
#X connect 21 0 26 0;
#X connect 22 0 25 0;
#X connect 23 0 11 0;
#X connect 24 0 28 0;
#X connect 24 1 14 0;
#X connect 25 0 30 0;
#X connect 25 1 13 0;
#X connect 26 0 29 0;
#X connect 26 1 27 0;
#X connect 27 0 17 0;
#X connect 28 0 14 0;
#X connect 29 0 27 0;
#X connect 30 0 13 0;
#X connect 31 0 35 0;
#X connect 35 0 36 0;
#X connect 35 1 37 0;
#X connect 35 2 38 0;
#X connect 35 3 36 1;
#X connect 35 3 37 1;
#X connect 35 3 38 1;
#X connect 36 0 32 0;
#X connect 37 0 33 0;
#X connect 38 0 34 0;
#X connect 39 0 13 0;
#X restore 608 42 pd digitalRouting;
#N canvas 313 239 767 420 ui 0;
#X obj 155 7 inlet;
#X obj 155 31 route ui;
#X obj 155 54 route number;
#N canvas 367 23 564 451 number 0;
#X obj 125 19 inlet;
#X msg 125 48 \$2 \$1;
#X obj 125 99 route 0 3 4 7;
#X obj 123 151 t f f f;
#X obj 122 172 == 1;
#X msg 125 212 red \$1;
#X msg 145 237 green \$1;
#X msg 168 263 blue \$1;
#X obj 126 298 s led;
#X obj 147 193 == 2;
#X obj 184 193 == 3;
#X obj 22 -6 hradio 15 1 0 8 empty empty empty 0 -8 0 10 -262144 -1
-1 5;
#X obj 19 16 + 1;
#X obj 159 123 - 1;
#X msg 20 45 \$1 7;
#X obj 226 131 & 2;
#X obj 226 150 == 2;
#X obj 194 131 & 1;
#X obj 195 150 == 1;
#X floatatom 229 172 5 0 0 0 - - -;
#X obj 264 131 & 4;
#X obj 265 150 == 4;
#X msg 36 233 blink 0;
#X connect 0 0 1 0;
#X connect 1 0 2 0;
#X connect 2 0 3 0;
#X connect 2 1 3 0;
#X connect 2 2 13 0;
#X connect 2 3 15 0;
#X connect 2 3 17 0;
#X connect 2 3 20 0;
#X connect 3 0 4 0;
#X connect 3 1 9 0;
#X connect 3 2 10 0;
#X connect 4 0 5 0;
#X connect 5 0 8 0;
#X connect 6 0 8 0;
#X connect 7 0 8 0;
#X connect 9 0 6 0;
#X connect 10 0 7 0;
#X connect 11 0 12 0;
#X connect 12 0 14 0;
#X connect 13 0 3 0;
#X connect 14 0 1 0;
#X connect 15 0 16 0;
#X connect 16 0 19 0;
#X connect 16 0 6 0;
#X connect 17 0 18 0;
#X connect 18 0 5 0;
#X connect 20 0 21 0;
#X connect 21 0 7 0;
#X connect 22 0 8 0;
#X restore 156 79 pd number;
#X connect 0 0 1 0;
#X connect 1 0 2 0;
#X connect 2 0 3 0;
#X restore 615 291 pd ui;
#X obj 386 175 freqshift-4~, f 38;
#X obj 386 144 volume-4~, f 38;
#X obj 386 204 delay-4~, f 38;
#X obj 387 232 osc-4~, f 38;
#X msg 686 99 preamp-c 1 \, amp-1 1;
#X connect 0 0 7 0;
#X connect 3 0 8 0;
#X connect 4 0 9 0;
#X connect 5 0 10 0;
#X connect 6 0 11 0;
#X connect 7 0 15 0;
#X connect 7 0 19 0;
#X connect 7 1 8 0;
#X connect 7 2 24 0;
#X connect 8 0 1 1;
#X connect 9 0 8 0;
#X connect 9 1 8 1;
#X connect 10 0 8 0;
#X connect 10 1 8 2;
#X connect 11 0 8 0;
#X connect 11 1 8 3;
#X connect 15 0 1 0;
#X connect 16 0 18 0;
#X connect 19 0 20 0;
#X connect 22 0 20 1;
#X connect 26 0 33 0;
#X connect 27 0 36 0;
#X connect 27 1 36 1;
#X connect 27 2 36 2;
#X connect 27 3 36 3;
#X connect 27 4 36 4;
#X connect 28 0 29 0;
#X connect 28 1 29 1;
#X connect 28 2 34 0;
#X connect 30 0 13 0;
#X connect 30 0 27 0;
#X connect 30 1 27 1;
#X connect 30 2 27 2;
#X connect 30 3 27 3;
#X connect 31 0 27 4;
#X connect 32 0 31 0;
#X connect 33 0 32 0;
#X connect 35 0 37 0;
#X connect 35 1 37 1;
#X connect 35 2 37 2;
#X connect 35 3 37 3;
#X connect 35 4 37 4;
#X connect 36 0 35 0;
#X connect 36 1 35 1;
#X connect 36 2 35 2;
#X connect 36 3 35 3;
#X connect 36 4 35 4;
#X connect 37 0 38 0;
#X connect 37 1 38 1;
#X connect 37 2 38 2;
#X connect 37 3 38 3;
#X connect 37 4 38 4;
#X connect 38 0 28 0;
#X connect 38 1 28 1;
#X connect 38 2 28 2;
#X connect 38 3 28 3;
#X connect 38 4 28 4;
#X connect 39 0 27 4;
