#N canvas 248 73 1058 733 10;
#X declare -path abs -path rj -path patches;
#X obj 16 4 loadbang;
#X obj 22 262 list;
#X obj 16 33 t a a a;
#X obj 42 160 pack 0 0 0 0;
#X obj 166 49 % 2;
#X obj 766 276 dac~ 27 28 29 30;
#X text 196 224 scope;
#X obj 22 233 metro 1000;
#N canvas 0 23 726 379 IMU-calibration 0;
#X obj 451 40 r bno_calibrated;
#X obj 340 67 u_sssad calibration;
#X obj 340 87 list prepend loadCalibration;
#X obj 340 108 list trim;
#X obj 341 173 s bno;
#X text 178 70 Save & load calibration;
#X obj 59 28 r button_small;
#X msg 59 50 calibrate;
#X text 159 30 FIXME - ska inte styras direkt från knapp;
#X connect 0 0 1 1;
#X connect 1 0 2 0;
#X connect 2 0 3 0;
#X connect 3 0 4 0;
#X connect 6 0 7 0;
#X connect 7 0 4 0;
#X restore 811 169 pd IMU-calibration;
#N canvas 120 374 913 408 initTrillDigital 0;
#X obj 112 23 inlet;
#X obj 133 193 s bela_setTrill;
#X obj 227 100 r bela_trillCreated;
#X obj 477 217 s bela_setDigital;
#X msg 476 141 out 19 \, out 20 \, out 22;
#X text 624 138 LED R/G/B;
#X obj 492 271 digDebug 11;
#X obj 492 291 digDebug 12;
#X obj 572 271 digDebug 13;
#X obj 572 291 digDebug 14;
#X obj 490 311 digDebug 15;
#X obj 491 331 digDebug 16;
#X obj 571 311 digDebug 23;
#X obj 571 331 digDebug 26;
#X obj 571 351 digDebug 24;
#X obj 122 44 t b b b b;
#X msg 499 166 in 16 \, in 23 \, in 24 \, in 26;
#X msg 260 238 \; DEBUG 0;
#X obj 224 129 list;
#X msg 224 161 prescaler \$1 2 \, threshold \$1 0.05;
#X msg 133 65 new bar1 1 BAR 35 \, new bar2 1 BAR 34 \, new bar3 1
BAR 33 \, new bar4 1 BAR 32;
#X connect 0 0 15 0;
#X connect 2 0 18 0;
#X connect 4 0 3 0;
#X connect 15 0 20 0;
#X connect 15 1 4 0;
#X connect 15 2 16 0;
#X connect 15 3 17 0;
#X connect 16 0 3 0;
#X connect 18 0 19 0;
#X connect 19 0 1 0;
#X connect 20 0 1 0;
#X restore -19 73 pd initTrillDigital;
#X obj 811 12 declare -path abs -path rj -path patches;
#N canvas 659 55 781 685 parameters 0;
#X obj 597 193 loadbang;
#X obj 557 49 r RJ_SCENE;
#X obj 557 76 print RJ_SCENE;
#X obj 559 20 u_loader main \$0;
#X text 383 64 Patch selection;
#X text 383 94 Preamp for strings;
#X msg 549 180 save;
#X msg 597 245 load;
#N canvas 0 23 450 300 loadSave 0;
#X obj 212 75 r RJ_SCENE;
#X msg 92 165 clear;
#X obj 437 223 s RJ_SCENE_LOAD;
#X obj 45 237 textfile;
#X obj 212 101 list prepend add;
#X obj 212 129 list trim;
#X msg 45 129 write settings.txt;
#X obj 437 183 textfile;
#X obj 437 123 until;
#X msg 482 150 read \$1 \, rewind;
#X obj 437 99 t b a;
#X msg 437 75 symbol settings.txt;
#X obj 45 -18 inlet;
#X obj 45 6 route save load;
#X msg 69 69 save;
#X obj 69 93 s RJ_SCENE_SAVE;
#X obj 45 30 t b b b;
#X text 438 25 Messages: save get all parameters and store to disk
load load all parameters from disk;
#X connect 0 0 4 0;
#X connect 1 0 3 0;
#X connect 4 0 5 0;
#X connect 5 0 3 0;
#X connect 6 0 3 0;
#X connect 7 0 2 0;
#X connect 7 1 8 1;
#X connect 8 0 7 0;
#X connect 9 0 7 0;
#X connect 10 0 8 0;
#X connect 10 1 9 0;
#X connect 11 0 10 0;
#X connect 12 0 13 0;
#X connect 13 0 16 0;
#X connect 13 1 11 0;
#X connect 14 0 15 0;
#X connect 16 0 6 0;
#X connect 16 1 14 0;
#X connect 16 2 1 0;
#X restore 597 274 pd loadSave;
#X obj 549 155 r closebang;
#X text 545 132 todo: implement save-on-close;
#X obj 598 216 t b b;
#X obj 213 297 bng 15 250 50 0 empty empty empty 17 7 0 10 -262144
-1 -1;
#X msg 338 328 2;
#X msg 338 349 2;
#X msg 338 370 2;
#X msg 338 391 2;
#X obj 225 328 param preamp-1 \$0;
#X obj 225 349 param preamp-2 \$0;
#X obj 225 370 param preamp-3 \$0;
#X obj 225 391 param preamp-4 \$0;
#X obj 224 410 route bang;
#X obj 281 434 outlet;
#X obj 142 193 inlet;
#X connect 0 0 11 0;
#X connect 1 0 2 0;
#X connect 6 0 8 0;
#X connect 7 0 8 0;
#X connect 9 0 6 0;
#X connect 11 0 17 0;
#X connect 11 1 7 0;
#X connect 12 0 17 0;
#X connect 13 0 17 1;
#X connect 14 0 18 1;
#X connect 15 0 19 1;
#X connect 16 0 20 1;
#X connect 17 0 18 0;
#X connect 17 1 13 0;
#X connect 18 0 19 0;
#X connect 18 1 14 0;
#X connect 19 0 20 0;
#X connect 19 1 15 0;
#X connect 20 0 21 0;
#X connect 20 1 16 0;
#X connect 21 1 22 0;
#X connect 23 0 17 0;
#X restore 609 23 pd parameters;
#N canvas 437 178 1003 628 pre 0;
#X obj 107 29 inlet~;
#X obj 107 441 outlet~;
#X obj 157 441 outlet~;
#X obj 207 441 outlet~;
#X obj 257 441 outlet~;
#X obj 663 238 inlet;
#X obj 571 343 outlet;
#X obj 257 420 *~;
#X obj 207 420 *~;
#X obj 157 420 *~;
#X obj 107 420 *~;
#X obj 122 366 liner~;
#X obj 172 375 liner~;
#X obj 222 385 liner~;
#X obj 272 395 liner~;
#X obj 217 29 inlet~;
#X obj 347 29 inlet~;
#X obj 477 29 inlet~;
#X obj 327 314 route preamp-1 preamp-2 preamp-3 preamp-4;
#X connect 0 0 10 0;
#X connect 5 0 18 0;
#X connect 7 0 4 0;
#X connect 8 0 3 0;
#X connect 9 0 2 0;
#X connect 10 0 1 0;
#X connect 11 0 10 1;
#X connect 12 0 9 1;
#X connect 13 0 8 1;
#X connect 14 0 7 1;
#X connect 15 0 9 0;
#X connect 16 0 8 0;
#X connect 17 0 7 0;
#X connect 18 0 11 0;
#X connect 18 1 12 0;
#X connect 18 2 13 0;
#X connect 18 3 14 0;
#X connect 18 4 6 0;
#X restore 386 238 pd pre;
#X f 38;
#N canvas 0 23 858 301 post 0;
#X obj 88 28 inlet~;
#X obj 225 27 inlet~;
#X obj 88 189 outlet~;
#X obj 225 188 outlet~;
#X obj 775 26 inlet;
#X obj 775 185 outlet;
#X obj 328 28 inlet~;
#X obj 465 27 inlet~;
#X obj 350 188 outlet~;
#X obj 410 188 outlet~;
#X obj 470 188 outlet~;
#X obj 530 188 outlet~;
#X connect 0 0 2 0;
#X connect 0 0 3 0;
#X connect 0 0 8 0;
#X connect 1 0 3 0;
#X connect 1 0 2 0;
#X connect 1 0 9 0;
#X connect 4 0 5 0;
#X connect 6 0 2 0;
#X connect 6 0 3 0;
#X connect 6 0 10 0;
#X connect 7 0 3 0;
#X connect 7 0 2 0;
#X connect 7 0 11 0;
#X restore 386 383 pd post;
#X f 38;
#X obj 387 77 adc~ 1 2 3 4, f 27;
#N canvas 174 204 1266 519 menu 0;
#X obj 27 23 inlet buttons;
#X obj 26 295 outlet;
#X obj 110 131 mux-2 setup play;
#N canvas 0 23 450 300 setup 0;
#X obj 133 20 inlet;
#X restore 110 172 pd setup;
#X obj 201 108 + 1;
#X obj 109 156 mux-vis setup;
#X obj 203 157 mux-vis play;
#X obj 182 291 mux-vis main;
#X obj 200 323 mux-vis amp;
#X obj 247 327 mux-vis freq;
#X obj 294 330 mux-vis delay;
#X obj 329 151 button-reset-counter 5;
#X obj 386 284 mux-vis amp;
#X obj 433 288 mux-vis freq;
#X obj 480 291 mux-vis delay;
#X obj 384 251 mux-vis mod-amp;
#X msg 60 86 init;
#X obj 59 107 mux-start;
#X obj 200 88 route switch btn_small btn_keyUp;
#X obj 436 220 mux-spigot;
#X obj 236 226 mux-spigot;
#X obj 590 283 mux-vis amp;
#X obj 637 287 mux-vis freq;
#X obj 684 290 mux-vis delay;
#X obj 806 284 mux-vis amp;
#X obj 853 288 mux-vis freq;
#X obj 900 291 mux-vis delay;
#X obj 855 225 mux-spigot;
#X obj 626 226 mux-spigot;
#X obj 589 247 mux-vis mod-freq;
#X obj 806 246 mux-vis mod-delay;
#X obj 1016 284 mux-vis amp;
#X obj 1063 288 mux-vis freq;
#X obj 1110 291 mux-vis delay;
#X obj 1065 225 mux-spigot;
#X obj 1013 246 mux-vis mod-osc;
#X obj 237 246 button-reset-counter 4;
#X obj 200 306 mux-4 amp freqshift delay osc;
#X obj 363 329 mux-vis delay;
#X obj 59 206 route play;
#X text 66 224 temporary;
#X obj 203 172 mux-5 main amp freq delay osc;
#X obj 258 131 mux-spigot;
#X obj 439 245 button-to-int;
#X obj 651 246 button-to-int;
#X obj 856 246 button-to-int;
#X obj 387 267 mux-3 mod1 mod2 mod3;
#X obj 590 266 mux-3 mod1 mod2 mod3;
#X obj 806 267 mux-3 mod1 mod2 mod3;
#X obj 1016 267 mux-3 mod1 mod2 mod3;
#X obj 1065 244 button-to-int;
#X obj 226 282 mux-trigger;
#X obj 199 262 t a a;
#X msg 301 281 long;
#X text 168 385 TODO route to UI number;
#X connect 0 0 18 0;
#X connect 0 0 1 0;
#X connect 2 0 3 0;
#X connect 2 0 5 0;
#X connect 2 1 6 0;
#X connect 2 1 41 0;
#X connect 2 1 42 1;
#X connect 4 0 2 1;
#X connect 11 0 41 1;
#X connect 16 0 17 0;
#X connect 17 0 39 0;
#X connect 17 1 2 0;
#X connect 18 0 4 0;
#X connect 18 1 42 0;
#X connect 18 2 19 0;
#X connect 18 2 28 0;
#X connect 18 2 27 0;
#X connect 18 2 34 0;
#X connect 18 2 20 0;
#X connect 19 0 43 0;
#X connect 20 0 36 0;
#X connect 27 0 45 0;
#X connect 28 0 44 0;
#X connect 34 0 50 0;
#X connect 36 0 37 1;
#X connect 37 0 8 0;
#X connect 37 1 9 0;
#X connect 37 2 10 0;
#X connect 37 3 38 0;
#X connect 39 0 1 0;
#X connect 41 0 7 0;
#X connect 41 0 20 1;
#X connect 41 0 52 0;
#X connect 41 1 15 0;
#X connect 41 1 19 1;
#X connect 41 1 46 0;
#X connect 41 2 28 1;
#X connect 41 2 29 0;
#X connect 41 2 47 0;
#X connect 41 3 27 1;
#X connect 41 3 30 0;
#X connect 41 3 48 0;
#X connect 41 4 34 1;
#X connect 41 4 35 0;
#X connect 41 4 49 0;
#X connect 42 0 11 0;
#X connect 43 0 46 1;
#X connect 44 0 47 1;
#X connect 45 0 48 1;
#X connect 46 0 12 0;
#X connect 46 1 13 0;
#X connect 46 2 14 0;
#X connect 47 0 21 0;
#X connect 47 1 22 0;
#X connect 47 2 23 0;
#X connect 48 0 24 0;
#X connect 48 1 25 0;
#X connect 48 2 26 0;
#X connect 49 0 31 0;
#X connect 49 1 32 0;
#X connect 49 2 33 0;
#X connect 50 0 49 1;
#X connect 51 0 53 0;
#X connect 52 0 37 0;
#X connect 52 1 51 0;
#X connect 53 0 36 0;
#X restore 608 85 pd menu;
#N canvas 583 180 450 300 netsend 0;
#X obj 157 32 inlet;
#X obj 153 170 list prepend send;
#X obj 153 191 list trim;
#X obj 208 63 loadbang;
#X msg 208 84 connect 192.168.7.1 3550;
#X obj 153 212 netsend -u;
#X obj 118 89 route trill;
#X msg 404 162 listen 0, f 14;
#X obj 304 187 netreceive -u;
#X msg 308 135 listen 0 \, listen 3550;
#X obj 307 238 outlet;
#X connect 0 0 6 0;
#X connect 1 0 2 0;
#X connect 2 0 5 0;
#X connect 4 0 5 0;
#X connect 6 1 1 0;
#X connect 7 0 8 0;
#X connect 8 0 10 0;
#X connect 9 0 8 0;
#X restore 703 67 pd netsend;
#N canvas 523 202 828 676 digitalRouting 1;
#X obj 129 25 r led_red;
#X obj 129 45 s bela_digitalOut19;
#X obj 129 65 r led_green;
#X obj 129 85 s bela_digitalOut20;
#X obj 129 105 r led_blue;
#X obj 129 125 s bela_digitalOut22;
#X obj 394 340 r bela_digitalIn16;
#X obj 238 320 r bela_digitalIn26;
#X obj 237 172 r bela_digitalIn24;
#X obj 54 180 r bela_digitalIn23;
#X obj 396 441 -;
#X msg 395 421 1 \$1;
#X obj 396 463 list prepend switch;
#X obj 238 409 list prepend btn_keyDn;
#X obj 54 271 list prepend btn_small;
#X obj 630 19 route led;
#X obj 629 -6 inlet;
#X obj 156 487 list trim;
#X obj 683 561 outlet;
#X obj 119 539 print;
#X obj 54 201 debounce 10;
#X obj 237 193 debounce 10;
#X obj 238 341 debounce 10;
#X obj 394 401 debounce 10;
#X obj 53 222 t a a;
#X obj 239 360 t a a;
#X obj 237 212 t a a;
#X obj 236 251 list prepend btn_keyUp;
#X obj 53 241 button-gestures 500;
#X obj 238 232 button-gestures 500 250 1;
#X obj 239 379 button-gestures 500 250 1;
#X obj 305 -8 r led;
#X obj 303 87 s led_red;
#X obj 333 107 s led_green;
#X obj 370 130 s led_blue;
#X obj 304 23 route red green blue blink;
#N canvas 427 275 420 300 blink 0;
#X obj 88 33 inlet;
#X obj 252 37 inlet;
#X obj 87 87 f;
#X obj 254 83 sel 0;
#X obj 87 118 spigot 1;
#X obj 132 96 == 0;
#X obj 207 155 f;
#X obj 246 158 + 1;
#X obj 246 179 % 2;
#X obj 88 54 t f f;
#X obj 206 112 &&;
#X obj 253 63 t a b a;
#X obj 205 92 f;
#X obj 207 137 metro 400;
#X obj 87 193 outlet;
#X connect 0 0 9 0;
#X connect 1 0 11 0;
#X connect 2 0 4 0;
#X connect 3 0 2 0;
#X connect 4 0 14 0;
#X connect 5 0 4 1;
#X connect 6 0 7 0;
#X connect 6 0 14 0;
#X connect 7 0 8 0;
#X connect 8 0 6 1;
#X connect 9 0 2 0;
#X connect 9 1 12 0;
#X connect 10 0 13 0;
#X connect 11 0 3 0;
#X connect 11 1 12 0;
#X connect 11 2 10 1;
#X connect 12 0 10 0;
#X connect 13 0 6 0;
#X restore 302 55 pd blink;
#N canvas 427 275 420 300 blink 0;
#X obj 88 33 inlet;
#X obj 252 37 inlet;
#X obj 87 87 f;
#X obj 254 83 sel 0;
#X obj 87 118 spigot 1;
#X obj 132 96 == 0;
#X obj 207 155 f;
#X obj 246 158 + 1;
#X obj 246 179 % 2;
#X obj 88 54 t f f;
#X obj 206 112 &&;
#X obj 253 63 t a b a;
#X obj 205 92 f;
#X obj 207 137 metro 400;
#X obj 87 193 outlet;
#X connect 0 0 9 0;
#X connect 1 0 11 0;
#X connect 2 0 4 0;
#X connect 3 0 2 0;
#X connect 4 0 14 0;
#X connect 5 0 4 1;
#X connect 6 0 7 0;
#X connect 6 0 14 0;
#X connect 7 0 8 0;
#X connect 8 0 6 1;
#X connect 9 0 2 0;
#X connect 9 1 12 0;
#X connect 10 0 13 0;
#X connect 11 0 3 0;
#X connect 11 1 12 0;
#X connect 11 2 10 1;
#X connect 12 0 10 0;
#X connect 13 0 6 0;
#X restore 362 55 pd blink;
#N canvas 427 275 420 300 blink 0;
#X obj 88 33 inlet;
#X obj 252 37 inlet;
#X obj 87 87 f;
#X obj 254 83 sel 0;
#X obj 87 118 spigot 1;
#X obj 132 96 == 0;
#X obj 207 155 f;
#X obj 246 158 + 1;
#X obj 246 179 % 2;
#X obj 88 54 t f f;
#X obj 206 112 &&;
#X obj 253 63 t a b a;
#X obj 205 92 f;
#X obj 207 137 metro 400;
#X obj 87 193 outlet;
#X connect 0 0 9 0;
#X connect 1 0 11 0;
#X connect 2 0 4 0;
#X connect 3 0 2 0;
#X connect 4 0 14 0;
#X connect 5 0 4 1;
#X connect 6 0 7 0;
#X connect 6 0 14 0;
#X connect 7 0 8 0;
#X connect 8 0 6 1;
#X connect 9 0 2 0;
#X connect 9 1 12 0;
#X connect 10 0 13 0;
#X connect 11 0 3 0;
#X connect 11 1 12 0;
#X connect 11 2 10 1;
#X connect 12 0 10 0;
#X connect 13 0 6 0;
#X restore 412 85 pd blink;
#X msg 184 388 single;
#X obj 707 427 r;
#X obj 475 270 r devGuiButtons;
#X text 474 251 For desktop debugging;
#X obj 491 364 loadbang;
#X obj 491 385 delay 500;
#X msg 491 406 0;
#X msg 418 386 0;
#X obj 392 366 t a b;
#X text 556 364 Init when button is 0;
#X obj 434 366 spigot 1;
#X connect 0 0 1 0;
#X connect 2 0 3 0;
#X connect 4 0 5 0;
#X connect 6 0 47 0;
#X connect 7 0 22 0;
#X connect 8 0 21 0;
#X connect 9 0 20 0;
#X connect 10 0 12 0;
#X connect 11 0 10 0;
#X connect 12 0 17 0;
#X connect 13 0 17 0;
#X connect 14 0 17 0;
#X connect 15 0 35 0;
#X connect 15 1 18 0;
#X connect 16 0 15 0;
#X connect 17 0 18 0;
#X connect 17 0 19 0;
#X connect 20 0 24 0;
#X connect 21 0 26 0;
#X connect 22 0 25 0;
#X connect 23 0 11 0;
#X connect 24 0 28 0;
#X connect 24 1 14 0;
#X connect 25 0 30 0;
#X connect 25 1 13 0;
#X connect 26 0 29 0;
#X connect 26 1 27 0;
#X connect 27 0 17 0;
#X connect 28 0 14 0;
#X connect 29 0 27 0;
#X connect 30 0 13 0;
#X connect 31 0 35 0;
#X connect 35 0 36 0;
#X connect 35 1 37 0;
#X connect 35 2 38 0;
#X connect 35 3 36 1;
#X connect 35 3 37 1;
#X connect 35 3 38 1;
#X connect 36 0 32 0;
#X connect 37 0 33 0;
#X connect 38 0 34 0;
#X connect 39 0 13 0;
#X connect 41 0 18 0;
#X connect 43 0 44 0;
#X connect 44 0 45 0;
#X connect 45 0 49 0;
#X connect 46 0 49 1;
#X connect 47 0 23 0;
#X connect 47 1 46 0;
#X connect 49 0 47 0;
#X restore 608 42 pd digitalRouting;
#N canvas 313 239 767 420 ui 0;
#X obj 155 7 inlet;
#X obj 155 31 route ui;
#X obj 155 54 route number;
#N canvas 367 23 564 451 number 0;
#X obj 125 19 inlet;
#X msg 125 48 \$2 \$1;
#X obj 125 99 route 0 3 4 7;
#X obj 123 151 t f f f;
#X obj 122 172 == 1;
#X msg 125 212 red \$1;
#X msg 145 237 green \$1;
#X msg 168 263 blue \$1;
#X obj 126 298 s led;
#X obj 147 193 == 2;
#X obj 184 193 == 3;
#X obj 22 -6 hradio 15 1 0 8 empty empty empty 0 -8 0 10 -262144 -1
-1 5;
#X obj 19 16 + 1;
#X obj 159 123 - 1;
#X msg 20 45 \$1 7;
#X obj 226 131 & 2;
#X obj 226 150 == 2;
#X obj 194 131 & 1;
#X obj 195 150 == 1;
#X floatatom 229 172 5 0 0 0 - - -;
#X obj 264 131 & 4;
#X obj 265 150 == 4;
#X msg 36 233 blink 0;
#X connect 0 0 1 0;
#X connect 1 0 2 0;
#X connect 2 0 3 0;
#X connect 2 1 3 0;
#X connect 2 2 13 0;
#X connect 2 3 15 0;
#X connect 2 3 17 0;
#X connect 2 3 20 0;
#X connect 3 0 4 0;
#X connect 3 1 9 0;
#X connect 3 2 10 0;
#X connect 4 0 5 0;
#X connect 5 0 8 0;
#X connect 6 0 8 0;
#X connect 7 0 8 0;
#X connect 9 0 6 0;
#X connect 10 0 7 0;
#X connect 11 0 12 0;
#X connect 12 0 14 0;
#X connect 13 0 3 0;
#X connect 14 0 1 0;
#X connect 15 0 16 0;
#X connect 16 0 19 0;
#X connect 16 0 6 0;
#X connect 17 0 18 0;
#X connect 18 0 5 0;
#X connect 20 0 21 0;
#X connect 21 0 7 0;
#X connect 22 0 8 0;
#X restore 156 79 pd number;
#X connect 0 0 1 0;
#X connect 1 0 2 0;
#X connect 2 0 3 0;
#X restore 615 411 pd ui;
#X obj 386 264 volume-4~, f 38;
#X obj 386 139 pitchtracker-4, f 28;
#X msg 481 165 preamp-1 2 \, amp-1 1 \, freq-1 0 \, delay-1 0;
#X msg 558 16 help;
#X obj 382 429 dac~ 1 2, f 11;
#X obj 468 432 dac~ 2 3 4 5;
#X obj 661 111 print;
#X connect 0 0 2 0;
#X connect 2 0 7 0;
#X connect 2 1 3 0;
#X connect 2 2 9 0;
#X connect 3 0 1 1;
#X connect 7 0 1 0;
#X connect 11 0 17 0;
#X connect 12 0 19 0;
#X connect 12 1 19 1;
#X connect 12 2 19 2;
#X connect 12 3 19 3;
#X connect 12 4 19 4;
#X connect 13 0 23 0;
#X connect 13 1 23 1;
#X connect 13 2 24 0;
#X connect 13 3 24 1;
#X connect 13 4 24 2;
#X connect 13 5 24 3;
#X connect 13 6 18 0;
#X connect 14 0 20 0;
#X connect 14 1 20 1;
#X connect 14 2 20 2;
#X connect 14 3 20 3;
#X connect 15 0 25 0;
#X connect 15 0 12 4;
#X connect 17 0 15 0;
#X connect 19 0 13 0;
#X connect 19 1 13 1;
#X connect 19 2 13 2;
#X connect 19 3 13 3;
#X connect 19 4 13 4;
#X connect 20 0 12 0;
#X connect 20 1 12 1;
#X connect 20 2 12 2;
#X connect 20 3 12 3;
#X connect 21 0 12 4;
#X connect 22 0 11 0;
