#N canvas 372 23 1058 733 10;
#X declare -path abs -path rj -path patches;
#X obj 138 19 loadbang;
#X obj 516 276 dac~ 27 28 29 30;
#N canvas 120 374 913 408 initTrillDigital 0;
#X obj 112 23 inlet;
#X obj 133 193 s bela_setTrill;
#X obj 227 100 r bela_trillCreated;
#X obj 477 217 s bela_setDigital;
#X msg 476 141 out 19 \, out 20 \, out 22;
#X text 624 138 LED R/G/B;
#X obj 492 271 digDebug 11;
#X obj 492 291 digDebug 12;
#X obj 572 271 digDebug 13;
#X obj 572 291 digDebug 14;
#X obj 490 311 digDebug 15;
#X obj 491 331 digDebug 16;
#X obj 571 311 digDebug 23;
#X obj 571 331 digDebug 26;
#X obj 571 351 digDebug 24;
#X obj 122 44 t b b b b;
#X msg 499 166 in 16 \, in 23 \, in 24 \, in 26;
#X msg 260 238 \; DEBUG 0;
#X obj 224 129 list;
#X msg 224 161 prescaler \$1 2 \, threshold \$1 0.05;
#X msg 133 65 new bar1 1 BAR 35 \, new bar2 1 BAR 34 \, new bar3 1
BAR 33 \, new bar4 1 BAR 32;
#X connect 0 0 15 0;
#X connect 2 0 18 0;
#X connect 4 0 3 0;
#X connect 15 0 20 0;
#X connect 15 1 4 0;
#X connect 15 2 16 0;
#X connect 15 3 17 0;
#X connect 16 0 3 0;
#X connect 18 0 19 0;
#X connect 19 0 1 0;
#X connect 20 0 1 0;
#X restore 137 42 pd initTrillDigital;
#X obj 561 12 declare -path abs -path rj -path patches;
#N canvas 659 55 781 685 parameters 1;
#X obj 597 179 loadbang;
#X obj 557 49 r RJ_SCENE;
#X obj 557 76 print RJ_SCENE;
#X obj 559 20 u_loader main \$0;
#X text 383 64 Patch selection;
#X text 383 94 Preamp for strings;
#X msg 549 180 save;
#X msg 597 275 load;
#N canvas 0 23 784 344 loadSave 0;
#X obj 212 75 r RJ_SCENE;
#X msg 92 165 clear;
#X obj 437 223 s RJ_SCENE_LOAD;
#X obj 45 237 textfile;
#X obj 212 101 list prepend add;
#X obj 212 129 list trim;
#X msg 45 129 write settings.txt;
#X obj 437 183 textfile;
#X obj 437 123 until;
#X msg 482 150 read \$1 \, rewind;
#X obj 437 99 t b a;
#X msg 437 75 symbol settings.txt;
#X obj 45 -18 inlet;
#X obj 45 6 route save load;
#X msg 69 69 save;
#X obj 69 93 s RJ_SCENE_SAVE;
#X obj 45 30 t b b b;
#X text 438 25 Messages: save get all parameters and store to disk
load load all parameters from disk;
#X connect 0 0 4 0;
#X connect 1 0 3 0;
#X connect 4 0 5 0;
#X connect 5 0 3 0;
#X connect 6 0 3 0;
#X connect 7 0 2 0;
#X connect 7 1 8 1;
#X connect 8 0 7 0;
#X connect 9 0 7 0;
#X connect 10 0 8 0;
#X connect 10 1 9 0;
#X connect 11 0 10 0;
#X connect 12 0 13 0;
#X connect 13 0 16 0;
#X connect 13 1 11 0;
#X connect 14 0 15 0;
#X connect 16 0 6 0;
#X connect 16 1 14 0;
#X connect 16 2 1 0;
#X restore 597 304 pd loadSave;
#X obj 549 155 r closebang;
#X obj 598 221 t b b;
#X obj 213 297 bng 15 250 50 0 empty empty empty 17 7 0 10 -262144
-1 -1;
#X msg 338 328 2;
#X msg 338 349 2;
#X msg 338 370 2;
#X msg 338 391 2;
#X obj 225 328 param preamp-1 \$0;
#X obj 225 349 param preamp-2 \$0;
#X obj 225 370 param preamp-3 \$0;
#X obj 225 391 param preamp-4 \$0;
#X obj 224 410 route bang;
#X obj 281 434 outlet;
#X obj 142 193 inlet;
#X obj 597 200 delay 250;
#X text 658 196 BNO needs this delay;
#X connect 0 0 23 0;
#X connect 6 0 8 0;
#X connect 7 0 8 0;
#X connect 9 0 6 0;
#X connect 10 0 16 0;
#X connect 10 1 7 0;
#X connect 11 0 16 0;
#X connect 12 0 16 1;
#X connect 13 0 17 1;
#X connect 14 0 18 1;
#X connect 15 0 19 1;
#X connect 16 0 17 0;
#X connect 16 1 12 0;
#X connect 17 0 18 0;
#X connect 17 1 13 0;
#X connect 18 0 19 0;
#X connect 18 1 14 0;
#X connect 19 0 20 0;
#X connect 19 1 15 0;
#X connect 20 1 21 0;
#X connect 22 0 16 0;
#X connect 23 0 10 0;
#X restore 359 23 pd parameters;
#N canvas 437 178 1003 628 pre 0;
#X obj 107 29 inlet~;
#X obj 107 441 outlet~;
#X obj 157 441 outlet~;
#X obj 207 441 outlet~;
#X obj 257 441 outlet~;
#X obj 663 238 inlet;
#X obj 571 343 outlet;
#X obj 257 420 *~;
#X obj 207 420 *~;
#X obj 157 420 *~;
#X obj 107 420 *~;
#X obj 122 366 liner~;
#X obj 172 375 liner~;
#X obj 222 385 liner~;
#X obj 272 395 liner~;
#X obj 217 29 inlet~;
#X obj 347 29 inlet~;
#X obj 477 29 inlet~;
#X obj 327 314 route preamp-1 preamp-2 preamp-3 preamp-4;
#X connect 0 0 10 0;
#X connect 5 0 18 0;
#X connect 7 0 4 0;
#X connect 8 0 3 0;
#X connect 9 0 2 0;
#X connect 10 0 1 0;
#X connect 11 0 10 1;
#X connect 12 0 9 1;
#X connect 13 0 8 1;
#X connect 14 0 7 1;
#X connect 15 0 9 0;
#X connect 16 0 8 0;
#X connect 17 0 7 0;
#X connect 18 0 11 0;
#X connect 18 1 12 0;
#X connect 18 2 13 0;
#X connect 18 3 14 0;
#X connect 18 4 6 0;
#X restore 136 238 pd pre;
#X f 38;
#N canvas 0 23 858 434 post 1;
#X obj 88 28 inlet~;
#X obj 225 27 inlet~;
#X obj 775 26 inlet;
#X obj 775 185 outlet;
#X obj 328 28 inlet~;
#X obj 465 27 inlet~;
#X obj 350 188 outlet~;
#X obj 410 188 outlet~;
#X obj 470 188 outlet~;
#X obj 530 188 outlet~;
#X obj 88 189 +~;
#X obj 225 188 +~;
#X obj 51 242 compLimiter2~;
#X msg 15 216 threshLim -20 \, thresh -40 \, strength 0.5;
#X obj 15 173 loadbang;
#X obj 87 266 outlet~;
#X obj 122 295 outlet~;
#X connect 0 0 6 0;
#X connect 0 0 10 0;
#X connect 0 0 11 0;
#X connect 1 0 7 0;
#X connect 1 0 10 0;
#X connect 1 0 11 0;
#X connect 2 0 3 0;
#X connect 4 0 8 0;
#X connect 4 0 10 0;
#X connect 4 0 11 0;
#X connect 5 0 9 0;
#X connect 5 0 10 0;
#X connect 5 0 11 0;
#X connect 10 0 12 1;
#X connect 11 0 12 2;
#X connect 12 1 15 0;
#X connect 12 2 16 0;
#X connect 13 0 12 0;
#X connect 14 0 13 0;
#X restore 136 383 pd post;
#X f 38;
#X obj 137 77 adc~ 1 2 3 4, f 27;
#N canvas 523 202 828 676 digitalRouting 0;
#X obj 129 25 r led_red;
#X obj 129 45 s bela_digitalOut19;
#X obj 129 65 r led_green;
#X obj 129 85 s bela_digitalOut20;
#X obj 129 105 r led_blue;
#X obj 129 125 s bela_digitalOut22;
#X obj 394 340 r bela_digitalIn16;
#X obj 238 320 r bela_digitalIn26;
#X obj 237 172 r bela_digitalIn24;
#X obj 54 180 r bela_digitalIn23;
#X obj 396 441 -;
#X msg 395 421 1 \$1;
#X obj 396 463 list prepend switch;
#X obj 238 409 list prepend btn_keyDn;
#X obj 54 271 list prepend btn_small;
#X obj 630 19 route led;
#X obj 629 -6 inlet;
#X obj 156 487 list trim;
#X obj 683 561 outlet;
#X obj 54 201 debounce 10;
#X obj 237 193 debounce 10;
#X obj 238 341 debounce 10;
#X obj 394 401 debounce 10;
#X obj 53 222 t a a;
#X obj 239 360 t a a;
#X obj 237 212 t a a;
#X obj 236 251 list prepend btn_keyUp;
#X obj 53 241 button-gestures 500;
#X obj 238 232 button-gestures 500 250 1;
#X obj 239 379 button-gestures 500 250 1;
#X obj 305 -8 r led;
#X obj 303 87 s led_red;
#X obj 333 107 s led_green;
#X obj 370 130 s led_blue;
#X obj 304 23 route red green blue blink;
#N canvas 427 275 420 300 blink 0;
#X obj 88 33 inlet;
#X obj 252 37 inlet;
#X obj 87 87 f;
#X obj 254 83 sel 0;
#X obj 87 118 spigot 1;
#X obj 132 96 == 0;
#X obj 207 155 f;
#X obj 246 158 + 1;
#X obj 246 179 % 2;
#X obj 88 54 t f f;
#X obj 206 112 &&;
#X obj 253 63 t a b a;
#X obj 205 92 f;
#X obj 87 193 outlet;
#X obj 207 137 metro 100;
#X connect 0 0 9 0;
#X connect 1 0 11 0;
#X connect 2 0 4 0;
#X connect 3 0 2 0;
#X connect 4 0 13 0;
#X connect 5 0 4 1;
#X connect 6 0 7 0;
#X connect 6 0 13 0;
#X connect 7 0 8 0;
#X connect 8 0 6 1;
#X connect 9 0 2 0;
#X connect 9 1 12 0;
#X connect 10 0 14 0;
#X connect 11 0 3 0;
#X connect 11 1 12 0;
#X connect 11 2 10 1;
#X connect 12 0 10 0;
#X connect 14 0 6 0;
#X restore 302 55 pd blink;
#N canvas 427 275 420 300 blink 0;
#X obj 88 33 inlet;
#X obj 252 37 inlet;
#X obj 87 87 f;
#X obj 254 83 sel 0;
#X obj 87 118 spigot 1;
#X obj 132 96 == 0;
#X obj 207 155 f;
#X obj 246 158 + 1;
#X obj 246 179 % 2;
#X obj 88 54 t f f;
#X obj 206 112 &&;
#X obj 253 63 t a b a;
#X obj 205 92 f;
#X obj 87 193 outlet;
#X obj 207 137 metro 100;
#X connect 0 0 9 0;
#X connect 1 0 11 0;
#X connect 2 0 4 0;
#X connect 3 0 2 0;
#X connect 4 0 13 0;
#X connect 5 0 4 1;
#X connect 6 0 7 0;
#X connect 6 0 13 0;
#X connect 7 0 8 0;
#X connect 8 0 6 1;
#X connect 9 0 2 0;
#X connect 9 1 12 0;
#X connect 10 0 14 0;
#X connect 11 0 3 0;
#X connect 11 1 12 0;
#X connect 11 2 10 1;
#X connect 12 0 10 0;
#X connect 14 0 6 0;
#X restore 362 55 pd blink;
#N canvas 427 275 420 300 blink 0;
#X obj 88 33 inlet;
#X obj 252 37 inlet;
#X obj 87 87 f;
#X obj 254 83 sel 0;
#X obj 87 118 spigot 1;
#X obj 132 96 == 0;
#X obj 207 155 f;
#X obj 246 158 + 1;
#X obj 246 179 % 2;
#X obj 88 54 t f f;
#X obj 206 112 &&;
#X obj 253 63 t a b a;
#X obj 205 92 f;
#X obj 87 193 outlet;
#X obj 207 137 metro 100;
#X connect 0 0 9 0;
#X connect 1 0 11 0;
#X connect 2 0 4 0;
#X connect 3 0 2 0;
#X connect 4 0 13 0;
#X connect 5 0 4 1;
#X connect 6 0 7 0;
#X connect 6 0 13 0;
#X connect 7 0 8 0;
#X connect 8 0 6 1;
#X connect 9 0 2 0;
#X connect 9 1 12 0;
#X connect 10 0 14 0;
#X connect 11 0 3 0;
#X connect 11 1 12 0;
#X connect 11 2 10 1;
#X connect 12 0 10 0;
#X connect 14 0 6 0;
#X restore 412 85 pd blink;
#X msg 184 388 single;
#X obj 707 427 r;
#X obj 475 270 r devGuiButtons;
#X text 474 251 For desktop debugging;
#X obj 491 364 loadbang;
#X obj 491 385 delay 500;
#X msg 491 406 0;
#X msg 418 386 0;
#X obj 392 366 t a b;
#X text 556 364 Init when button is 0;
#X obj 434 366 spigot 1;
#X connect 0 0 1 0;
#X connect 2 0 3 0;
#X connect 4 0 5 0;
#X connect 6 0 46 0;
#X connect 7 0 21 0;
#X connect 8 0 20 0;
#X connect 9 0 19 0;
#X connect 10 0 12 0;
#X connect 11 0 10 0;
#X connect 12 0 17 0;
#X connect 13 0 17 0;
#X connect 14 0 17 0;
#X connect 15 0 34 0;
#X connect 15 1 18 0;
#X connect 16 0 15 0;
#X connect 17 0 18 0;
#X connect 19 0 23 0;
#X connect 20 0 25 0;
#X connect 21 0 24 0;
#X connect 22 0 11 0;
#X connect 23 0 27 0;
#X connect 23 1 14 0;
#X connect 24 0 29 0;
#X connect 24 1 13 0;
#X connect 25 0 28 0;
#X connect 25 1 26 0;
#X connect 26 0 17 0;
#X connect 27 0 14 0;
#X connect 28 0 26 0;
#X connect 29 0 13 0;
#X connect 30 0 34 0;
#X connect 34 0 35 0;
#X connect 34 1 36 0;
#X connect 34 2 37 0;
#X connect 34 3 35 1;
#X connect 34 3 36 1;
#X connect 34 3 37 1;
#X connect 35 0 31 0;
#X connect 36 0 32 0;
#X connect 37 0 33 0;
#X connect 38 0 13 0;
#X connect 40 0 18 0;
#X connect 42 0 43 0;
#X connect 43 0 44 0;
#X connect 44 0 48 0;
#X connect 45 0 48 1;
#X connect 46 0 22 0;
#X connect 46 1 45 0;
#X connect 48 0 46 0;
#X restore 358 42 pd digitalRouting;
#N canvas 313 239 767 420 ui 0;
#X obj 155 7 inlet;
#X obj 155 31 route ui;
#X obj 155 54 route number;
#N canvas 367 23 564 451 number 0;
#X obj 125 19 inlet;
#X msg 125 48 \$2 \$1;
#X obj 125 99 route 0 3 4 7;
#X obj 123 151 t f f f;
#X obj 122 172 == 1;
#X msg 125 212 red \$1;
#X msg 145 237 green \$1;
#X msg 168 263 blue \$1;
#X obj 147 193 == 2;
#X obj 184 193 == 3;
#X obj 22 -6 hradio 15 1 0 8 empty empty empty 0 -8 0 10 -262144 -1
-1 7;
#X obj 19 16 + 1;
#X obj 159 123 - 1;
#X msg 20 45 \$1 7;
#X obj 226 131 & 2;
#X obj 226 150 == 2;
#X obj 194 131 & 1;
#X obj 195 150 == 1;
#X floatatom 229 172 5 0 0 0 - - -;
#X obj 264 131 & 4;
#X obj 265 150 == 4;
#X msg 36 233 blink 0;
#X obj 126 298 outlet;
#X connect 0 0 1 0;
#X connect 1 0 2 0;
#X connect 2 0 3 0;
#X connect 2 1 3 0;
#X connect 2 2 12 0;
#X connect 2 3 14 0;
#X connect 2 3 16 0;
#X connect 2 3 19 0;
#X connect 3 0 4 0;
#X connect 3 1 8 0;
#X connect 3 2 9 0;
#X connect 4 0 5 0;
#X connect 5 0 22 0;
#X connect 6 0 22 0;
#X connect 7 0 22 0;
#X connect 8 0 6 0;
#X connect 9 0 7 0;
#X connect 10 0 11 0;
#X connect 11 0 13 0;
#X connect 12 0 3 0;
#X connect 13 0 1 0;
#X connect 14 0 15 0;
#X connect 15 0 18 0;
#X connect 15 0 6 0;
#X connect 16 0 17 0;
#X connect 17 0 5 0;
#X connect 19 0 20 0;
#X connect 20 0 7 0;
#X connect 21 0 22 0;
#X restore 156 79 pd number;
#X obj 156 100 s led;
#X connect 0 0 1 0;
#X connect 1 0 2 0;
#X connect 2 0 3 0;
#X connect 2 1 4 0;
#X connect 3 0 4 0;
#X restore 362 411 pd ui;
#X obj 136 264 volume-4~, f 38;
#X obj 136 139 pitchtracker-4, f 36;
#X msg 442 206 preamp-1 2 \, amp-1 1 \, freq-1 0 \, delay-1 0;
#X msg 308 16 help;
#X obj 124 483 dac~ 1 2, f 11;
#X obj 218 432 dac~ 2 3 4 5;
#N canvas 583 180 830 623 netreceive 0;
#X obj 208 63 loadbang;
#X msg 404 162 listen 0, f 14;
#X msg 308 135 listen 0 \, listen 3550;
#X obj 398 236 outlet;
#X obj 306 260 s bela_trill;
#X obj 141 108 r led;
#X obj 141 129 list prepend led;
#X obj 141 150 list prepend send;
#X obj 141 171 list trim;
#X obj 304 187 netreceive;
#X obj 305 209 route trill bno;
#X connect 0 0 2 0;
#X connect 1 0 9 0;
#X connect 2 0 9 0;
#X connect 5 0 6 0;
#X connect 6 0 7 0;
#X connect 7 0 8 0;
#X connect 8 0 9 0;
#X connect 9 0 10 0;
#X connect 10 0 4 0;
#X connect 10 2 3 0;
#X restore 453 67 pd netreceive;
#X obj 390 174 print;
#X obj 398 142;
#X msg 442 389;
#N canvas 155 23 1285 664 menu 0;
#X obj 427 23 inlet buttons;
#X obj 426 394 outlet;
#X obj 510 131 mux-2 setup play;
#N canvas 118 27 729 519 setup 0;
#X obj 369 19 inlet;
#X obj 43 22 inlet;
#X obj 43 61 mux-spigot;
#X obj 115 170 mux-vis;
#X obj 43 84 route btn_small;
#N canvas 537 167 562 443 tune 0;
#X obj 134 12 inlet;
#X obj 134 53 route btn_keyUp;
#X obj 134 144 counter 0 3;
#X obj 134 165 * 7;
#X obj 134 206 mtof;
#X obj 134 75 route 1;
#X obj 134 186 + 36;
#X text 171 185 C1 \, G1 \, D2 \, A2;
#X obj 134 252 mux-volume~ 0.05;
#X obj 134 227 osc~ 65.4;
#X obj 134 298 throw~ setup-audio;
#X obj 248 80 mux-trigger;
#X obj 313 114 bng 15 250 50 0 empty empty empty 17 7 0 10 -262144
-1 -1;
#X msg 248 101 0;
#X obj 336 279 print Tuner;
#X obj 307 172 list append C1 G1 D2 A2;
#X obj 306 153 t b f;
#X obj 307 193 list split;
#X obj 336 214 list split 1;
#X obj 336 235 list trim;
#X connect 0 0 1 0;
#X connect 1 0 5 0;
#X connect 1 1 11 0;
#X connect 1 1 8 1;
#X connect 2 0 3 0;
#X connect 2 0 16 0;
#X connect 3 0 6 0;
#X connect 4 0 9 0;
#X connect 5 0 2 0;
#X connect 6 0 4 0;
#X connect 8 0 10 0;
#X connect 9 0 8 0;
#X connect 11 0 13 0;
#X connect 11 1 12 0;
#X connect 13 0 2 0;
#X connect 15 0 17 0;
#X connect 16 0 15 0;
#X connect 16 1 17 1;
#X connect 17 1 18 0;
#X connect 18 0 19 0;
#X connect 19 0 14 0;
#X restore 114 214 pd tune;
#N canvas 491 100 726 379 IMU-calibration 0;
#X obj 469 41 r bno_calibrated;
#X obj 340 87 list prepend loadCalibration;
#X obj 340 108 list trim;
#X obj 341 173 s bno;
#X text 178 70 Save & load calibration;
#X msg 141 162 calibrate;
#X obj 59 28 inlet;
#X obj 26 300 *~;
#X obj 43 237 vline~;
#X obj 26 321 throw~ setup-audio;
#X obj 43 258 *~;
#X obj 43 279 *~;
#X obj -27 242 osc~ 440;
#X msg 113 236 0.3 2 \, 0 300 2 \, 0.3 2 102 \, 0 300 104;
#X msg 43 216 0.3 2 \, 0 300 2;
#X obj 59 74 route 1;
#X obj 47 179 route 0 1;
#X obj 59 96 t b b;
#X obj 59 159 counter 0 1;
#X obj 59 138 delay 1000;
#X obj 59 49 route btn_keyUp;
#X obj 155 98 mux-trigger;
#X msg 154 122 0.3 2 \, 0 1000 2;
#X obj 206 298 print Calibration;
#X msg 445 272 Loading \$1 \$2 \$3 \$4;
#X msg 445 244 Saving \$1 \$2 \$3 \$4;
#X obj 340 67 u_sssad calibration \$0;
#X msg 205 262 Press keyUp to start calibration;
#X connect 0 0 25 0;
#X connect 0 0 26 1;
#X connect 1 0 2 0;
#X connect 2 0 3 0;
#X connect 2 0 24 0;
#X connect 5 0 3 0;
#X connect 6 0 20 0;
#X connect 7 0 9 0;
#X connect 8 0 10 0;
#X connect 8 0 10 1;
#X connect 10 0 11 0;
#X connect 10 0 11 1;
#X connect 11 0 7 1;
#X connect 12 0 7 0;
#X connect 13 0 8 0;
#X connect 14 0 8 0;
#X connect 15 0 17 0;
#X connect 16 0 14 0;
#X connect 16 1 13 0;
#X connect 17 0 19 0;
#X connect 17 1 5 0;
#X connect 18 0 16 0;
#X connect 19 0 18 0;
#X connect 20 0 15 0;
#X connect 20 1 21 0;
#X connect 21 0 22 0;
#X connect 21 0 27 0;
#X connect 22 0 8 0;
#X connect 24 0 23 0;
#X connect 25 0 23 0;
#X connect 26 0 1 0;
#X connect 27 0 23 0;
#X restore 257 223 pd IMU-calibration;
#X obj 42 105 button-reset-counter 3;
#X obj 42 149 mux-3 init tune calibrate;
#X obj 185 170 mux-vis;
#X connect 0 0 2 1;
#X connect 1 0 2 0;
#X connect 2 0 4 0;
#X connect 3 0 5 0;
#X connect 4 0 7 0;
#X connect 4 1 8 0;
#X connect 7 0 8 1;
#X connect 8 1 3 0;
#X connect 8 2 6 0;
#X connect 8 2 9 0;
#X restore 465 172 pd setup;
#X obj 770 106 + 1;
#X obj 509 156 mux-vis setup;
#X obj 773 157 mux-vis play;
#X obj 783 239 mux-spigot;
#X obj 715 239 mux-spigot;
#X obj 852 239 mux-spigot;
#X obj 832 110 mux-spigot;
#X obj 908 152 button-to-int;
#X obj 773 172 mux-3 main mod mod-dest;
#X obj 645 172 r bela_trill;
#X obj 775 223 mux-vis main;
#X obj 844 223 mux-vis mod;
#X obj 914 223 mux-vis mod-dest;
#N canvas 237 65 976 520 amp 0;
#X obj 37 37 inlet trill;
#X obj 38 361 list trim;
#X obj 38 395 outlet;
#X obj 38 334 list prepend amp;
#X obj 38 58 list split 2;
#X obj 38 97 route 1 2;
#X obj 120 123 list;
#X obj 39 123 list;
#X obj 182 324 list prepend comp;
#N canvas 395 23 644 364 filter-multitouch 0;
#X obj 37 3 inlet;
#X obj 37 61 route bar1 bar2 bar3 bar4;
#X obj 37 24 list trim;
#X obj 40 276 outlet;
#X obj 37 82 trill-multitouch-filter bar1 25;
#X obj 77 102 trill-multitouch-filter bar2 25;
#X obj 117 122 trill-multitouch-filter bar3 25;
#X obj 156 142 trill-multitouch-filter bar4 25;
#X connect 0 0 2 0;
#X connect 1 0 4 0;
#X connect 1 1 5 0;
#X connect 1 2 6 0;
#X connect 1 3 7 0;
#X connect 2 0 1 0;
#X connect 4 0 3 0;
#X connect 5 0 3 0;
#X connect 6 0 3 0;
#X connect 7 0 3 0;
#X restore 38 77 pd filter-multitouch;
#X connect 0 0 4 0;
#X connect 1 0 2 0;
#X connect 3 0 1 0;
#X connect 4 0 9 0;
#X connect 4 1 6 1;
#X connect 4 1 7 1;
#X connect 5 0 7 0;
#X connect 5 1 6 0;
#X connect 6 0 8 0;
#X connect 7 0 3 0;
#X connect 8 0 1 0;
#X connect 9 0 5 0;
#X restore 550 282 pd amp;
#N canvas 287 191 450 300 mod 0;
#X obj 37 37 inlet;
#X obj 38 58 list split 2;
#X obj 38 147 route 1 2;
#X obj 120 173 list;
#X obj 39 173 list;
#X obj 39 232 list trim;
#X obj 39 266 outlet;
#X obj 39 205 list prepend mod;
#X obj 151 204 list prepend modlag;
#N canvas 395 23 644 364 filter-multitouch 0;
#X obj 37 3 inlet;
#X obj 37 61 route bar1 bar2 bar3 bar4;
#X obj 37 24 list trim;
#X obj 40 276 outlet;
#X obj 37 82 trill-multitouch-filter bar1 100;
#X obj 77 102 trill-multitouch-filter bar2 100;
#X obj 117 122 trill-multitouch-filter bar3 100;
#X obj 156 142 trill-multitouch-filter bar4 100;
#X connect 0 0 2 0;
#X connect 1 0 4 0;
#X connect 1 1 5 0;
#X connect 1 2 6 0;
#X connect 1 3 7 0;
#X connect 2 0 1 0;
#X connect 4 0 3 0;
#X connect 5 0 3 0;
#X connect 6 0 3 0;
#X connect 7 0 3 0;
#X restore 38 88 pd filter-multitouch;
#X connect 0 0 1 0;
#X connect 1 0 9 0;
#X connect 1 1 3 1;
#X connect 1 1 4 1;
#X connect 2 0 4 0;
#X connect 2 1 3 0;
#X connect 3 0 8 0;
#X connect 4 0 7 0;
#X connect 5 0 6 0;
#X connect 7 0 5 0;
#X connect 8 0 5 0;
#X connect 9 0 2 0;
#X restore 618 282 pd mod mod-lag;
#N canvas 424 231 755 444 mod-dest 0;
#X obj 37 -31 inlet;
#X obj 38 28 list split 2;
#X obj 38 97 route 1 2;
#X obj 120 123 list;
#X obj 39 372 list trim;
#X obj 39 406 outlet;
#X obj 39 345 list prepend mod-dest;
#X obj 181 314 list prepend mod-source-range;
#X obj 38 121 t b a;
#X obj 39 306 list prepend;
#X obj 38 194 f;
#X obj 38 235 int;
#X obj 38 255 change;
#X obj 52 169 route bang;
#X obj 52 147 list split 1;
#X msg 179 248 \$1 \$2 \$4;
#N canvas 395 23 644 364 filter-multitouch 0;
#X obj 37 3 inlet;
#X obj 37 61 route bar1 bar2 bar3 bar4;
#X obj 37 24 list trim;
#X obj 40 276 outlet;
#X obj 37 82 trill-multitouch-filter bar1 100;
#X obj 77 102 trill-multitouch-filter bar2 100;
#X obj 117 122 trill-multitouch-filter bar3 100;
#X obj 156 142 trill-multitouch-filter bar4 100;
#X connect 0 0 2 0;
#X connect 1 0 4 0;
#X connect 1 1 5 0;
#X connect 1 2 6 0;
#X connect 1 3 7 0;
#X connect 2 0 1 0;
#X connect 4 0 3 0;
#X connect 5 0 3 0;
#X connect 6 0 3 0;
#X connect 7 0 3 0;
#X restore 38 68 pd filter-multitouch;
#X obj 38 215 * 4.99;
#X connect 0 0 1 0;
#X connect 1 0 16 0;
#X connect 1 1 3 1;
#X connect 1 1 14 0;
#X connect 2 0 8 0;
#X connect 2 1 3 0;
#X connect 3 0 15 0;
#X connect 4 0 5 0;
#X connect 6 0 4 0;
#X connect 7 0 4 0;
#X connect 8 0 10 0;
#X connect 8 1 9 1;
#X connect 9 0 6 0;
#X connect 10 0 17 0;
#X connect 11 0 12 0;
#X connect 12 0 9 0;
#X connect 13 1 10 1;
#X connect 14 0 13 0;
#X connect 15 0 7 0;
#X connect 16 0 2 0;
#X connect 17 0 11 0;
#X restore 719 283 pd mod-dest mod-source-range;
#X obj 770 88 route switch btn_keyUp btn_keyDn;
#X obj 905 110 mux-spigot;
#X obj 832 131 route 1;
#N canvas 0 23 450 300 ui 0;
#X obj 139 31 inlet;
#X obj 363 32 inlet;
#X obj 145 75 f;
#X msg 363 53 0;
#X obj 147 115 outlet;
#X msg 147 94 ui number \$1 3 \, ui blink 0;
#X connect 0 0 2 0;
#X connect 1 0 3 0;
#X connect 2 0 5 0;
#X connect 3 0 5 0;
#X connect 5 0 4 0;
#X restore 1221 237 pd ui;
#X obj 1033 239 mux-spigot;
#X obj 965 239 mux-spigot;
#X obj 1102 239 mux-spigot;
#X obj 1248 168 b;
#N canvas 0 23 827 539 keydn-amp 0;
#X obj 141 30 inlet;
#X obj 137 151 f;
#X obj 168 151 + 1;
#X obj 142 296 list trim;
#X obj 142 355 outlet;
#X obj 198 151 % 2;
#X msg 310 275 ui number \$1 3 \, ui blink 1;
#X obj 140 59 route single;
#X obj 142 275 list prepend mute;
#X obj 308 208 swap 2;
#X obj 308 229 -;
#X connect 0 0 7 0;
#X connect 1 0 2 0;
#X connect 1 0 8 0;
#X connect 1 0 9 0;
#X connect 2 0 5 0;
#X connect 3 0 4 0;
#X connect 5 0 1 1;
#X connect 6 0 4 0;
#X connect 7 0 1 0;
#X connect 8 0 3 0;
#X connect 9 0 10 0;
#X connect 9 1 10 1;
#X connect 10 0 6 0;
#X restore 965 260 pd keydn-amp;
#N canvas 373 23 483 410 keydn-mod 0;
#X obj 37 -1 inlet;
#X msg 76 65 0;
#X obj 34 112 f;
#X obj 65 112 + 1;
#X obj 95 112 % 4;
#X obj 39 236 list prepend mod-offset;
#X obj 39 257 list trim;
#X obj 39 316 outlet;
#X obj 205 215 -;
#X obj 205 194 swap 5;
#X text 203 156 comment;
#X msg 205 238 ui number \$1 4 \, ui blink 1;
#X obj 37 20 route 1;
#X obj 77 41 route long;
#X connect 0 0 12 0;
#X connect 1 0 2 0;
#X connect 2 0 3 0;
#X connect 2 0 5 0;
#X connect 2 0 9 0;
#X connect 3 0 4 0;
#X connect 4 0 2 1;
#X connect 5 0 6 0;
#X connect 6 0 7 0;
#X connect 8 0 11 0;
#X connect 9 0 8 0;
#X connect 9 1 8 1;
#X connect 11 0 7 0;
#X connect 12 0 2 0;
#X connect 12 1 13 0;
#X connect 13 0 1 0;
#X restore 1033 290 pd keydn-mod;
#N canvas 196 27 650 457 keydn-src 0;
#X obj 37 37 inlet;
#X obj 29 162 f;
#X obj 60 162 + 1;
#X obj 34 307 list trim;
#X obj 34 366 outlet;
#X text 340 193 comment;
#X obj 90 162 % 2;
#X obj 34 286 list prepend source-invert;
#X obj 32 70 route single long;
#X msg 202 286 ui number \$1 3 \, ui blink 1;
#X msg 168 162 2;
#X msg 387 285 reset-source-range;
#X obj 108 217 * 3;
#X connect 0 0 8 0;
#X connect 1 0 2 0;
#X connect 1 0 7 0;
#X connect 1 0 12 0;
#X connect 2 0 6 0;
#X connect 3 0 4 0;
#X connect 6 0 1 1;
#X connect 7 0 3 0;
#X connect 8 0 1 0;
#X connect 8 1 10 0;
#X connect 8 1 11 0;
#X connect 9 0 4 0;
#X connect 10 0 9 0;
#X connect 11 0 4 0;
#X connect 12 0 9 0;
#X restore 1102 320 pd keydn-src;
#X obj 907 128 t a a;
#X obj 1220 190 delay 800;
#X obj 1102 341 print keydn-src;
#X obj 1034 130 route long;
#X obj 1104 129 route 0 1;
#X text 994 365 TODO state save these;
#X msg 603 105 2;
#X connect 0 0 1 0;
#X connect 0 0 20 0;
#X connect 0 0 3 0;
#X connect 2 0 3 1;
#X connect 2 0 5 0;
#X connect 2 1 6 0;
#X connect 2 1 10 1;
#X connect 2 1 12 0;
#X connect 2 1 21 1;
#X connect 4 0 2 1;
#X connect 7 0 18 0;
#X connect 8 0 17 0;
#X connect 9 0 19 0;
#X connect 10 0 22 0;
#X connect 11 0 12 1;
#X connect 11 0 23 0;
#X connect 12 0 8 1;
#X connect 12 0 14 0;
#X connect 12 0 25 1;
#X connect 12 1 7 1;
#X connect 12 1 15 0;
#X connect 12 1 24 1;
#X connect 12 2 9 1;
#X connect 12 2 16 0;
#X connect 12 2 26 1;
#X connect 13 0 8 0;
#X connect 13 0 7 0;
#X connect 13 0 9 0;
#X connect 17 0 1 0;
#X connect 18 0 1 0;
#X connect 19 0 1 0;
#X connect 20 0 4 0;
#X connect 20 1 10 0;
#X connect 20 2 21 0;
#X connect 21 0 31 0;
#X connect 22 0 27 0;
#X connect 22 1 11 0;
#X connect 23 0 1 0;
#X connect 24 0 29 0;
#X connect 25 0 28 0;
#X connect 26 0 30 0;
#X connect 27 0 23 1;
#X connect 28 0 1 0;
#X connect 29 0 1 0;
#X connect 30 0 33 0;
#X connect 30 0 1 0;
#X connect 31 0 24 0;
#X connect 31 0 26 0;
#X connect 31 0 25 0;
#X connect 31 1 34 0;
#X connect 32 0 23 0;
#X connect 34 0 32 0;
#X connect 34 1 35 0;
#X connect 35 0 32 0;
#X connect 35 1 27 0;
#X connect 37 0 2 1;
#X restore 358 103 pd menu;
#X obj -32 384 catch~ setup-audio;
#X obj 603 425 loadbang;
#X obj 603 449 metro 250;
#X obj 670 420 r bno_pitch;
#X obj 603 520 pack f f f;
#X obj 603 470 f;
#X obj 603 562 print bno;
#X obj 603 491 change;
#X obj 670 450 r bno_roll;
#X obj 670 480 r bno_yaw;
#X connect 0 0 2 0;
#X connect 4 0 8 0;
#X connect 5 0 10 0;
#X connect 5 1 10 1;
#X connect 5 2 10 2;
#X connect 5 3 10 3;
#X connect 5 4 10 4;
#X connect 6 0 14 0;
#X connect 6 1 14 1;
#X connect 6 2 15 0;
#X connect 6 3 15 1;
#X connect 6 4 15 2;
#X connect 6 5 15 3;
#X connect 6 6 9 0;
#X connect 7 0 11 0;
#X connect 7 1 11 1;
#X connect 7 2 11 2;
#X connect 7 3 11 3;
#X connect 8 0 20 0;
#X connect 10 0 6 0;
#X connect 10 1 6 1;
#X connect 10 2 6 2;
#X connect 10 3 6 3;
#X connect 10 4 6 4;
#X connect 11 0 5 0;
#X connect 11 1 5 1;
#X connect 11 2 5 2;
#X connect 11 3 5 3;
#X connect 11 4 5 4;
#X connect 12 0 5 4;
#X connect 13 0 4 0;
#X connect 16 0 20 0;
#X connect 20 0 11 4;
#X connect 21 0 14 0;
#X connect 21 0 14 1;
#X connect 22 0 23 0;
#X connect 23 0 26 0;
#X connect 24 0 26 1;
#X connect 25 0 27 0;
#X connect 26 0 28 0;
#X connect 28 0 25 0;
#X connect 29 0 25 1;
#X connect 30 0 25 2;
