#N canvas 411 150 964 592 10;
#X obj 16 4 loadbang;
#X obj 22 262 list;
#X obj 22 291 print bar1-4;
#X obj 46 102 bar bar1;
#X obj 105 102 bar bar2;
#X obj 165 102 bar bar3;
#X obj 227 102 bar bar4;
#X obj 16 33 t a a a;
#X obj 42 160 pack 0 0 0 0;
#X obj 105 131 t b a;
#X obj 165 131 t b a;
#X obj 227 131 t b a;
#N canvas 120 374 913 408 init 0;
#X obj 112 23 inlet;
#X msg 133 65 new bar1 1 BAR 32 \, new bar2 1 BAR 33 \, new bar3 1
BAR 34 \, new bar4 1 BAR 35;
#X obj 133 193 s bela_setTrill;
#X obj 227 100 r bela_trillCreated;
#X obj 477 217 s bela_setDigital;
#X msg 476 141 out 19 \, out 20 \, out 22;
#X text 624 138 LED R/G/B;
#X obj 492 271 digDebug 11;
#X obj 492 291 digDebug 12;
#X obj 572 271 digDebug 13;
#X obj 572 291 digDebug 14;
#X obj 490 311 digDebug 15;
#X obj 491 331 digDebug 16;
#X obj 571 311 digDebug 23;
#X obj 571 331 digDebug 26;
#X obj 571 351 digDebug 24;
#X obj 122 44 t b b b b;
#X msg 499 166 in 16 \, in 23 \, in 24 \, in 26;
#X msg 260 238 \; DEBUG 0;
#X obj 224 129 list;
#X msg 224 161 prescaler \$1 2 \, threshold \$1 0.05;
#X connect 0 0 16 0;
#X connect 1 0 2 0;
#X connect 3 0 19 0;
#X connect 5 0 4 0;
#X connect 16 0 1 0;
#X connect 16 1 5 0;
#X connect 16 2 17 0;
#X connect 16 3 18 0;
#X connect 17 0 4 0;
#X connect 19 0 20 0;
#X connect 20 0 2 0;
#X restore 55 58 pd init;
#X obj 393 123 volume~ bar1;
#X obj 413 153 volume~ bar2;
#X obj 437 180 volume~ bar3;
#X obj 457 210 volume~ bar4;
#X obj 654 194 + 1;
#X obj 625 193 0;
#X obj 625 171 metro 1000;
#X obj 681 193 % 2;
#X obj 625 143 bng 15 250 50 0 empty empty empty 17 7 0 10 -262144
-1 -1;
#N canvas 467 106 592 347 digitalRouting 0;
#X obj 129 25 r led_red;
#X obj 129 45 s bela_digitalOut19;
#X obj 129 65 r led_green;
#X obj 129 85 s bela_digitalOut20;
#X obj 129 105 r led_blue;
#X obj 129 125 s bela_digitalOut22;
#X obj 408 169 r bela_digitalIn16;
#X obj 408 253 s switch;
#X obj 249 236 r bela_digitalIn26;
#X obj 249 256 s button_keyDn;
#X obj 249 196 r bela_digitalIn24;
#X obj 248 215 s button_keyUp;
#X obj 129 257 s button_small;
#X obj 128 162 r bela_digitalIn23;
#X obj 408 231 -;
#X msg 407 192 1 \$1;
#X obj 129 225 debounce 10;
#X obj 128 183 sel 1;
#X msg 65 168 1;
#X connect 0 0 1 0;
#X connect 2 0 3 0;
#X connect 4 0 5 0;
#X connect 6 0 15 0;
#X connect 8 0 9 0;
#X connect 10 0 11 0;
#X connect 13 0 17 0;
#X connect 14 0 7 0;
#X connect 15 0 14 0;
#X connect 16 0 12 0;
#X connect 17 0 16 0;
#X connect 18 0 17 0;
#X restore 200 29 pd digitalRouting;
#X obj 624 219 s led_blue;
#X obj 517 95 r switch;
#X obj 557 44 dac~ 27 28 29 30;
#X text 700 50 scope;
#X obj 22 233 metro 1000;
#X obj 188 415 r bela_trill;
#X obj 189 484 print bela_trill;
#X obj 391 349 *~ 1;
#X obj 391 382 dac~;
#X obj 456 304 osc~ 440;
#X obj 456 330 *~;
#X obj 477 278 * 0.1;
#X obj 487 331 print;
#X obj 477 257 -;
#X msg 476 236 1 \$1;
#X obj 393 82 *~ 2;
#X obj 417 53 *~ 2;
#X obj 443 82 *~ 2;
#X obj 467 53 *~ 2;
#X obj 394 13 adc~ 4 3 2 1;
#X obj 192 438 route bar3;
#X obj 688 369 calibration;
#X obj 197 252 r button_small;
#X obj 137 271 print CALIR;
#X obj 5 372 metro 1000;
#X obj 47 394 f;
#X obj 50 420 print YAW;
#X obj 202 360 r bno_calibrated;
#X obj 201 381 print quaternion;
#X obj 325 446 s bno;
#X msg 203 297 calibrate;
#X msg 325 426 loadCalibration 0.737461 -0.0125336 0.0861801 -0.669751
;
#X obj 59 334 r bno_yaw;
#X connect 0 0 7 0;
#X connect 0 0 19 0;
#X connect 3 0 8 0;
#X connect 4 0 9 0;
#X connect 5 0 10 0;
#X connect 6 0 11 0;
#X connect 7 0 27 0;
#X connect 7 0 47 0;
#X connect 7 1 8 0;
#X connect 7 2 12 0;
#X connect 7 2 54 0;
#X connect 8 0 1 1;
#X connect 9 0 8 0;
#X connect 9 1 8 1;
#X connect 10 0 8 0;
#X connect 10 1 8 2;
#X connect 11 0 8 0;
#X connect 11 1 8 3;
#X connect 13 0 30 0;
#X connect 14 0 30 0;
#X connect 14 0 25 1;
#X connect 15 0 30 0;
#X connect 16 0 30 0;
#X connect 17 0 20 0;
#X connect 18 0 17 0;
#X connect 18 0 23 0;
#X connect 19 0 18 0;
#X connect 20 0 18 1;
#X connect 21 0 19 0;
#X connect 24 0 15 1;
#X connect 24 0 37 0;
#X connect 24 0 13 1;
#X connect 24 0 14 1;
#X connect 24 0 16 1;
#X connect 27 0 1 0;
#X connect 28 0 43 0;
#X connect 30 0 31 0;
#X connect 30 0 31 1;
#X connect 32 0 33 0;
#X connect 33 0 30 0;
#X connect 34 0 33 1;
#X connect 36 0 34 0;
#X connect 37 0 36 0;
#X connect 38 0 13 0;
#X connect 39 0 14 0;
#X connect 40 0 15 0;
#X connect 41 0 16 0;
#X connect 42 0 25 0;
#X connect 42 0 38 0;
#X connect 42 1 39 0;
#X connect 42 2 40 0;
#X connect 42 3 41 0;
#X connect 45 0 46 0;
#X connect 45 0 53 0;
#X connect 47 0 48 0;
#X connect 48 0 49 0;
#X connect 50 0 51 0;
#X connect 53 0 52 0;
#X connect 54 0 52 0;
#X connect 55 0 48 1;
