#N canvas 253 61 1058 733 10;
#X declare -path abs -path rj -path patches;
#X obj 16 4 loadbang;
#X obj 22 262 list;
#X obj 22 291 print bar1-4;
#X obj 46 102 bar bar1;
#X obj 105 102 bar bar2;
#X obj 165 102 bar bar3;
#X obj 227 102 bar bar4;
#X obj 16 33 t a a a;
#X obj 42 160 pack 0 0 0 0;
#X obj 105 131 t b a;
#X obj 165 131 t b a;
#X obj 227 131 t b a;
#X obj 358 431 volume~ bar1;
#X obj 378 461 volume~ bar2;
#X obj 402 488 volume~ bar3;
#X obj 422 518 volume~ bar4;
#X obj 139 50 + 1;
#X obj 110 49 0;
#X obj 110 27 metro 1000;
#X obj 166 49 % 2;
#X obj 109 75 s led_blue;
#X obj 482 403 r switch;
#X obj 282 401 dac~ 27 28 29 30;
#X text 700 50 scope;
#X obj 22 233 metro 1000;
#X obj 11 520 r bela_trill;
#X obj 12 589 print bela_trill;
#X obj 356 657 *~ 1;
#X obj 356 690 dac~;
#X obj 421 612 osc~ 440;
#X obj 421 638 *~;
#X obj 442 586 * 0.1;
#X obj 452 639 print;
#X obj 442 565 -;
#X msg 441 544 1 \$1;
#X obj 15 543 route bar3;
#X obj 5 372 metro 1000;
#X obj 47 394 f;
#X obj 50 420 print YAW;
#X obj 59 334 r bno_yaw;
#N canvas 0 23 726 379 IMU-calibration 0;
#X obj 451 40 r bno_calibrated;
#X obj 340 67 u_sssad calibration;
#X obj 340 87 list prepend loadCalibration;
#X obj 340 108 list trim;
#X obj 341 173 s bno;
#X text 178 70 Save & load calibration;
#X obj 59 28 r button_small;
#X msg 59 50 calibrate;
#X text 159 30 FIXME - ska inte styras direkt från knapp;
#X connect 0 0 1 1;
#X connect 1 0 2 0;
#X connect 2 0 3 0;
#X connect 3 0 4 0;
#X connect 6 0 7 0;
#X connect 7 0 4 0;
#X restore 811 169 pd IMU-calibration;
#N canvas 120 374 913 408 initTrillDigital 0;
#X obj 112 23 inlet;
#X msg 133 65 new bar1 1 BAR 32 \, new bar2 1 BAR 33 \, new bar3 1
BAR 34 \, new bar4 1 BAR 35;
#X obj 133 193 s bela_setTrill;
#X obj 227 100 r bela_trillCreated;
#X obj 477 217 s bela_setDigital;
#X msg 476 141 out 19 \, out 20 \, out 22;
#X text 624 138 LED R/G/B;
#X obj 492 271 digDebug 11;
#X obj 492 291 digDebug 12;
#X obj 572 271 digDebug 13;
#X obj 572 291 digDebug 14;
#X obj 490 311 digDebug 15;
#X obj 491 331 digDebug 16;
#X obj 571 311 digDebug 23;
#X obj 571 331 digDebug 26;
#X obj 571 351 digDebug 24;
#X obj 122 44 t b b b b;
#X msg 499 166 in 16 \, in 23 \, in 24 \, in 26;
#X msg 260 238 \; DEBUG 0;
#X obj 224 129 list;
#X msg 224 161 prescaler \$1 2 \, threshold \$1 0.05;
#X connect 0 0 16 0;
#X connect 1 0 2 0;
#X connect 3 0 19 0;
#X connect 5 0 4 0;
#X connect 16 0 1 0;
#X connect 16 1 5 0;
#X connect 16 2 17 0;
#X connect 16 3 18 0;
#X connect 17 0 4 0;
#X connect 19 0 20 0;
#X connect 20 0 2 0;
#X restore -19 73 pd initTrillDigital;
#X obj 811 12 declare -path abs -path rj -path patches;
#X obj 386 244 clone-wrapper 1 patch;
#N canvas 659 55 781 500 parameters 0;
#X obj 245 437 outlet;
#X obj 88 62 loadbang;
#X obj 557 49 r RJ_SCENE;
#X obj 557 76 print RJ_SCENE;
#X obj 559 20 u_loader main \$0;
#X text 383 64 Patch selection;
#X text 383 94 Preamp for strings;
#X obj 246 174 param preamp-c \$0 2;
#X obj 246 194 param preamp-g \$0 2;
#X obj 246 216 param preamp-d \$0 2;
#X obj 246 237 param preamp-a \$0 2;
#X obj 246 145 param patch \$0 0;
#X msg 40 49 save;
#X msg 88 84 load;
#N canvas 0 23 450 300 loadSave 0;
#X obj 212 75 r RJ_SCENE;
#X msg 92 165 clear;
#X obj 437 223 s RJ_SCENE_LOAD;
#X obj 45 237 textfile;
#X obj 212 101 list prepend add;
#X obj 212 129 list trim;
#X msg 45 129 write settings.txt;
#X obj 437 183 textfile;
#X obj 437 123 until;
#X msg 482 150 read \$1 \, rewind;
#X obj 437 99 t b a;
#X msg 437 75 symbol settings.txt;
#X obj 45 -18 inlet;
#X obj 45 6 route save load;
#X msg 69 69 save;
#X obj 69 93 s RJ_SCENE_SAVE;
#X obj 45 30 t b b b;
#X text 438 25 Messages: save get all parameters and store to disk
load load all parameters from disk;
#X connect 0 0 4 0;
#X connect 1 0 3 0;
#X connect 4 0 5 0;
#X connect 5 0 3 0;
#X connect 6 0 3 0;
#X connect 7 0 2 0;
#X connect 7 1 8 1;
#X connect 8 0 7 0;
#X connect 9 0 7 0;
#X connect 10 0 8 0;
#X connect 10 1 9 0;
#X connect 11 0 10 0;
#X connect 12 0 13 0;
#X connect 13 0 16 0;
#X connect 13 1 11 0;
#X connect 14 0 15 0;
#X connect 16 0 6 0;
#X connect 16 1 14 0;
#X connect 16 2 1 0;
#X restore 88 113 pd loadSave;
#X obj 40 24 r closebang;
#X text 36 1 todo: implement save-on-close;
#X obj 112 259 r bela_trill;
#X obj 112 282 list prepend trill;
#X obj 113 303 list trim;
#X text 272 262 comment;
#X connect 1 0 13 0;
#X connect 2 0 3 0;
#X connect 7 0 8 0;
#X connect 8 0 9 0;
#X connect 9 0 10 0;
#X connect 10 0 0 0;
#X connect 11 0 7 0;
#X connect 12 0 14 0;
#X connect 13 0 14 0;
#X connect 15 0 12 0;
#X connect 17 0 18 0;
#X connect 18 0 19 0;
#X connect 19 0 0 0;
#X restore 507 -7 pd parameters;
#N canvas 0 23 625 324 pre 0;
#X obj 107 39 inlet~;
#X obj 107 191 outlet~;
#X obj 157 39 inlet~;
#X obj 157 191 outlet~;
#X obj 207 39 inlet~;
#X obj 207 191 outlet~;
#X obj 257 39 inlet~;
#X obj 257 191 outlet~;
#X obj 327 39 inlet;
#X obj 571 93 outlet;
#X obj 257 170 *~;
#X obj 207 170 *~;
#X obj 157 170 *~;
#X obj 107 170 *~;
#X obj 122 116 liner~;
#X obj 172 125 liner~;
#X obj 222 135 liner~;
#X obj 272 145 liner~;
#X obj 327 64 route preamp-c preamp-g preamp-d preamp-g;
#X connect 0 0 13 0;
#X connect 2 0 12 0;
#X connect 4 0 11 0;
#X connect 6 0 10 0;
#X connect 8 0 18 0;
#X connect 10 0 7 0;
#X connect 11 0 5 0;
#X connect 12 0 3 0;
#X connect 13 0 1 0;
#X connect 14 0 13 1;
#X connect 15 0 12 1;
#X connect 16 0 11 1;
#X connect 17 0 10 1;
#X connect 18 0 14 0;
#X connect 18 1 15 0;
#X connect 18 2 16 0;
#X connect 18 3 17 0;
#X connect 18 4 9 0;
#X restore 386 118 pd pre;
#X f 21;
#X text 531 144 patches are named patch-0.pd \, patch-1.pd etc inside
patches/ change number to number of patches;
#N canvas 0 23 450 300 post 0;
#X obj 88 28 inlet~;
#X obj 225 27 inlet~;
#X obj 88 189 outlet~;
#X obj 225 188 outlet~;
#X obj 379 27 inlet;
#X obj 379 186 outlet;
#X connect 0 0 2 0;
#X connect 1 0 3 0;
#X restore 385 325 pd post;
#X f 21;
#X obj 385 355 dac~, f 11;
#X text 676 103 select + show patch;
#X msg 535 103 patch \$1 \, patch vis 1;
#X obj 534 85 hradio 15 1 0 8 empty empty empty 0 -8 0 10 -262144 -1
-1 0;
#X obj 387 77 adc~ 1 2 3 4, f 16;
#N canvas 428 325 774 502 menu 0;
#X obj 239 170 menu-item 1;
#X obj 117 25 inlet buttons;
#N canvas 455 61 450 300 setup 0;
#X obj 66 25 inlet;
#X obj 266 42 inlet;
#X obj 198 106 menu-item 1;
#X obj 256 136 menu-item 2;
#N canvas 0 474 450 300 calibration 0;
#X obj 110 31 inlet;
#X restore 48 111 pd calibration;
#X obj 66 76 menu-item 0 btn_small/short 3;
#X connect 0 0 5 0;
#X connect 1 0 5 1;
#X connect 2 2 3 0;
#X connect 2 3 3 1;
#X connect 5 0 4 0;
#X connect 5 2 2 0;
#X connect 5 3 2 1;
#X restore 116 167 pd setup;
#X obj 116 138 menu-item 0 switch 2;
#X obj 209 84 tgl 15 0 empty empty empty 17 7 0 10 -262144 -1 -1 0
1;
#X msg 213 108 switch \$1;
#X obj 239 196 route menu;
#X obj 239 354 list prepend patch;
#X text 316 197 on/off message;
#X obj 239 378 list trim;
#X obj 239 399 print;
#X obj 116 53 t a a;
#X obj 535 387 outlet;
#X msg 239 80 btn_small short;
#X text 383 263 reset to first patch on long press;
#X obj 533 86 t a;
#X msg 295 261 next;
#X obj 296 240 route single long;
#X obj 296 219 route btn_small;
#X connect 0 0 6 0;
#X connect 1 0 11 0;
#X connect 3 0 2 0;
#X connect 3 1 2 1;
#X connect 3 2 0 0;
#X connect 3 3 0 1;
#X connect 4 0 5 0;
#X connect 5 0 3 0;
#X connect 6 0 7 0;
#X connect 6 1 18 0;
#X connect 7 0 9 0;
#X connect 9 0 10 0;
#X connect 9 0 12 0;
#X connect 11 0 3 0;
#X connect 11 1 15 0;
#X connect 13 0 3 0;
#X connect 15 0 12 0;
#X connect 16 0 7 0;
#X connect 17 0 16 0;
#X connect 17 1 7 0;
#X connect 18 0 17 0;
#X connect 18 1 7 0;
#X restore 506 55 pd menu;
#X msg 533 186 patch vis 1;
#N canvas 583 180 450 300 netsend 0;
#X obj 157 32 inlet;
#X obj 153 170 list prepend send;
#X obj 153 191 list trim;
#X obj 208 63 loadbang;
#X msg 208 84 connect 192.168.7.1 3550;
#X obj 153 212 netsend -u;
#X obj 112 64 route trill;
#X msg 404 162 listen 0, f 14;
#X obj 304 187 netreceive -u;
#X msg 308 135 listen 0 \, listen 3550;
#X obj 307 238 outlet;
#X connect 0 0 6 0;
#X connect 1 0 2 0;
#X connect 2 0 5 0;
#X connect 3 0 4 0;
#X connect 4 0 5 0;
#X connect 6 1 1 0;
#X connect 7 0 8 0;
#X connect 8 0 10 0;
#X connect 9 0 8 0;
#X restore 506 33 pd netsend;
#X msg 621 185 patch;
#X obj 574 252 print;
#N canvas 467 106 828 676 digitalRouting 0;
#X obj 129 25 r led_red;
#X obj 129 45 s bela_digitalOut19;
#X obj 129 65 r led_green;
#X obj 129 85 s bela_digitalOut20;
#X obj 129 105 r led_blue;
#X obj 129 125 s bela_digitalOut22;
#X obj 394 340 r bela_digitalIn16;
#X obj 238 320 r bela_digitalIn26;
#X obj 237 172 r bela_digitalIn24;
#X obj 54 180 r bela_digitalIn23;
#X obj 396 401 -;
#X msg 395 381 1 \$1;
#X obj 396 423 list prepend switch;
#X obj 238 409 list prepend btn_keyDn;
#X obj 54 271 list prepend btn_small;
#X obj 304 53 route red green blue;
#X obj 630 19 route led;
#X obj 629 -6 inlet;
#X obj 156 487 list trim;
#X obj 683 561 outlet;
#X obj 119 539 print;
#X obj 54 201 debounce 10;
#X obj 237 193 debounce 10;
#X obj 238 341 debounce 10;
#X obj 394 361 debounce 10;
#X obj 53 222 t a a;
#X obj 239 360 t a a;
#X obj 237 212 t a a;
#X obj 236 251 list prepend btn_keyUp;
#X obj 53 241 button-gestures 500;
#X obj 237 231 button-gestures 500 250 1;
#X obj 239 379 button-gestures 500 250 1;
#X connect 0 0 1 0;
#X connect 2 0 3 0;
#X connect 4 0 5 0;
#X connect 6 0 24 0;
#X connect 7 0 23 0;
#X connect 8 0 22 0;
#X connect 9 0 21 0;
#X connect 10 0 12 0;
#X connect 11 0 10 0;
#X connect 12 0 18 0;
#X connect 13 0 18 0;
#X connect 14 0 18 0;
#X connect 15 0 1 0;
#X connect 15 1 3 0;
#X connect 15 2 5 0;
#X connect 16 0 15 0;
#X connect 16 1 19 0;
#X connect 17 0 16 0;
#X connect 18 0 19 0;
#X connect 18 0 20 0;
#X connect 21 0 25 0;
#X connect 22 0 27 0;
#X connect 23 0 26 0;
#X connect 24 0 11 0;
#X connect 25 0 29 0;
#X connect 25 1 14 0;
#X connect 26 0 31 0;
#X connect 26 1 13 0;
#X connect 27 0 30 0;
#X connect 27 1 28 0;
#X connect 28 0 18 0;
#X connect 29 0 14 0;
#X connect 30 0 28 0;
#X connect 31 0 13 0;
#X restore 506 12 pd digitalRouting;
#X connect 0 0 7 0;
#X connect 0 0 18 0;
#X connect 3 0 8 0;
#X connect 4 0 9 0;
#X connect 5 0 10 0;
#X connect 6 0 11 0;
#X connect 7 0 24 0;
#X connect 7 0 36 0;
#X connect 7 1 8 0;
#X connect 7 2 41 0;
#X connect 8 0 1 1;
#X connect 9 0 8 0;
#X connect 9 1 8 1;
#X connect 10 0 8 0;
#X connect 10 1 8 2;
#X connect 11 0 8 0;
#X connect 11 1 8 3;
#X connect 12 0 27 0;
#X connect 13 0 27 0;
#X connect 13 0 22 1;
#X connect 14 0 27 0;
#X connect 15 0 27 0;
#X connect 16 0 19 0;
#X connect 17 0 16 0;
#X connect 17 0 20 0;
#X connect 18 0 17 0;
#X connect 19 0 17 1;
#X connect 21 0 34 0;
#X connect 21 0 12 2;
#X connect 21 0 14 1;
#X connect 21 0 13 1;
#X connect 21 0 15 1;
#X connect 24 0 1 0;
#X connect 25 0 35 0;
#X connect 27 0 28 0;
#X connect 27 0 28 1;
#X connect 29 0 30 0;
#X connect 30 0 27 0;
#X connect 31 0 30 1;
#X connect 33 0 31 0;
#X connect 34 0 33 0;
#X connect 36 0 37 0;
#X connect 39 0 37 1;
#X connect 43 0 47 0;
#X connect 43 1 47 1;
#X connect 43 2 47 2;
#X connect 44 0 58 0;
#X connect 45 0 43 0;
#X connect 45 1 43 1;
#X connect 45 2 43 2;
#X connect 45 3 43 3;
#X connect 45 4 43 4;
#X connect 47 0 48 0;
#X connect 47 1 48 1;
#X connect 50 0 43 4;
#X connect 51 0 50 0;
#X connect 52 0 22 0;
#X connect 52 0 45 0;
#X connect 52 1 45 1;
#X connect 52 2 45 2;
#X connect 52 3 45 3;
#X connect 53 0 45 4;
#X connect 53 0 57 0;
#X connect 54 0 43 4;
#X connect 55 0 53 0;
#X connect 58 0 55 0;
