#N canvas 232 311 651 341 12;
#X obj 77 20 r bela_trill;
#X obj 77 44 route \$1;
#X obj 77 68 route 1 2 3 4;
#X obj 77 92 unpack f f;
#X obj 76 123 outlet;
#X obj 139 123 outlet;
#X connect 0 0 1 0;
#X connect 1 0 2 0;
#X connect 2 0 3 0;
#X connect 3 0 4 0;
#X connect 3 1 5 0;
