#N canvas 151 144 450 300 12;
#X obj 110 34 inlet;
#X obj 109 160 spigot 1;
#X msg 111 85 0;
#X obj 108 243 outlet;
#X obj 176 86 delay \$1;
#X obj 171 121 1;
#X obj 110 61 t b b b;
#X connect 0 0 6 0;
#X connect 1 0 3 0;
#X connect 2 0 1 1;
#X connect 4 0 5 0;
#X connect 5 0 1 1;
#X connect 6 0 2 0;
#X connect 6 1 1 0;
#X connect 6 2 4 0;
