#N canvas 258 48 1228 855 10;
#X declare -path abs rj;
#X obj 120 32 devGui;
#X msg 44 322 read settings.txt \, click;
#X obj 44 347 text define settings;
#X obj 803 18 r devGuiButtons;
#X obj 713 80 mux-2 setup play;
#N canvas 0 23 450 300 setup 0;
#X obj 133 20 inlet;
#X restore 713 121 pd setup;
#X obj 804 57 + 1;
#X obj 1032 43 declare -path abs rj;
#X obj 712 105 mux-vis setup;
#X obj 806 106 mux-vis play;
#X obj 804 263 mux-vis main;
#X obj 804 278 mux-4 amp freq delay osc;
#X obj 806 121 mux-5 main mod-amp mod-freq mod-delay mod-osc;
#X obj 804 295 mux-vis amp;
#X obj 851 299 mux-vis freq;
#X obj 898 302 mux-vis delay;
#X obj 942 306 mux-vis osc;
#X obj 1073 100 button-reset-counter 5;
#X obj 803 37 route switch btn_small;
#X obj 943 232 route btn_keyUp;
#X obj 942 257 button-reset-counter 4;
#X obj 762 374;
#X obj 252 421 _main;
#X obj 805 346 list prepend mux;
#X obj 403 323;
#X obj 474 414 mux-4 amp freq delay osc;
#X obj 474 431 mux-vis amp;
#X obj 521 435 mux-vis freq;
#X obj 568 438 mux-vis delay;
#X obj 612 442 mux-vis osc;
#X obj 474 501 mux-vis amp;
#X obj 521 505 mux-vis freq;
#X obj 568 508 mux-vis delay;
#X obj 613 512 mux-vis osc;
#X obj 619 463 hradio 15 1 0 8 empty empty empty 0 -8 0 10 -262144
-1 -1 1;
#X obj 609 393 hradio 15 1 0 8 empty empty empty 0 -8 0 10 -262144
-1 -1 1;
#X obj 476 267 mux-start;
#X obj 384 313 print path;
#X obj 302 427;
#X obj 458 603 mux-3;
#X obj 458 573 mux-2;
#X obj 507 572 mux-5, f 22;
#X obj 878 487 lis;
#X msg 878 529 1 2 3;
#X obj 878 621 print;
#X obj 878 556 list split 6;
#X text 644 447 FIXME return right path when turning off 2nd;
#X obj 318 374 r _MUXPATH;
#X obj 576 461 bng 15 250 50 0 empty empty empty 17 7 0 10 -262144
-1 -1;
#X obj 574 382 bng 15 250 50 0 empty empty empty 17 7 0 10 -262144
-1 -1;
#X obj 475 484 mux-5 amp freq delay osc foo;
#X obj 644 511 mux-vis foo;
#X connect 1 0 2 0;
#X connect 3 0 18 0;
#X connect 4 0 5 0;
#X connect 4 0 8 0;
#X connect 4 1 9 0;
#X connect 4 1 12 0;
#X connect 6 0 4 1;
#X connect 11 0 13 0;
#X connect 11 1 14 0;
#X connect 11 2 15 0;
#X connect 11 3 16 0;
#X connect 12 0 10 0;
#X connect 12 0 11 0;
#X connect 17 0 12 1;
#X connect 18 0 6 0;
#X connect 18 1 17 0;
#X connect 18 2 19 0;
#X connect 19 0 20 0;
#X connect 20 0 11 1;
#X connect 25 0 26 0;
#X connect 25 0 50 0;
#X connect 25 1 27 0;
#X connect 25 2 28 0;
#X connect 25 3 29 0;
#X connect 34 0 50 1;
#X connect 35 0 25 1;
#X connect 36 0 37 0;
#X connect 36 1 25 0;
#X connect 43 0 45 0;
#X connect 45 2 44 0;
#X connect 48 0 50 1;
#X connect 49 0 25 1;
#X connect 50 0 30 0;
#X connect 50 1 31 0;
#X connect 50 2 32 0;
#X connect 50 3 33 0;
#X connect 50 4 51 0;
