#N canvas 212 23 1228 855 10;
#X declare -path abs rj;
#X obj 120 32 devGui;
#X msg 44 322 read settings.txt \, click;
#X obj 44 347 text define settings;
#X obj 219 440 r devGuiButtons;
#X obj 129 502 mux-2 setup play;
#N canvas 0 23 450 300 setup 0;
#X obj 133 20 inlet;
#X restore 129 543 pd setup;
#X obj 220 479 + 1;
#X obj 448 465 declare -path abs rj;
#X obj 128 527 mux-vis setup;
#X obj 222 528 mux-vis play;
#X obj 221 622 mux-vis main;
#X obj 219 637 mux-4 amp freq delay osc;
#X obj 222 543 mux-5 main mod-amp mod-freq mod-delay mod-osc;
#X obj 219 654 mux-vis amp;
#X obj 266 658 mux-vis freq;
#X obj 313 661 mux-vis delay;
#X obj 357 665 mux-vis osc;
#X obj 489 522 button-reset-counter 5;
#X obj 256 617 button-reset-counter 4;
#X obj 405 638 mux-4 amp freq delay osc;
#X obj 405 655 mux-vis amp;
#X obj 452 659 mux-vis freq;
#X obj 499 662 mux-vis delay;
#X obj 543 666 mux-vis osc;
#X obj 455 620 button-reset-counter 4;
#X obj 403 622 mux-vis mod-amp;
#X obj 16 681 mux-start;
#X msg 79 457 init;
#X obj 78 478 mux-start;
#X obj 38 512 print mux-menu;
#X obj 219 459 route switch btn_small btn_keyUp;
#X obj 455 591 mux-spigot;
#X obj 255 597 mux-spigot;
#X obj 609 637 mux-4 amp freq delay osc;
#X obj 609 654 mux-vis amp;
#X obj 656 658 mux-vis freq;
#X obj 703 661 mux-vis delay;
#X obj 747 665 mux-vis osc;
#X obj 670 617 button-reset-counter 4;
#X obj 825 638 mux-4 amp freq delay osc;
#X obj 825 655 mux-vis amp;
#X obj 872 659 mux-vis freq;
#X obj 919 662 mux-vis delay;
#X obj 963 666 mux-vis osc;
#X obj 875 620 button-reset-counter 4;
#X obj 874 596 mux-spigot;
#X obj 645 597 mux-spigot;
#X obj 608 618 mux-vis mod-freq;
#X obj 825 617 mux-vis mod-delay;
#X obj 1035 638 mux-4 amp freq delay osc;
#X obj 1035 655 mux-vis amp;
#X obj 1082 659 mux-vis freq;
#X obj 1129 662 mux-vis delay;
#X obj 1173 666 mux-vis osc;
#X obj 1085 620 button-reset-counter 4;
#X obj 1084 596 mux-spigot;
#X obj 1032 617 mux-vis mod-osc;
#X connect 1 0 2 0;
#X connect 3 0 30 0;
#X connect 4 0 5 0;
#X connect 4 0 8 0;
#X connect 4 1 9 0;
#X connect 4 1 12 0;
#X connect 6 0 4 1;
#X connect 11 0 13 0;
#X connect 11 1 14 0;
#X connect 11 2 15 0;
#X connect 11 3 16 0;
#X connect 12 0 10 0;
#X connect 12 0 11 0;
#X connect 12 0 32 1;
#X connect 12 1 25 0;
#X connect 12 1 19 0;
#X connect 12 1 31 1;
#X connect 12 2 46 1;
#X connect 12 2 47 0;
#X connect 12 2 33 0;
#X connect 12 3 45 1;
#X connect 12 3 48 0;
#X connect 12 3 39 0;
#X connect 12 4 55 1;
#X connect 12 4 56 0;
#X connect 12 4 49 0;
#X connect 17 0 12 1;
#X connect 18 0 11 1;
#X connect 19 0 20 0;
#X connect 19 1 21 0;
#X connect 19 2 22 0;
#X connect 19 3 23 0;
#X connect 24 0 19 1;
#X connect 27 0 28 0;
#X connect 28 0 29 0;
#X connect 28 1 4 0;
#X connect 30 0 6 0;
#X connect 30 1 17 0;
#X connect 30 2 31 0;
#X connect 30 2 46 0;
#X connect 30 2 45 0;
#X connect 30 2 55 0;
#X connect 30 2 32 0;
#X connect 31 0 24 0;
#X connect 32 0 18 0;
#X connect 33 0 34 0;
#X connect 33 1 35 0;
#X connect 33 2 36 0;
#X connect 33 3 37 0;
#X connect 38 0 33 1;
#X connect 39 0 40 0;
#X connect 39 1 41 0;
#X connect 39 2 42 0;
#X connect 39 3 43 0;
#X connect 44 0 39 1;
#X connect 45 0 44 0;
#X connect 46 0 38 0;
#X connect 49 0 50 0;
#X connect 49 1 51 0;
#X connect 49 2 52 0;
#X connect 49 3 53 0;
#X connect 54 0 49 1;
#X connect 55 0 54 0;
