#N canvas 820 23 514 424 10;
#X declare -path abs;
#X obj 133 122 bng 20 250 50 0 empty empty empty -30 12 0 10 -262144
-1 -1;
#X obj 133 146 bng 30 250 50 0 empty empty empty -30 15 0 10 -228856
-1 -1;
#X obj 133 180 bng 30 250 50 0 empty empty empty -20 15 0 10 -228856
-1 -1;
#X obj 78 72 cnv 20 20 20 empty \$0-ledG empty 20 12 0 14 -225271 -66577
0;
#X obj 43 72 cnv 20 20 20 empty \$0-ledR empty 20 12 0 14 -258699 -66577
0;
#X obj 113 72 cnv 20 20 20 empty \$0-ledB empty 20 12 0 14 -225280
-66577 0;
#X obj 189 53 vsl 20 128 0 1 0 0 empty empty empty 0 -9 0 10 -262144
-1 -1 6000 1;
#X obj 218 43 vsl 20 128 0 1 0 0 empty empty empty 0 -9 0 10 -262144
-1 -1 4000 1;
#X obj 247 33 vsl 20 128 0 1 0 0 empty empty empty 0 -9 0 10 -262144
-1 -1 4900 1;
#X obj 277 23 vsl 20 128 0 1 0 0 empty empty empty 0 -9 0 10 -262144
-1 -1 7000 1;
#X obj 43 21 tgl 25 0 empty empty sw -22 12 0 10 -262144 -1 -1 1 1
;
#N canvas 854 363 585 385 guts------ 0;
#X obj 66 25 inlet;
#X obj 156 25 inlet;
#X obj 256 25 inlet;
#X obj 356 25 inlet;
#N canvas 639 285 786 508 leds 0;
#X obj 237 301 s \$0-ledG;
#X obj 237 211 * 10;
#X obj 237 241 + 6;
#X msg 237 271 color \$1;
#X obj 321 211 * 10;
#X msg 321 271 color \$1;
#X obj 321 241 + 7;
#X obj 146 211 * 10;
#X msg 146 271 color \$1;
#X obj 146 301 s \$0-ledR;
#X obj 321 301 s \$0-ledB;
#X obj 146 241 + 3;
#X msg 77 101 all 0;
#X msg 77 131 all 1;
#X obj 146 131 t f f f;
#X obj 146 101 route all r g b;
#X obj 159 176 r led_red;
#X obj 236 175 r led_green;
#X obj 321 175 r led_blue;
#X connect 1 0 2 0;
#X connect 2 0 3 0;
#X connect 3 0 0 0;
#X connect 4 0 6 0;
#X connect 5 0 10 0;
#X connect 6 0 5 0;
#X connect 7 0 11 0;
#X connect 8 0 9 0;
#X connect 11 0 8 0;
#X connect 12 0 15 0;
#X connect 13 0 15 0;
#X connect 14 0 7 0;
#X connect 14 1 1 0;
#X connect 14 2 4 0;
#X connect 15 0 14 0;
#X connect 15 1 7 0;
#X connect 15 2 1 0;
#X connect 15 3 4 0;
#X connect 16 0 7 0;
#X connect 17 0 1 0;
#X connect 18 0 4 0;
#X restore 196 168 pd leds;
#X obj 65 167 sender bela_trill;
#X obj 65 192 route bar1 bar2 bar3 bar4;
#X obj 65 218 route 1;
#X obj 108 240 route 1;
#X obj 149 261 route 1;
#X obj 195 238 route 1;
#X obj 67 350 outlet;
#X obj 456 24 inlet;
#N canvas 590 61 477 451 numtouches 0;
#X obj 37 37 inlet;
#X obj 322 40 inlet;
#X obj 70 92 == 0;
#X obj 117 117 spigot;
#X obj 227 117 spigot;
#X obj 150 92 == 1;
#X obj 260 92 == 2;
#X obj 37 117 spigot 1;
#X obj 117 138 t f f;
#X obj 162 166 + 0.3;
#X obj 162 187 min 1;
#X obj 117 207 pack f f;
#X obj 246 187 min 1;
#X obj 227 207 pack f f f;
#X obj 227 138 t f f f;
#X obj 285 187 min 1;
#X obj 246 166 + 0.2;
#X obj 285 166 + 0.4;
#X msg 117 228 2 \$1 1 \$2 1;
#X msg 227 228 3 \$1 1 \$2 1 \$3 1;
#X msg 37 138 1 \$1 1;
#X obj 37 279 t b a;
#X msg 37 321 0;
#X obj 37 342 outlet;
#X obj 37 300 delay 400;
#X connect 0 0 3 0;
#X connect 0 0 4 0;
#X connect 0 0 7 0;
#X connect 1 0 2 0;
#X connect 1 0 5 0;
#X connect 1 0 6 0;
#X connect 2 0 7 1;
#X connect 3 0 8 0;
#X connect 4 0 14 0;
#X connect 5 0 3 1;
#X connect 6 0 4 1;
#X connect 7 0 20 0;
#X connect 8 0 11 0;
#X connect 8 1 9 0;
#X connect 9 0 10 0;
#X connect 10 0 11 1;
#X connect 11 0 18 0;
#X connect 12 0 13 1;
#X connect 13 0 19 0;
#X connect 14 0 13 0;
#X connect 14 1 16 0;
#X connect 14 2 17 0;
#X connect 15 0 13 2;
#X connect 16 0 12 0;
#X connect 17 0 15 0;
#X connect 18 0 21 0;
#X connect 19 0 21 0;
#X connect 20 0 21 0;
#X connect 21 0 24 0;
#X connect 21 1 23 0;
#X connect 22 0 23 0;
#X connect 24 0 22 0;
#X restore 66 66 pd numtouches;
#N canvas 0 23 450 443 numtouches 0;
#X obj 37 37 inlet;
#X obj 322 40 inlet;
#X obj 70 92 == 0;
#X obj 117 117 spigot;
#X obj 227 117 spigot;
#X obj 150 92 == 1;
#X obj 260 92 == 2;
#X obj 37 117 spigot 1;
#X obj 117 138 t f f;
#X obj 162 166 + 0.3;
#X obj 162 187 min 1;
#X obj 117 207 pack f f;
#X obj 246 187 min 1;
#X obj 227 207 pack f f f;
#X obj 227 138 t f f f;
#X obj 285 187 min 1;
#X obj 246 166 + 0.2;
#X obj 285 166 + 0.4;
#X msg 117 228 2 \$1 1 \$2 1;
#X msg 227 228 3 \$1 1 \$2 1 \$3 1;
#X msg 37 137 1 \$1 1;
#X msg 37 321 0;
#X obj 37 342 outlet;
#X obj 37 279 t b a;
#X obj 37 300 delay 400;
#X connect 0 0 3 0;
#X connect 0 0 4 0;
#X connect 0 0 7 0;
#X connect 1 0 2 0;
#X connect 1 0 5 0;
#X connect 1 0 6 0;
#X connect 2 0 7 1;
#X connect 3 0 8 0;
#X connect 4 0 14 0;
#X connect 5 0 3 1;
#X connect 6 0 4 1;
#X connect 7 0 20 0;
#X connect 8 0 11 0;
#X connect 8 1 9 0;
#X connect 9 0 10 0;
#X connect 10 0 11 1;
#X connect 11 0 18 0;
#X connect 12 0 13 1;
#X connect 13 0 19 0;
#X connect 14 0 13 0;
#X connect 14 1 16 0;
#X connect 14 2 17 0;
#X connect 15 0 13 2;
#X connect 16 0 12 0;
#X connect 17 0 15 0;
#X connect 18 0 23 0;
#X connect 19 0 23 0;
#X connect 20 0 23 0;
#X connect 21 0 22 0;
#X connect 23 0 24 0;
#X connect 23 1 22 0;
#X connect 24 0 21 0;
#X restore 156 106 pd numtouches;
#X obj 156 127 list prepend bar2;
#X obj 65 147 list trim;
#X obj 66 87 list prepend bar1;
#N canvas 0 23 450 379 numtouches 0;
#X obj 37 37 inlet;
#X obj 322 40 inlet;
#X obj 70 92 == 0;
#X obj 117 117 spigot;
#X obj 227 117 spigot;
#X obj 150 92 == 1;
#X obj 260 92 == 2;
#X obj 37 117 spigot 1;
#X obj 117 138 t f f;
#X obj 162 166 + 0.3;
#X obj 162 187 min 1;
#X obj 117 207 pack f f;
#X obj 246 187 min 1;
#X obj 227 207 pack f f f;
#X obj 227 138 t f f f;
#X obj 285 187 min 1;
#X obj 246 166 + 0.2;
#X obj 285 166 + 0.4;
#X msg 117 228 2 \$1 1 \$2 1;
#X msg 227 228 3 \$1 1 \$2 1 \$3 1;
#X msg 37 138 1 \$1 1;
#X msg 37 321 0;
#X obj 37 342 outlet;
#X obj 37 279 t b a;
#X obj 37 301 delay 400;
#X connect 0 0 3 0;
#X connect 0 0 4 0;
#X connect 0 0 7 0;
#X connect 1 0 2 0;
#X connect 1 0 5 0;
#X connect 1 0 6 0;
#X connect 2 0 7 1;
#X connect 3 0 8 0;
#X connect 4 0 14 0;
#X connect 5 0 3 1;
#X connect 6 0 4 1;
#X connect 7 0 20 0;
#X connect 8 0 11 0;
#X connect 8 1 9 0;
#X connect 9 0 10 0;
#X connect 10 0 11 1;
#X connect 11 0 18 0;
#X connect 12 0 13 1;
#X connect 13 0 19 0;
#X connect 14 0 13 0;
#X connect 14 1 16 0;
#X connect 14 2 17 0;
#X connect 15 0 13 2;
#X connect 16 0 12 0;
#X connect 17 0 15 0;
#X connect 18 0 23 0;
#X connect 19 0 23 0;
#X connect 20 0 23 0;
#X connect 21 0 22 0;
#X connect 23 0 24 0;
#X connect 23 1 22 0;
#X connect 24 0 21 0;
#X restore 256 66 pd numtouches;
#N canvas 0 23 450 364 numtouches 0;
#X obj 37 37 inlet;
#X obj 322 40 inlet;
#X obj 70 92 == 0;
#X obj 117 117 spigot;
#X obj 227 117 spigot;
#X obj 150 92 == 1;
#X obj 260 92 == 2;
#X obj 37 117 spigot 1;
#X obj 117 138 t f f;
#X obj 162 166 + 0.3;
#X obj 162 187 min 1;
#X obj 117 207 pack f f;
#X obj 246 187 min 1;
#X obj 227 207 pack f f f;
#X obj 227 138 t f f f;
#X obj 285 187 min 1;
#X obj 246 166 + 0.2;
#X obj 285 166 + 0.4;
#X msg 117 228 2 \$1 1 \$2 1;
#X msg 227 228 3 \$1 1 \$2 1 \$3 1;
#X msg 37 138 1 \$1 1;
#X msg 37 321 0;
#X obj 37 342 outlet;
#X obj 37 279 t b a;
#X obj 37 300 delay 400;
#X connect 0 0 3 0;
#X connect 0 0 4 0;
#X connect 0 0 7 0;
#X connect 1 0 2 0;
#X connect 1 0 5 0;
#X connect 1 0 6 0;
#X connect 2 0 7 1;
#X connect 3 0 8 0;
#X connect 4 0 14 0;
#X connect 5 0 3 1;
#X connect 6 0 4 1;
#X connect 7 0 20 0;
#X connect 8 0 11 0;
#X connect 8 1 9 0;
#X connect 9 0 10 0;
#X connect 10 0 11 1;
#X connect 11 0 18 0;
#X connect 12 0 13 1;
#X connect 13 0 19 0;
#X connect 14 0 13 0;
#X connect 14 1 16 0;
#X connect 14 2 17 0;
#X connect 15 0 13 2;
#X connect 16 0 12 0;
#X connect 17 0 15 0;
#X connect 18 0 23 0;
#X connect 19 0 23 0;
#X connect 20 0 23 0;
#X connect 21 0 22 0;
#X connect 23 0 24 0;
#X connect 23 1 22 0;
#X connect 24 0 21 0;
#X restore 346 106 pd numtouches;
#X obj 256 87 list prepend bar3;
#X obj 346 127 list prepend bar4;
#X connect 0 0 13 0;
#X connect 1 0 14 0;
#X connect 2 0 18 0;
#X connect 3 0 19 0;
#X connect 5 0 6 0;
#X connect 6 0 7 0;
#X connect 6 1 8 0;
#X connect 6 2 9 0;
#X connect 6 3 10 0;
#X connect 7 0 11 0;
#X connect 8 0 11 0;
#X connect 9 0 11 0;
#X connect 10 0 11 0;
#X connect 12 0 13 1;
#X connect 12 0 14 1;
#X connect 12 0 18 1;
#X connect 12 0 19 1;
#X connect 13 0 17 0;
#X connect 14 0 15 0;
#X connect 15 0 16 0;
#X connect 16 0 5 0;
#X connect 17 0 16 0;
#X connect 18 0 20 0;
#X connect 19 0 21 0;
#X connect 20 0 16 0;
#X connect 21 0 16 0;
#X restore 189 205 pd guts------;
#X obj 1 1 cnv 15 318 15 empty empty empty 20 12 0 14 -233017 -66577
0;
#X obj 1 224 cnv 15 318 15 empty empty empty 20 12 0 14 -233017 -66577
0;
#X obj 1 17 cnv 15 15 220 empty empty empty 20 12 0 14 -233017 -66577
0;
#X obj 304 17 cnv 15 15 220 empty empty empty 20 12 0 14 -233017 -66577
0;
#X obj 334 5 declare -path abs;
#X obj 90 122 bng 20 250 50 0 empty empty empty -30 12 0 10 -262144
-1 -1;
#X obj 90 146 bng 30 250 50 0 empty empty empty -30 15 0 10 -228856
-1 -1;
#X obj 90 180 bng 30 250 50 0 empty empty empty -20 15 0 10 -228856
-1 -1;
#X obj 47 122 bng 20 250 50 0 empty empty sm -20 12 0 10 -262144 -1
-1;
#X obj 47 146 bng 30 250 50 0 empty empty up -20 15 0 10 -228856 -1
-1;
#X obj 47 180 bng 30 250 50 0 empty empty dn -20 15 0 10 -228856 -1
-1;
#X msg 350 266 double;
#X msg 364 285 long;
#X msg 200 276 double;
#X msg 214 295 long;
#X msg 60 276 double;
#X msg 74 295 long;
#X text 82 104 double;
#X text 128 105 long;
#X msg 50 256 single;
#X msg 190 256 single;
#X msg 340 246 single;
#X text 39 105 single;
#X msg 359 161 switch \$1;
#X obj 53 352 list trim;
#X obj 195 351 list trim;
#X obj 345 341 list trim;
#X obj 53 373 s devGuiButtons;
#X obj 80 22 cnv 15 60 20 empty \$0-label play 5 10 0 14 -233017 -66577
0;
#X obj 412 119 s \$0-label;
#X msg 409 87 label play;
#X obj 354 43 route 0 1;
#X msg 354 66 label setup;
#X obj 53 332 list prepend btn_small;
#X obj 193 332 list prepend btn_keyUp;
#X obj 343 322 list prepend btn_keyDn;
#X obj 262 184 hradio 15 1 0 3 empty empty empty 0 -8 0 10 -262144
-1 -1 1;
#X text 243 169 numTouches;
#X floatatom 280 204 1 1 3 0 - - -;
#X obj 342 208 + 1;
#X connect 0 0 28 0;
#X connect 1 0 26 0;
#X connect 2 0 24 0;
#X connect 6 0 11 0;
#X connect 7 0 11 1;
#X connect 8 0 11 2;
#X connect 9 0 11 3;
#X connect 10 0 35 0;
#X connect 10 0 43 0;
#X connect 17 0 27 0;
#X connect 18 0 25 0;
#X connect 19 0 23 0;
#X connect 20 0 31 0;
#X connect 21 0 32 0;
#X connect 22 0 33 0;
#X connect 23 0 47 0;
#X connect 24 0 47 0;
#X connect 25 0 46 0;
#X connect 26 0 46 0;
#X connect 27 0 45 0;
#X connect 28 0 45 0;
#X connect 31 0 45 0;
#X connect 32 0 46 0;
#X connect 33 0 47 0;
#X connect 35 0 39 0;
#X connect 36 0 39 0;
#X connect 37 0 39 0;
#X connect 38 0 39 0;
#X connect 42 0 41 0;
#X connect 43 0 44 0;
#X connect 43 1 42 0;
#X connect 44 0 41 0;
#X connect 45 0 36 0;
#X connect 46 0 37 0;
#X connect 47 0 38 0;
#X connect 48 0 11 4;
#X connect 48 0 51 0;
#X connect 51 0 50 0;
#X coords 0 -1 1 1 320 240 1 0 0;
