#N canvas 876 124 512 382 12;
#X declare -path abs;
#X obj 43 122 bng 20 250 50 0 empty empty sm -20 12 0 10 -262144 -1
-1;
#X obj 43 146 bng 30 250 50 0 empty empty up -20 15 0 10 -228856 -1
-1;
#X obj 43 180 bng 30 250 50 0 empty empty dn -20 15 0 10 -228856 -1
-1;
#X obj 78 72 cnv 20 20 20 empty \$0-ledG empty 20 12 0 14 -225271 -66577
0;
#X obj 43 72 cnv 20 20 20 empty \$0-ledR empty 20 12 0 14 -261689 -66577
0;
#X obj 113 72 cnv 20 20 20 empty \$0-ledB empty 20 12 0 14 -225280
-66577 0;
#X obj 189 53 vsl 20 128 0 1 0 0 empty empty empty 0 -9 0 10 -262144
-1 -1 0 1;
#X obj 218 43 vsl 20 128 0 1 0 0 empty empty empty 0 -9 0 10 -262144
-1 -1 0 1;
#X obj 247 33 vsl 20 128 0 1 0 0 empty empty empty 0 -9 0 10 -262144
-1 -1 0 1;
#X obj 277 23 vsl 20 128 0 1 0 0 empty empty empty 0 -9 0 10 -262144
-1 -1 0 1;
#X obj 43 21 tgl 25 0 empty empty sw -22 12 0 10 -262144 -1 -1 0 1
;
#N canvas 854 363 450 385 guts------ 0;
#X obj 66 25 inlet;
#X obj 156 25 inlet;
#X obj 256 25 inlet;
#X obj 356 25 inlet;
#X msg 66 85 bar1 1 \$1;
#X msg 156 85 bar2 1 \$1;
#X msg 256 85 bar3 1 \$1;
#X msg 356 85 bar4 1 \$1;
#N canvas 639 285 786 508 leds 0;
#X obj 237 301 s \$0-ledG;
#X obj 237 211 * 10;
#X obj 237 241 + 6;
#X msg 237 271 color \$1;
#X obj 321 211 * 10;
#X msg 321 271 color \$1;
#X obj 321 241 + 7;
#X obj 146 211 * 10;
#X msg 146 271 color \$1;
#X obj 146 301 s \$0-ledR;
#X obj 321 301 s \$0-ledB;
#X obj 146 241 + 3;
#X msg 77 101 all 0;
#X msg 77 131 all 1;
#X obj 146 131 t f f f;
#X obj 146 101 route all r g b;
#X obj 159 176 r led_red;
#X obj 236 175 r led_green;
#X obj 321 175 r led_blue;
#X connect 1 0 2 0;
#X connect 2 0 3 0;
#X connect 3 0 0 0;
#X connect 4 0 6 0;
#X connect 5 0 10 0;
#X connect 6 0 5 0;
#X connect 7 0 11 0;
#X connect 8 0 9 0;
#X connect 11 0 8 0;
#X connect 12 0 15 0;
#X connect 13 0 15 0;
#X connect 14 0 7 0;
#X connect 14 1 1 0;
#X connect 14 2 4 0;
#X connect 15 0 14 0;
#X connect 15 1 7 0;
#X connect 15 2 1 0;
#X connect 15 3 4 0;
#X connect 16 0 7 0;
#X connect 17 0 1 0;
#X connect 18 0 4 0;
#X restore 196 168 pd leds;
#X obj 65 167 sender bela_trill;
#X obj 65 192 route bar1 bar2 bar3 bar4;
#X obj 65 218 route 1;
#X obj 108 240 route 1;
#X obj 149 261 route 1;
#X obj 195 238 route 1;
#X obj 67 350 outlet;
#X connect 0 0 4 0;
#X connect 1 0 5 0;
#X connect 2 0 6 0;
#X connect 3 0 7 0;
#X connect 4 0 9 0;
#X connect 5 0 9 0;
#X connect 6 0 9 0;
#X connect 7 0 9 0;
#X connect 9 0 10 0;
#X connect 10 0 11 0;
#X connect 10 1 12 0;
#X connect 10 2 13 0;
#X connect 10 3 14 0;
#X connect 11 0 15 0;
#X connect 12 0 15 0;
#X connect 13 0 15 0;
#X connect 14 0 15 0;
#X restore 189 195 pd guts------;
#X obj 1 1 cnv 15 318 15 empty empty empty 20 12 0 14 -233017 -66577
0;
#X obj 1 224 cnv 15 318 15 empty empty empty 20 12 0 14 -233017 -66577
0;
#X obj 1 17 cnv 15 15 220 empty empty empty 20 12 0 14 -233017 -66577
0;
#X obj 304 17 cnv 15 15 220 empty empty empty 20 12 0 14 -233017 -66577
0;
#X obj 84 26 sender switch;
#X obj 70 123 sender button_small;
#X obj 76 155 sender button_keyUp;
#X obj 75 192 sender button_keyDn;
#X obj 334 5 declare -path abs;
#X connect 0 0 17 0;
#X connect 1 0 18 0;
#X connect 2 0 19 0;
#X connect 6 0 11 0;
#X connect 7 0 11 1;
#X connect 8 0 11 2;
#X connect 9 0 11 3;
#X connect 10 0 16 0;
#X connect 16 0 10 0;
#X connect 17 0 0 0;
#X connect 18 0 1 0;
#X connect 19 0 2 0;
#X coords 0 -1 1 1 320 240 1 0 0;
