#N canvas 586 376 693 373 10;
#X declare -path sigpack;
#X obj 99 70 freqshift~;
#X obj 120 18 declare -path sigpack;
#X obj 68 124 freqShifter~;
#X obj 67 173 dac~;
#X floatatom 72 97 5 0 0 0 - - -;
#X obj 138 185 dac~;
#X obj 333 157 nbx 4 14 1000 3000 1 1 empty empty empty 0 -8 0 10 -262144
-1 -1 3000 256;
#X obj 261 177 readsf~;
#X obj 276 25 openpanel;
#X msg 276 77 open /Users/johannes/projects/komp-2020/AudioSculpt/Parallella\ skeenden.wav
\, start;
#X obj 276 -6 bng 25 250 50 0 empty empty empty 17 7 0 10 -262144 -260097
-1;
#X text 308 -2 open soundfile;
#X msg 275 43 set open \$1 \, addcomma \, add2 start \, bang;
#X msg 287 144 stop;
#X obj 12 148 print;
#X msg 31 29 bang;
#X obj 258 203 *~ 20;
#X obj 79 225 hsl 128 15 -10000 10000 0 0 empty empty empty -2 -8 0
10 -262144 -1 -1 0 1;
#X msg 10 65 Shift \$1;
#X obj 67 6 loadbang;
#X obj 390 250 cputime;
#X obj 390 194 metro 1000;
#X obj 390 222 t b b;
#X obj 390 310 * 0.1;
#X obj 390 279 int;
#X msg 72 37 Shift -5000;
#X obj 391 335 print load;
#X msg 204 280 \; pd dsp 1;
#X connect 2 0 14 0;
#X connect 2 1 5 0;
#X connect 4 0 2 0;
#X connect 7 0 16 0;
#X connect 7 1 9 0;
#X connect 8 0 12 0;
#X connect 9 0 7 0;
#X connect 10 0 8 0;
#X connect 12 0 9 0;
#X connect 13 0 7 0;
#X connect 15 0 2 0;
#X connect 16 0 2 1;
#X connect 17 0 18 0;
#X connect 18 0 2 0;
#X connect 19 0 25 0;
#X connect 19 0 21 0;
#X connect 19 0 9 0;
#X connect 19 0 27 0;
#X connect 20 0 24 0;
#X connect 21 0 22 0;
#X connect 22 0 20 0;
#X connect 22 1 20 1;
#X connect 23 0 26 0;
#X connect 24 0 23 0;
#X connect 25 0 2 0;
