#N canvas 341 342 450 300 12;
#X obj 162 23 inlet;
#X obj 27 143 i;
#X obj 59 142 + 1;
#X obj 89 143 mod \$1;
#X obj 18 16 inlet;
#X obj 19 46 spigot;
#X obj 160 51 t f f;
#X obj 190 77 route 1;
#X obj 58 184 outlet;
#X obj 19 73 t b;
#X connect 0 0 6 0;
#X connect 1 0 2 0;
#X connect 2 0 3 0;
#X connect 2 0 8 0;
#X connect 3 0 1 1;
#X connect 4 0 5 0;
#X connect 5 0 9 0;
#X connect 6 0 5 1;
#X connect 6 1 7 0;
#X connect 7 1 8 0;
#X connect 9 0 1 0;
