#N canvas 546 121 702 303 12;
#X obj 172 12 inlet;
#X obj 173 187 outlet;
#X obj 172 39 t f f;
#X obj 343 182 outlet;
#X obj 173 99 == \$1;
#X obj 173 123 t f f;
#X obj 252 160 sel 1;
#X obj 412 93 s MENU;
#X obj 252 184 t b b;
#X obj 252 208 outlet;
#X obj 411 42 list prepend \$2;
#X obj 411 66 list trim;
#X connect 0 0 2 0;
#X connect 2 0 4 0;
#X connect 2 1 3 0;
#X connect 4 0 5 0;
#X connect 5 0 1 0;
#X connect 5 1 6 0;
#X connect 6 0 8 0;
#X connect 8 0 9 0;
#X connect 8 1 10 0;
#X connect 10 0 11 0;
#X connect 11 0 7 0;
