#N canvas 198 149 955 534 12;
#X obj 434 56 bng 15 250 50 0 empty empty sm 17 7 0 10 -262144 -1 -1
;
#X obj 714 55 bng 20 250 50 0 empty empty up 22 10 0 10 -262144 -1
-1;
#X obj 838 56 bng 20 250 50 0 empty empty dn 22 10 0 10 -262144 -1
-1;
#X obj 461 93 i;
#X obj 491 94 + 1;
#X obj 523 93 mod 3;
#X floatatom 418 153 5 0 0 0 - - -;
#X obj 460 126 t f f f f;
#X obj 500 177 tgl 15 0 empty empty empty 17 7 0 10 -262144 -1 -1 0
1;
#X msg 484 43 0;
#X text 512 43 reset;
#N canvas 0 23 450 300 do 0;
#X obj 171 66 inlet;
#X restore 500 199 pd do something if active;
#N canvas 0 23 450 300 menu 0;
#X obj 87 17 inlet;
#X obj 87 143 outlet;
#X restore 500 152 pd menu name 2;
#N canvas 0 23 450 300 menu 1;
#X restore 714 85 pd menu name;
#X obj 79 20 tgl 25 0 empty empty Switch 27 12 0 10 -262144 -1 -1 0
1;
#N canvas 0 23 450 300 menu 1;
#X restore 79 60 pd menu 0;
#X connect 0 0 3 0;
#X connect 3 0 4 0;
#X connect 3 0 6 0;
#X connect 3 0 7 0;
#X connect 4 0 5 0;
#X connect 5 0 3 1;
#X connect 7 2 12 0;
#X connect 8 0 11 0;
#X connect 9 0 3 0;
#X connect 12 0 8 0;
