#N canvas 305 219 775 422 10;
#X declare -path abs -path patches;
#X obj 391 3 declare -path abs -path patches;
#X msg 94 38 foo;
#X obj 85 85 clone-wrapper 2 test;
#X obj 84 9 tgl 15 0 empty empty empty 17 7 0 10 -262144 -1 -1 0 1
;
#X obj 86 137 print out;
#X text 312 143 test;
#X connect 1 0 2 0;
#X connect 2 0 4 0;
#X connect 3 0 2 0;
