#N canvas 468 358 610 305 10;
#X declare -path rj;
#N canvas 328 476 587 295 sigmund 0;
#X obj 95 26 inlet~;
#X obj 97 153 outlet;
#X floatatom 186 153 5 0 0 0 - - -;
#X obj 218 28 osc~ 222;
#X obj 344 184;
#X obj 205 76 sigmund~ pitch -npts 128 -hop 64 -stabletime 100 -npeak
8;
#X obj 346 218 block~ 64 1 0.0625;
#X connect 0 0 5 0;
#X connect 3 0 5 0;
#X connect 5 0 1 0;
#X restore 54 98 pd sigmund;
#N canvas 323 23 664 302 lowpass 0;
#X obj 71 15 inlet~;
#X obj 68 154 outlet~;
#X obj 276 6 bng 15 250 50 0 empty empty empty 17 7 0 10 -262144 -1
-1;
#X obj 68 68 biquad~;
#X obj 68 88 biquad~;
#X obj 68 108 biquad~;
#X obj 365 7 loadbang;
#X text 360 131 6th order butterworth;
#X obj 67 34 hip~ 5;
#X obj 355 29 u_lowpassq 1033 0.517638;
#X obj 353 56 u_lowpassq 1033 0.707107;
#X obj 355 89 u_lowpassq 1033 1.93185;
#X connect 0 0 8 0;
#X connect 2 0 9 0;
#X connect 2 0 10 0;
#X connect 2 0 11 0;
#X connect 3 0 4 0;
#X connect 4 0 5 0;
#X connect 5 0 1 0;
#X connect 6 0 9 0;
#X connect 8 0 3 0;
#X connect 9 0 3 0;
#X connect 10 0 4 0;
#X connect 11 0 5 0;
#X restore 53 73 pd lowpass;
#X obj 51 46 inlet~;
#X obj 437 25 declare -path rj;
#X obj 53 142 m_speedlimit 1000;
#X obj 51 163 print p1;
#N canvas 577 271 587 295 sigmund 0;
#X obj 95 26 inlet~;
#X obj 97 153 outlet;
#X floatatom 135 91 5 0 0 0 - - -;
#X obj 21 38 osc~ 222;
#X obj 344 196 bng 15 250 50 0 empty empty empty 17 7 0 10 -262144
-1 -1;
#X obj 344 164 metro 1000;
#X obj 342 143 loadbang;
#X msg 110 282;
#X obj 142 196 pd~;
#X obj 95 62 sigmund~ pitch -npts 128 -hop 64 -stabletime 10 -npeak
8;
#X obj 346 218 block~ 64 1 0.0625;
#X connect 0 0 9 0;
#X connect 3 0 9 0;
#X connect 4 0 10 0;
#X connect 6 0 5 0;
#X connect 9 0 1 0;
#X connect 9 0 2 0;
#X restore 184 98 pd sigmund;
#N canvas 323 23 664 302 lowpass 0;
#X obj 71 15 inlet~;
#X obj 68 154 outlet~;
#X obj 276 6 bng 15 250 50 0 empty empty empty 17 7 0 10 -262144 -1
-1;
#X obj 68 68 biquad~;
#X obj 68 88 biquad~;
#X obj 68 108 biquad~;
#X obj 365 7 loadbang;
#X text 360 131 6th order butterworth;
#X obj 67 34 hip~ 5;
#X obj 355 29 u_lowpassq 1033 0.517638;
#X obj 353 56 u_lowpassq 1033 0.707107;
#X obj 355 89 u_lowpassq 1033 1.93185;
#X connect 0 0 8 0;
#X connect 2 0 9 0;
#X connect 2 0 10 0;
#X connect 2 0 11 0;
#X connect 3 0 4 0;
#X connect 4 0 5 0;
#X connect 5 0 1 0;
#X connect 6 0 9 0;
#X connect 8 0 3 0;
#X connect 9 0 3 0;
#X connect 10 0 4 0;
#X connect 11 0 5 0;
#X restore 183 73 pd lowpass;
#X obj 181 46 inlet~;
#X obj 183 142 m_speedlimit 1000;
#X obj 181 163 print p2;
#N canvas 312 230 587 295 sigmund 0;
#X obj 95 26 inlet~;
#X obj 97 153 outlet;
#X obj 95 62 sigmund~ pitch -npts 128 -hop 64 -stabletime 100 -npeak
8;
#X obj 346 218 block~ 64 1 0.0625;
#X connect 0 0 2 0;
#X connect 2 0 1 0;
#X restore 314 98 pd sigmund;
#N canvas 323 23 664 302 lowpass 0;
#X obj 71 15 inlet~;
#X obj 68 154 outlet~;
#X obj 276 6 bng 15 250 50 0 empty empty empty 17 7 0 10 -262144 -1
-1;
#X obj 68 68 biquad~;
#X obj 68 88 biquad~;
#X obj 68 108 biquad~;
#X obj 365 7 loadbang;
#X text 360 131 6th order butterworth;
#X obj 67 34 hip~ 5;
#X obj 355 29 u_lowpassq 1033 0.517638;
#X obj 353 56 u_lowpassq 1033 0.707107;
#X obj 355 89 u_lowpassq 1033 1.93185;
#X connect 0 0 8 0;
#X connect 2 0 9 0;
#X connect 2 0 10 0;
#X connect 2 0 11 0;
#X connect 3 0 4 0;
#X connect 4 0 5 0;
#X connect 5 0 1 0;
#X connect 6 0 9 0;
#X connect 8 0 3 0;
#X connect 9 0 3 0;
#X connect 10 0 4 0;
#X connect 11 0 5 0;
#X restore 313 73 pd lowpass;
#X obj 311 46 inlet~;
#X obj 313 142 m_speedlimit 1000;
#X obj 311 163 print p3;
#N canvas 312 230 587 295 sigmund 0;
#X obj 95 26 inlet~;
#X obj 97 153 outlet;
#X obj 95 62 sigmund~ pitch -npts 128 -hop 64 -stabletime 100 -npeak
8;
#X obj 346 218 block~ 64 1 0.0625;
#X connect 0 0 2 0;
#X connect 2 0 1 0;
#X restore 438 120 pd sigmund;
#N canvas 323 23 664 302 lowpass 0;
#X obj 71 15 inlet~;
#X obj 68 154 outlet~;
#X obj 276 6 bng 15 250 50 0 empty empty empty 17 7 0 10 -262144 -1
-1;
#X obj 68 68 biquad~;
#X obj 68 88 biquad~;
#X obj 68 108 biquad~;
#X obj 365 7 loadbang;
#X text 360 131 6th order butterworth;
#X obj 67 34 hip~ 5;
#X obj 355 29 u_lowpassq 1033 0.517638;
#X obj 353 56 u_lowpassq 1033 0.707107;
#X obj 355 89 u_lowpassq 1033 1.93185;
#X connect 0 0 8 0;
#X connect 2 0 9 0;
#X connect 2 0 10 0;
#X connect 2 0 11 0;
#X connect 3 0 4 0;
#X connect 4 0 5 0;
#X connect 5 0 1 0;
#X connect 6 0 9 0;
#X connect 8 0 3 0;
#X connect 9 0 3 0;
#X connect 10 0 4 0;
#X connect 11 0 5 0;
#X restore 437 95 pd lowpass;
#X obj 435 68 inlet~;
#X obj 437 164 m_speedlimit 1000;
#X obj 435 185 print p4;
#X connect 0 0 4 0;
#X connect 1 0 0 0;
#X connect 2 0 1 0;
#X connect 4 0 5 0;
#X connect 6 0 9 0;
#X connect 7 0 6 0;
#X connect 8 0 7 0;
#X connect 9 0 10 0;
#X connect 11 0 14 0;
#X connect 12 0 11 0;
#X connect 13 0 12 0;
#X connect 14 0 15 0;
#X connect 16 0 19 0;
#X connect 17 0 16 0;
#X connect 18 0 17 0;
#X connect 19 0 20 0;
