#N canvas 497 52 853 535 10;
#X declare -path abs;
#X obj 292 31 devGui;
#X text 217 55 0 = play \; 1 = setup;
#X text 198 108 Page indicator;
#X text 28 137 PLAY;
#X msg 30 166 change patch;
#X msg 30 190 change page;
#X msg 190 166 change setting;
#X text 188 137 SETUP;
#X msg 30 216 patch-specific;
#X msg 190 216 setting-specific;
#X text 641 32 SETTINGS;
#X msg 190 190 change page;
#X obj 24 347 # Patch;
#X obj 27 7 declare -path abs;
#X obj 24 369 # Page 1;
#X obj 24 390 # Page 2;
#X obj 24 412 # Page 3;
#X obj 103 347 # Basic;
#X obj 104 369 # Volume;
#X obj 104 390 #;
#X obj 104 412 #;
#X obj 184 390 #;
#X obj 184 412 #;
#X obj 183 347 #;
#X obj 184 369 #;
#X obj 642 55 # limiter;
#X obj 642 76 # calibration;
#X obj 642 97 # preamp;
#X obj 642 118 # global parameter lag;
#X text 391 320 Patch indicator: 0-7 RGB leds;
#X obj 396 334 cnv 20 20 20 empty empty empty 20 12 0 14 -261689 -66577
0;
#X obj 417 354 cnv 20 20 20 empty empty empty 20 12 0 14 -225271 -66577
0;
#X obj 417 374 cnv 20 20 20 empty empty empty 20 12 0 14 -225271 -66577
0;
#X obj 396 374 cnv 20 20 20 empty empty empty 20 12 0 14 -261689 -66577
0;
#X obj 439 394 cnv 20 20 20 empty empty empty 20 12 0 14 -225280 -66577
0;
#X obj 396 415 cnv 20 20 20 empty empty empty 20 12 0 14 -261689 -66577
0;
#X obj 439 415 cnv 20 20 20 empty empty empty 20 12 0 14 -225280 -66577
0;
#X obj 417 435 cnv 20 20 20 empty empty empty 20 12 0 14 -225271 -66577
0;
#X obj 439 435 cnv 20 20 20 empty empty empty 20 12 0 14 -225280 -66577
0;
#X obj 417 455 cnv 20 20 20 empty empty empty 20 12 0 14 -225271 -66577
0;
#X obj 396 455 cnv 20 20 20 empty empty empty 20 12 0 14 -261689 -66577
0;
#X obj 439 455 cnv 20 20 20 empty empty empty 20 12 0 14 -225280 -66577
0;
#N canvas 0 23 579 412 3x4 0;
#X obj 74 61 hsl 128 15 0 127 0 0 empty empty empty -2 -8 0 10 -262144
-1 -1 0 1;
#X obj 74 81 hsl 128 15 0 127 0 0 empty empty empty -2 -8 0 10 -262144
-1 -1 0 1;
#X obj 74 101 hsl 128 15 0 127 0 0 empty empty empty -2 -8 0 10 -262144
-1 -1 0 1;
#X obj 74 121 hsl 128 15 0 127 0 0 empty empty empty -2 -8 0 10 -262144
-1 -1 0 1;
#X obj 74 171 hsl 128 15 0 127 0 0 empty empty empty -2 -8 0 10 -262144
-1 -1 0 1;
#X obj 74 191 hsl 128 15 0 127 0 0 empty empty empty -2 -8 0 10 -262144
-1 -1 0 1;
#X obj 74 211 hsl 128 15 0 127 0 0 empty empty empty -2 -8 0 10 -262144
-1 -1 0 1;
#X obj 74 231 hsl 128 15 0 127 0 0 empty empty empty -2 -8 0 10 -262144
-1 -1 0 1;
#X obj 74 281 hsl 128 15 0 127 0 0 empty empty empty -2 -8 0 10 -262144
-1 -1 0 1;
#X obj 74 301 hsl 128 15 0 127 0 0 empty empty empty -2 -8 0 10 -262144
-1 -1 0 1;
#X obj 74 321 hsl 128 15 0 127 0 0 empty empty empty -2 -8 0 10 -262144
-1 -1 0 1;
#X obj 74 341 hsl 128 15 0 127 0 0 empty empty empty -2 -8 0 10 -262144
-1 -1 0 1;
#X msg 238 88 MASTERVOLYM/MASTERKONTROLL, f 28;
#X msg 238 197 MODULATION PER STRÄNG;
#X msg 238 308 MODULATION 1-4, f 21;
#X restore 27 31 pd 3x4;
#X f 16;
