#N canvas 18 22 573 477 10;
#X obj 167 -166 adc~ 1 2 3 4 5;
#X obj 210 30 dac~;
#X obj 314 -225 loadbang;
#X msg 323 -201 \; pd dsp 1;
#X obj 90 -83 e-string;
#X obj 145 -83 a-string;
#X obj 200 -83 d-string;
#X obj 254 -83 g-string;
#X obj 309 -83 c-string;
#X obj 129 -123 *~ 2;
#X obj 163 -123 *~ 2;
#X obj 200 -122 *~ 2;
#X obj 235 -121 *~ 2;
#X obj 275 -120 *~ 2;
#X connect 0 0 9 0;
#X connect 0 1 10 0;
#X connect 0 2 11 0;
#X connect 0 3 12 0;
#X connect 0 4 13 0;
#X connect 2 0 3 0;
#X connect 4 0 1 0;
#X connect 5 0 1 0;
#X connect 6 0 1 0;
#X connect 7 0 1 0;
#X connect 8 0 1 0;
#X connect 9 0 4 0;
#X connect 10 0 5 0;
#X connect 11 0 6 0;
#X connect 12 0 7 0;
#X connect 13 0 8 0;