#N canvas 142 53 1020 642 10;
#X obj 142 103 clip~ -1 1;
#X obj 145 230 rpole~;
#X obj 142 82 *~ 1e+07;
#X obj 307 588 dac~;
#X obj 142 62 osc~ 220;
#X floatatom 142 42 5 0 0 0 - - -;
#N canvas 0 22 450 300 (subpatch) 0;
#X array \$0-array 1000 float 0;
#X coords 0 2 999 -1 320 450 1 0 0;
#X restore 650 19 graph;
#X obj 15 357 tabwrite~ \$0-array;
#X obj 158 258 samphold~;
#X obj 143 187 *~ -1;
#X obj 143 208 +~ 1;
#X obj 148 429 /~;
#X obj 97 211 sig~ 1;
#X obj 15 328 metro 100;
#X obj 15 303 loadbang;
#X text 46 8 sine to sawtooth with frequency extraction all signal
level;
#X obj 264 275 samphold~;
#X obj 142 145 biquad~ 0 0 1 -1 0;
#X obj 284 234 rpole~;
#X obj 246 209 sig~ 1;
#X obj 312 187 *~ -1;
#X obj 312 208 +~ 1;
#X obj 159 284 -~ 2;
#X obj 245 302 -~ 1;
#X obj 163 322 +~;
#X obj 187 446 phasor~;
#X obj 187 422 *~ 1.5;
#X obj 358 356 mtof;
#X obj 360 385 / 220;
#X obj 357 333 + 57;
#X obj 358 313 +;
#X floatatom 359 259 5 0 0 0 - - -;
#X floatatom 358 410 5 0 0 0 - - -;
#X obj 359 283 t b f;
#X text 398 258 adjust for second voice (halftones);
#X text 399 412 adjust for second voice (overtones);
#X text 253 449 phasor entirely controlled by incoming signal but freely
transposable;
#X obj 142 124 expr~ $v1>=0;
#X obj 142 166 expr~ $v1==1;
#X obj 236 166 expr~ $v1==-1;
#X obj 182 382 expr~ 44100/$v1;
#X obj 473 181 nbx 4 14 1000 3000 1 1 empty empty empty 0 -8 0 10 -262144
-1 -1 3000 256;
#X obj 417 195 readsf~;
#X obj 416 49 openpanel;
#X msg 416 101 open /Users/johannes/projects/komp-2020/AudioSculpt/Buffé.wav
\, start;
#X obj 416 18 bng 25 250 50 0 empty empty empty 17 7 0 10 -262144 -260097
-1;
#X text 448 22 open soundfile;
#X msg 415 67 set open \$1 \, addcomma \, add2 start \, bang;
#X msg 427 168 stop;
#X obj 187 475 *~ 0.1;
#X obj 421 224 *~ 20;
#X connect 0 0 37 0;
#X connect 1 0 8 0;
#X connect 1 0 11 0;
#X connect 2 0 0 0;
#X connect 5 0 4 0;
#X connect 8 0 22 0;
#X connect 9 0 10 0;
#X connect 10 0 1 1;
#X connect 12 0 1 0;
#X connect 13 0 7 0;
#X connect 14 0 13 0;
#X connect 16 0 23 0;
#X connect 17 0 38 0;
#X connect 17 0 39 0;
#X connect 18 0 16 0;
#X connect 19 0 18 0;
#X connect 20 0 21 0;
#X connect 21 0 18 1;
#X connect 22 0 24 1;
#X connect 23 0 24 0;
#X connect 24 0 11 1;
#X connect 24 0 40 0;
#X connect 25 0 7 0;
#X connect 25 0 49 0;
#X connect 26 0 25 0;
#X connect 27 0 28 0;
#X connect 28 0 32 0;
#X connect 29 0 27 0;
#X connect 30 0 29 0;
#X connect 31 0 33 0;
#X connect 32 0 26 1;
#X connect 33 0 30 0;
#X connect 33 1 30 1;
#X connect 37 0 17 0;
#X connect 37 0 8 1;
#X connect 38 0 9 0;
#X connect 38 0 16 1;
#X connect 39 0 20 0;
#X connect 40 0 26 0;
#X connect 42 0 2 0;
#X connect 42 0 50 0;
#X connect 42 1 44 0;
#X connect 43 0 47 0;
#X connect 44 0 42 0;
#X connect 45 0 43 0;
#X connect 47 0 44 0;
#X connect 48 0 42 0;
#X connect 49 0 3 1;
#X connect 50 0 3 0;
