#N canvas 562 23 450 300 12;
#X obj 105 45 inlet~;
#X obj 105 189 *~;
#X obj 105 213 outlet~;
#X obj 197 144 line~;
#X msg 196 114 \$1 5;
#X obj 199 170 *~;
#X obj 199 194 *~;
#X obj 196 32 bar \$1;
#X obj 196 56 f;
#X obj 264 21 inlet;
#X obj 263 43 t b f;
#X obj 200 85 *;
#X connect 0 0 1 0;
#X connect 1 0 2 0;
#X connect 3 0 5 0;
#X connect 3 0 5 1;
#X connect 4 0 3 0;
#X connect 5 0 6 0;
#X connect 5 0 6 1;
#X connect 6 0 1 1;
#X connect 7 0 8 0;
#X connect 8 0 11 0;
#X connect 9 0 10 0;
#X connect 10 0 8 0;
#X connect 10 1 11 1;
#X connect 11 0 4 0;
