#N canvas 711 197 563 356 12;
#X obj 116 26 osc~ 440;
#X obj 117 244 dac~;
#X obj 193 237 env~;
#X floatatom 195 263 5 0 0 0 - - -;
#X msg 90 3 thresh -20 \, strength 0;
#X msg 258 5 threshLim -6;
#X obj 341 281 dispatch;
#X obj 76 276 print;
#X msg 239 39 heasdlp;
#X obj 76 213 compLimiter~ 0.4 -40;
#X msg 17 21 makeupgain;
#X msg 267 126 makeupGain 0;
#X msg 250 73 strength 0.3;
#X connect 0 0 9 1;
#X connect 2 0 3 0;
#X connect 4 0 9 0;
#X connect 5 0 9 0;
#X connect 8 0 9 0;
#X connect 9 0 7 0;
#X connect 9 1 2 0;
#X connect 10 0 9 0;
#X connect 11 0 9 0;
